<?xml version="1.0" encoding="UTF-8" standalone="no"?>
<!-- Created with Inkscape (http://www.inkscape.org/) -->

<svg
   xmlns:dc="http://purl.org/dc/elements/1.1/"
   xmlns:cc="http://creativecommons.org/ns#"
   xmlns:rdf="http://www.w3.org/1999/02/22-rdf-syntax-ns#"
   xmlns:svg="http://www.w3.org/2000/svg"
   xmlns="http://www.w3.org/2000/svg"
   xmlns:sodipodi="http://sodipodi.sourceforge.net/DTD/sodipodi-0.dtd"
   xmlns:inkscape="http://www.inkscape.org/namespaces/inkscape"
   width="297mm"
   height="210mm"
   viewBox="0 0 297 210"
   version="1.1"
   id="SVGRoot"
   inkscape:version="0.92.2 (5c3e80d, 2017-08-06)"
   sodipodi:docname="mensjes.svg">
  <sodipodi:namedview
     id="base"
     pagecolor="#ffffff"
     bordercolor="#666666"
     borderopacity="1.0"
     inkscape:pageopacity="0.0"
     inkscape:pageshadow="2"
     inkscape:zoom="0.7"
     inkscape:cx="484.56168"
     inkscape:cy="400.45678"
     inkscape:document-units="mm"
     inkscape:current-layer="layer1"
     showgrid="false"
     inkscape:window-width="1920"
     inkscape:window-height="986"
     inkscape:window-x="-11"
     inkscape:window-y="-11"
     inkscape:window-maximized="1" />
  <defs
     id="defs815" />
  <metadata
     id="metadata818">
    <rdf:RDF>
      <cc:Work
         rdf:about="">
        <dc:format>image/svg+xml</dc:format>
        <dc:type
           rdf:resource="http://purl.org/dc/dcmitype/StillImage" />
        <dc:title></dc:title>
      </cc:Work>
    </rdf:RDF>
  </metadata>
  <g
     id="layer1"
     inkscape:groupmode="layer"
     inkscape:label="Layer 1">
    <path
       style="fill:#000000;stroke-width:0.06231369"
       d="m 16.212357,203.26917 c 0.398013,-0.55885 0.39802,0.55885 0,0 z m 73.76385,-6.60983 c 9.045717,-6.54278 19.111933,-12.17113 28.711743,-18.00903 -2.67116,2.88642 -6.89442,5.15311 -10.4388,7.51534 -5.71505,3.83207 -11.816006,8.02252 -18.272943,10.49369 z m 26.748163,-1.25124 c 1.17506,-1.25924 5.36586,-3.60667 5.64171,-3.3007 -1.7746,1.18795 -3.30947,3.49185 -5.64171,3.3007 z m -42.914781,-2.51124 c 1.039113,-0.86216 6.253837,-5.27276 3.14418,-1.42759 -1.011753,0.49365 -1.968079,1.42519 -3.14418,1.42759 z m 0.773847,-0.22751 c -0.246779,-0.13096 -0.05821,0.1404 0,0 z m -0.948983,0.2246 c 0.153684,-0.222 0.07533,0.22782 0,0 z m 148.883017,-1.5752 c -1.30311,-0.9454 2.04473,0.49314 0,0 z m 7.057,-0.22041 c -0.17869,-1.32213 2.4522,-2.1878 0.94634,-2.74572 -0.44468,-0.22596 0.0986,-2.95677 1.17298,-1.22269 0.33396,1.76485 0.67108,5.00786 -2.11932,3.96841 z M 77.653676,190.83759 c 0.159224,-0.22355 0.159213,0.22355 0,0 z m 1.199545,-0.67121 c 5.271835,-4.93652 14.09039,-8.37897 20.869895,-12.71067 4.530464,-2.65587 9.146814,-5.33866 13.518464,-8.10518 3.3283,0.7845 -5.09816,5.05169 -3.93255,3.91271 -8.20484,5.62434 -17.390084,9.59962 -25.797621,14.73922 -1.55278,1.25816 -5.128117,3.23702 -4.658188,2.16392 z m 12.104436,-6.37025 c -0.0774,-0.24565 -0.223594,0.23724 0,0 z m 146.043743,6.35006 c -0.0764,-1.23673 -0.4057,-1.59223 -1.02046,-3.21878 -0.33012,-1.02411 -0.72955,-2.49201 0.84792,-3.27838 1.28549,-1.73511 -2.12553,-3.57765 -2.39811,-5.58576 -1.09524,-2.4427 -0.7886,-3.44711 1.7647,-1.80264 0.94651,-0.80795 0.22403,-2.26827 -0.42069,-2.89312 -1.34477,-2.8087 -0.67486,-5.24922 -2.45069,-7.44232 -2.17179,-2.32263 -6.28477,-3.12387 -7.99345,0.31668 -0.68599,1.8574 0.68423,3.60926 0.42715,5.21682 4.20016,1.52301 -0.87596,2.59963 -2.38351,1.24531 -3.17682,1.53683 -6.59008,-1.65211 -8.53298,-4.23703 -3.17702,-2.96795 -4.12177,-7.67509 -6.5186,-11.02237 2.7881,-2.3243 2.84521,-5.69236 3.73055,-8.98033 2.55333,-3.9417 -11.79326,1.82464 -8.48122,0.78191 -4.41517,1.24737 -1.81117,5.56552 -1.17673,8.21291 3.35687,2.38275 -0.16368,4.5284 -2.94701,5.34817 -6.11348,2.7996 -9.43863,-3.93728 -12.8667,-7.67542 -2.67419,-3.57391 -5.08082,-7.38353 -7.92261,-10.80241 -0.65338,-3.2895 3.591,-3.7327 2.70463,-8.20951 1.15839,-2.29418 -1.13236,-4.91363 -0.23342,-6.78399 2.15471,-5.18576 -4.87356,-2.7272 -6.39236,-0.25016 -3.36274,0.42109 -8.73072,3.34213 -5.73665,7.06378 -0.99686,4.24948 2.74654,4.75396 2.42798,8.37801 -3.74574,3.81588 -10.47231,-2.50579 -14.39985,2.03561 1.05772,2.67212 -2.0079,4.38964 -2.25597,6.97967 1.23548,3.51546 -3.57572,6.6046 -0.61817,9.98577 3.2294,5.77896 12.1355,-2.06052 7.29773,-6.47694 -0.92805,-2.55011 0.21453,-5.4097 -0.99099,-7.93969 1.04543,-1.98955 4.67232,3.90287 9.62917,1.21617 1.23069,6.46624 -4.65637,11.68397 -4.41812,18.20117 0.0534,3.20299 -2.21932,5.95073 -2.93237,8.73942 6.42525,-1.12725 7.12104,2.47323 6.51941,7.25293 -3.3648,1.17368 -3.6515,5.66162 -7.39205,2.3116 -0.99475,-3.27606 -2.00453,2.54782 -3.08209,-0.80324 -1.29647,-3.08517 -2.023,2.08612 -3.63433,-1.84758 -1.64887,2.18092 0.44162,-5.62577 -2.25979,-1.81948 -0.26411,-3.44456 -2.32615,1.13772 -3.07079,-0.2804 0.36525,-3.95678 -5.98878,1.23583 -5.26862,-1.90717 2.8764,-1.04435 -5.74561,0.95416 -5.35255,-1.56424 0.81891,-3.01807 -1.6778,-6.20672 -0.26158,-9.48121 0.72643,-3.03162 1.03599,-5.63403 1.15279,-7.84329 -1.74493,-3.85037 0.3799,-7.86338 0.29593,-11.65042 3.4152,-1.5898 2.36488,3.07367 3.31829,5.17691 8.04946,0.57119 0.41549,-5.67301 -2.39902,-7.71973 -2.48027,-3.0349 -10.70717,0.95839 -9.92353,-5.01532 -0.24165,-2.24028 -2.3256,-4.66928 -0.45165,-6.4504 0.79702,-1.86072 2.83674,-6.02378 4.6964,-2.85922 3.90951,-1.2001 -0.6291,-3.43262 -2.0169,-5.26422 -3.17384,-4.52844 -9.39456,-0.008 -12.86363,2.07901 -0.47905,4.80435 -0.24529,6.53158 -6.70938,3.21318 -4.69406,-0.87348 -11.52081,-1.98195 -11.83392,-7.82522 -0.9851,-6.8912 -0.49848,-14.00986 -1.44275,-20.93658 0.78145,-4.651582 -2.118024,-11.831448 3.87437,-13.472273 1.66887,-2.18582 -6.019853,-0.486302 0.017,-3.072098 3.65985,-2.752539 8.15677,-1.999262 11.70392,0.420913 1.93448,1.22603 1.84387,5.216911 -0.64413,6.355858 -5.2366,2.511279 -2.45442,9.23797 0.87149,12.347 5.17757,1.3384 11.31195,-2.62956 10.0413,-8.249941 0.81071,-4.131377 -5.87759,-5.391977 -4.51792,-9.783251 1.01505,-5.267258 -6.29953,-0.599738 -9.21567,-3.335437 -4.8981,-0.767686 -9.23693,-4.125076 -11.41871,-8.270511 6.08933,-3.149805 -4.356636,0.392383 -2.144817,-5.214703 -0.684662,-4.766752 4.094077,-12.055672 9.164487,-8.307393 1.42332,1.739398 3.81243,2.316693 4.49573,2.679487 -2.25683,-7.063456 -5.89504,-13.672111 -9.57715,-20.092106 -2.67395,-3.57068 -7.262282,-6.269095 -8.508731,-10.57352 3.093092,-1.8724 7.602191,-4.71324 11.191201,-2.859146 2.20319,3.348388 2.85734,7.648939 1.35314,11.418988 1.46656,-0.58004 0.83318,-4.645095 2.73014,-3.520726 0.78958,5.152656 -1.15914,-5.042271 -0.22204,-3.626652 -0.65084,-1.610819 -1.60174,-5.180132 1.34077,-4.931987 4.66132,-0.19734 8.89371,4.286888 7.95177,9.024596 1.10867,3.679791 -1.62981,13.343022 0.84209,5.609641 1.3302,-6.934375 1.66572,10.254001 1.84844,-0.654294 -0.77869,-5.426859 3.08409,-3.15819 6.06542,-2.152668 3.18006,1.648148 3.49863,6.322028 4.20681,9.523222 -1.12123,1.72623 -5.37541,9.230841 -1.96276,4.437887 0.58552,-0.254739 2.79718,-4.380428 2.85662,-1.52111 -0.13579,7.383925 1.60996,2.369107 1.39412,-1.296061 -1.45165,-3.333746 -0.76713,-7.603772 -3.32979,-9.812984 0.20101,-2.143875 3.14226,0.710044 3.81424,1.890558 1.52825,1.466226 2.50714,4.043723 3.7376,5.084632 0.99619,-2.949962 -2.40589,-5.626625 -0.63639,-8.517368 0.653,-2.069917 1.27884,-5.634762 2.19714,-7.461611 0.2626,3.291971 2.27529,8.906308 2.22684,2.054833 -0.19679,-6.309692 -4.71786,-11.152087 -6.09247,-17.089697 4.43854,1.613737 -3.61331,-5.932706 1.56705,-3.735927 3.14966,1.213564 8.26494,-0.388008 9.04929,3.811018 0.48766,0.735098 2.32957,4.99995 1.73111,2.24072 -1.27363,-2.766636 -0.14879,-6.356825 3.28511,-3.596045 0.71531,3.273734 2.91815,6.603528 1.59492,-0.125454 -0.86101,-2.439992 -4.34956,-2.25976 -6.2759,-3.875546 -5.1492,0.675701 -10.30231,-1.071087 -14.4475,-4.020292 3.58438,-4.5436126 10.7903,-1.9086304 16.02005,-2.2437692 7.41937,-0.043187 15.20469,1.3410222 22.61988,0.8628752 3.27388,-0.9163642 -4.04278,5.964841 -3.42672,4.395803 -3.79507,1.863167 -7.78604,3.152566 -10.94475,6.195326 7.04874,-0.302147 14.25693,-4.357588 21.23234,-1.039582 5.02641,2.773601 11.35292,0.03143 16.00879,3.531082 -5.55024,1.29241 -8.35962,5.414941 -1.24621,1.895147 3.83767,-1.140183 5.86986,1.474115 8.27415,3.335297 -1.28502,1.927624 -5.55307,1.402443 -7.80772,1.395289 -2.31621,1.725698 -9.36686,3.107764 -1.69757,2.642812 -2.30628,0.717584 1.70682,0.261249 -0.49115,1.476651 -5.06503,1.635088 1.10556,4.183576 -0.26482,4.618504 2.91809,-2.983675 6.24123,-5.318568 10.52401,-6.634403 2.13531,-1.542072 5.27903,-2.9851 7.49312,-2.593742 4.43757,-0.226489 9.36739,-1.669946 12.75873,1.653272 1.67032,1.637798 4.93006,3.188731 5.04813,5.498357 -3.61074,0.208548 -7.48413,-3.109094 -11.68633,-1.115125 1.58034,1.256821 5.56757,0.658925 6.6425,2.530102 -2.24432,0.67241 -1.57547,3.858612 0.24496,2.086701 1.82644,-2.066617 5.72563,-0.605768 7.31619,1.10233 0.14856,2.738914 1.81331,6.720449 -0.046,8.603271 -5.78123,-0.981184 -6.89543,-9.562824 -13.63687,-8.389744 -3.17294,-2.496596 -7.61827,-1.227514 -11.48642,-0.759053 -6.5875,-1.408854 -13.16199,3.845029 -19.22377,0.815118 -4.41129,-1.543529 -8.99259,-3.988561 -13.70902,-1.761263 -4.01896,1.40694 -8.94647,-2.750694 -12.03306,-2.663213 1.88471,1.620515 3.70122,3.449348 6.09291,4.371911 -4.89932,2.487705 -8.93431,-3.715968 -13.33314,-3.077236 1.42393,1.778865 11.37424,5.424041 5.60029,5.930627 -4.04238,-0.590291 -8.33541,-3.82428 -11.90989,-3.761834 6.593,3.475174 4.04394,2.995802 -1.87402,4.402316 3.42991,1.433433 13.4432,-1.946781 14.81212,1.476166 -4.77207,2.858336 -13.98224,1.304198 -4.04877,3.721933 -1.37852,2.881509 -2.83311,5.584244 1.31416,2.266004 5.48718,-7.981244 16.16274,-12.192168 25.51056,-9.619781 3.57471,0.504681 4.78436,7.0308 8.18804,4.134838 -5.933,5.182779 -13.68143,8.386646 -21.64726,8.167158 -4.02733,0.321478 -14.10362,1.220604 -5.95673,3.334105 5.04045,-0.275224 14.62532,-3.290065 5.14088,1.478564 -6.13085,0.632966 -6.82416,7.850765 -6.01098,12.49819 1.23718,-0.81112 1.20079,-4.979474 3.32452,-2.324128 -3.20662,-6.615456 2.96045,-7.766516 6.47945,-8.416078 3.65886,-3.901002 9.21537,-4.361806 13.22275,-7.632715 4.00162,-3.399218 2.8459,0.410684 2.58088,3.2396 0.0796,2.12165 3.84412,-6.553762 2.80952,-5.547238 2.61961,-6.386419 10.06767,-8.878944 16.27382,-6.571094 5.44322,-0.711332 11.68714,-0.230701 14.95151,4.538669 1.00373,2.039608 3.98919,2.520327 4.49836,4.511317 -4.90492,1.402841 -10.11651,3.390332 -13.21717,7.373195 -0.70853,0.957344 -4.31454,3.925419 -3.71444,1.385779 0.63763,-2.62513 0.73443,-6.442823 -0.72541,-8.33895 -1.75056,-2.347299 -4.22703,2.317692 -5.79516,0.08877 -3.90056,-2.415931 -4.79624,3.627182 -7.2284,5.208614 -0.49565,7.512393 -5.25914,9.546751 -12.58734,10.35338 -2.77833,3.535768 -19.59807,3.979698 -6.9556,4.114785 4.73661,0.161933 -6.71633,6.785579 -0.35885,3.599454 3.61579,-3.092452 2.50255,3.748771 5.56285,4.183523 5.43564,1.915126 0.99683,-2.402113 0.65691,-4.47595 -1.4829,-2.281718 -0.63259,-5.092452 2.49701,-5.438452 2.32663,-0.835289 12.38866,-4.897002 7.84632,0.249922 -2.50331,2.794826 -0.20094,5.373283 1.84347,1.714715 3.20164,4.326441 1.11875,-3.925272 3.69193,-5.056302 4.99133,-1.286225 3.68042,2.169994 2.27542,4.774799 1.35532,0.443331 2.49247,0.146966 4.55238,0.196097 -1.1158,-4.615589 2.2544,-7.24424 6.43239,-8.172249 5.80116,-3.751944 10.99402,-8.754571 18.1305,-9.31574 3.5587,-0.5383 3.40083,4.291657 6.54595,5.14355 3.07601,1.882128 6.50946,4.815367 6.52865,8.634022 -2.30362,3.017716 -6.58921,1.932692 -9.99007,2.676204 -6.11249,0.291342 -10.3138,-6.696011 -9.75626,-12.310178 -1.73148,0.995215 -0.77189,4.992356 -3.04051,4.302132 -0.39123,-2.868195 -1.13962,-2.390809 -1.83369,-0.107756 -5.09844,0.910738 4.8674,1.665888 3.72049,4.10892 -7.76792,1.285679 -1.89045,0.992482 2.4762,2.138472 1.7482,0.487397 4.20477,3.553332 0.80043,2.02093 -4.77988,-0.554145 -11.0659,-0.312493 -13.7342,4.300278 -0.50274,2.691173 1.74323,7.594934 1.7836,2.368259 0.51636,-4.791027 7.70437,-3.935999 11.10938,-4.515491 3.85075,-0.91347 0.69623,1.141855 -0.70188,1.700211 -1.11435,0.692224 -7.01496,2.10138 -3.06385,3.02454 2.08523,1.474327 -1.86755,4.515946 -3.97323,4.468115 -2.30937,1.433148 4.24016,0.791678 2.99341,4.594524 2.61452,4.000003 -1.16429,8.235305 -4.78281,9.982085 -6.83891,2.792324 -2.05281,2.702274 2.75562,0.564651 2.37662,-1.139174 6.00322,-2.865867 4.19,1.151123 -0.67993,1.83995 -1.04101,9.12354 0.97441,4.36867 2.20456,-2.41312 -0.34321,-8.503383 4.38035,-7.689025 3.54063,-1.40355 6.12613,-4.414487 8.2526,-7.500817 -3.61158,0.658061 -6.08835,3.917751 -9.59285,4.521541 -3.0553,-3.215036 -5.75034,-8.412977 -2.5889,-12.349901 2.6594,-3.529084 7.92619,-7.227736 12.37462,-5.140756 4.24528,-2.711573 9.55643,-2.530327 13.65788,0.404915 5.56448,2.909359 3.80333,9.73457 3.32481,14.848253 -0.16278,6.575506 0.4511,13.05773 2.15265,19.31211 0.83705,6.29543 -3.90377,11.65126 -2.56417,18.10525 1.3325,6.83113 -1.28231,13.31447 -1.61262,20.11124 -1.55125,7.23781 -7.26593,13.42541 -5.05171,21.3514 1.16623,3.71681 0.31763,7.21856 0.45456,10.92009 -0.23319,3.30931 -5.12449,-1.97804 -2.97807,2.67127 0.32546,2.16008 -2.54644,4.97576 -1.92791,4.30306 0.36522,-1.56895 -1.43915,-2.40603 -1.6278,-0.95025 -0.51741,0.64828 -0.0725,1.9127 -0.98079,1.84462 z m 0.36231,-1.61421 c -0.0108,-0.41309 -0.34564,0.3392 0,0 z m 0.24925,-2.11867 c 1.79387,-2.87261 -2.70842,-0.56266 0,0 z m -82.14375,-5.05909 c -0.36836,-0.24054 -0.0525,0.25558 0,0 z m -1.40382,-0.37202 c 3.3184,-0.34514 -2.07776,-0.41795 0,0 z m 81.71942,-8.10654 c -0.10903,0.0623 0.10117,0.34316 0,0 z m -0.85133,-3.31452 c -0.14542,-0.21403 -0.17948,0.11875 0,0 z m -94.61196,-17.55667 c -0.11999,0.027 0.0893,0.27316 0,0 z m 20.91287,-0.11289 c 0.10851,-0.39792 -0.22929,0.0313 0,0 z m 50.12474,-1.1957 c -0.11995,0.0271 0.0893,0.27316 0,0 z m -3.05337,-86.802984 c -0.11995,0.02706 0.0893,0.27315 0,0 z M 107.62657,44.462708 c -0.15921,-0.223566 -0.15921,0.223566 0,0 z M 208.57476,29.666876 c -0.3036,-0.219492 -0.0962,0.15299 0,0 z m -9.87937,-3.021583 c 0.07,-0.240563 -0.24161,0.03916 0,0 z m -0.58932,-0.4405 c -0.0753,-0.22783 -0.1537,0.221976 0,0 z M 125.29219,189.77376 c 2.57554,-3.30824 5.81843,-5.50727 9.2216,-7.13042 -2.76819,2.82706 -5.78855,5.30043 -9.2216,7.13042 z m 70.62241,-0.58429 c -2.2174,0.4099 -1.86706,-5.0779 -3.22983,-1.91342 -1.34824,3.33268 -2.13654,0.54993 -0.65621,-1.42198 -1.44307,-0.39711 -5.24672,2.57063 -6.98865,-0.92343 -2.05985,-1.64473 -0.60376,-4.04511 -2.44996,-5.42626 -0.58592,-1.9527 3.49823,-1.67377 1.6708,-4.26724 -0.45849,-1.2709 -1.41816,-5.84138 -2.00011,-8.90748 -0.67607,-3.34895 -2.29611,-14.72972 2.38576,-7.99488 1.84758,3.92504 4.51728,4.97795 7.16609,7.41681 0.99962,2.56036 -0.26376,6.70859 -2.89603,7.541 -1.74401,3.63825 1.15375,12.58437 5.45278,8.61757 2.52507,-1.51878 1.99308,-5.60588 1.51332,-8.29555 -3.87157,-5.86968 1.98542,-5.33421 6.02524,-4.96071 0.41833,2.70235 -2.29636,4.90731 -2.71693,7.2541 3.11051,0.71813 -0.9151,3.87308 -0.83219,5.65791 -1.62362,1.90424 2.52138,5.19731 -1.31805,5.38077 -3.24935,-0.32213 0.74735,2.82117 -1.12603,2.24279 z m 21.98733,0.0495 c 1.06111,-2.77789 -0.41711,-2.40412 -2.22343,-0.86287 -1.95863,1.35963 -1.34896,-0.0116 -0.9347,-1.33976 0.0387,-1.6376 1.84524,-3.32599 -0.26406,-4.95621 -2.22713,-3.35135 -2.82697,-7.4424 -3.41168,-11.26978 2.13339,0.73271 3.82705,4.17552 5.32827,6.02214 1.82814,-2.35299 6.3223,-0.92753 5.6072,1.85288 1.07818,1.90402 3.83111,-1.88675 4.14486,0.41274 -1.4826,2.95658 2.09884,4.61448 -0.72682,6.53617 -0.44768,1.56709 -1.97736,2.05595 -3.26198,1.33977 -1.57339,-1.59054 -2.7577,1.72967 -4.25766,2.26492 z m -2.65958,-1.57668 c -0.26487,-0.32559 -0.39647,0.19342 0,0 z m 8.37134,-0.28004 c -0.10485,-0.64789 -0.3978,0.12515 0,0 z m -0.64443,1.56246 c 0.16249,-0.36909 0.38458,0.36048 0,0 z m -15.45978,-0.13959 c -1.85958,-3.1152 -6.81987,-0.32749 -2.47101,-3.22586 1.08176,-4.66125 2.7933,-2.79339 4.28792,0.4193 2.96699,1.30647 -1.39608,1.77191 -1.81691,2.80656 z m 14.18297,-2.14367 c 0.19251,-0.18353 0.0487,0.22243 0,0 z m -46.48673,-0.29593 c -1.13984,-1.70793 -1.1315,-4.1794 -1.17091,-5.65005 -3.00893,-2.3684 4.72664,-2.91956 4.73033,0.003 -1.24366,1.68381 3.12817,4.09314 -0.78602,4.31957 -0.73261,0.70724 -2.02824,0.79154 -2.7734,1.32706 z M 61.884948,185.57614 c 2.172317,-1.04692 8.077137,-4.4522 9.389208,-4.33486 -2.549284,2.30149 -5.895174,4.1524 -9.389208,4.33486 z m 164.324602,-0.59971 c 0.17949,-0.11875 0.14545,0.21403 0,0 z m 40.73759,-1.29281 c -0.90279,-0.90457 -2.03795,-4.18829 -2.67126,-5.77847 -1.66951,-0.96297 -0.0933,-4.45273 -1.58012,-3.70407 -0.45864,-2.07127 -1.46453,-5.09456 -0.0964,-7.48062 2.04822,-7.8852 2.29804,-16.13488 3.17835,-24.20716 -0.97452,-6.792 -0.30571,-14.2164 1.46078,-20.37667 -1.48514,-5.5684 1.30828,-11.26129 -0.7413,-16.76405 -0.19166,-3.4631 -0.10085,-6.934283 -2.21444,-9.985732 -2.3355,-5.877725 -0.53654,-12.158517 -0.27815,-18.085315 3.05147,-2.504849 7.57266,-2.777515 11.37015,-2.431931 3.40844,1.738475 5.58638,5.834601 4.5506,9.47384 -0.6596,13.858674 0.33416,27.805228 -0.76254,41.667798 -0.0457,16.97978 0.82765,34.05394 0.58405,51.11731 0.44658,1.89717 -1.30929,4.24303 -2.23864,4.3761 1.46898,-1.52768 -2.28943,-1.60439 -2.45766,-3.56405 -1.38721,-1.8285 -2.69241,2.28162 -3.50278,-0.5358 -1.3367,-1.25888 -4.1313,-0.35158 -5.27908,-2.48571 -2.50587,2.72292 0.71339,2.71496 2.36353,2.85927 1.46425,-0.33041 0.78118,0.73319 2.50814,0.59651 -0.0603,1.06356 1.73939,1.90003 1.26759,0.89246 0.23373,-0.44501 2.36005,2.42956 0.69952,1.68314 0.27862,1.64855 -1.8364,0.81006 -1.68499,0.4153 -1.50433,0.46305 -1.61056,-0.87421 -3.15082,0.33975 -0.34215,0.66325 -0.55182,1.7456 -1.32454,1.9781 z m 5.37457,-4.2561 c -1.19283,-1.71741 -1.1785,0.0622 0,0 z m -2.44189,1.89582 c 0.27317,-0.0893 0.027,0.11998 0,0 z M 71.983143,180.6493 c 2.646365,-1.94459 0.904124,0.0792 0,0 z m -15.836981,-0.58233 c -6.187956,-3.94398 -1.307912,-14.3241 -1.57755,-20.39438 2.984486,-0.70754 8.490222,0.44226 6.542471,4.61936 1.6381,3.49851 -2.312168,7.9742 0.777187,10.52411 2.408411,0.59325 3.112196,1.86716 0.124722,2.80969 -1.937558,0.71008 -3.830731,2.42786 -5.86683,2.44122 z m 17.519449,-0.20222 c 1.59643,-1.45708 0.07608,-0.0484 0,0 z m 1.308584,-0.94911 c 0.138167,-0.3355 0.274524,0.04 0,0 z m 0.292511,-0.14734 c 8.683953,-4.94938 17.937674,-9.01308 26.711134,-13.88398 3.4965,-0.55474 -4.774375,3.58459 -2.453674,2.50759 -6.092996,3.37028 -12.521526,6.65596 -18.990853,9.6752 -2.042746,0.6143 -3.554567,1.14052 -5.266607,1.70119 z m 1.203021,-0.51808 c -0.07538,-0.22782 -0.153683,0.22198 0,0 z m 42.324273,0.40504 c 0.86924,-0.92561 4.62909,-2.98345 2.14516,-0.99702 -0.43638,0.0648 -0.29855,0.35429 -2.14516,0.99702 z m 2.32349,-1.27743 c -0.25491,-0.20965 -0.15598,0.29468 0,0 z m 74.81252,1.27224 c 0.09,-0.16597 0.0277,0.2687 0,0 z m -61.249,-0.34777 c -3.67126,1.08419 -8.58905,-1.29058 -6.9286,-3.79084 1.72654,-3.24197 8.58704,-4.41125 5.32453,-9.32647 -0.72635,-3.06011 -2.81673,-7.55229 1.03759,-9.43926 0.95189,-2.4151 -3.17312,-5.91059 -0.76626,-8.65893 8.05716,-2.41998 3.06027,8.44784 3.80869,12.62515 0.38174,3.02008 0.18298,5.60641 0.64111,8.56814 -1.18605,2.36583 0.41751,10.35881 -3.11706,10.02221 z m -55.594118,-0.92815 c 0.179486,-0.11875 0.145436,0.21403 0,0 z m 154.578898,-2.43941 c -0.16576,-0.51543 0.39781,0.32181 0,0 z m 2.6435,-0.21043 c 0.09,-0.16598 0.0277,0.26867 0,0 z m -2.71556,-0.0883 c 0.1537,-0.22198 0.0753,0.22784 0,0 z m -49.65886,-0.61477 c -0.1466,-0.30966 0.22764,0.0896 0,0 z M 69.537316,173.2215 c -4.568985,-1.63092 5.93406,-1.17154 0,3e-5 z m 123.459024,-0.45007 c -1.61392,-7.05348 3.59978,-1.5699 0,0 z m -66.05797,-0.81825 c -4.01371,0.41597 -2.68468,-4.6192 -2.29547,-7.24486 0.53798,-1.71673 1.59685,-5.22923 3.11838,-1.97422 1.60154,2.81288 -1.01714,6.67712 1.67852,7.77014 -0.76356,0.58523 -1.50679,1.33102 -2.50143,1.44894 z m -50.499801,-1.22235 c -4.408858,-0.47463 -5.826894,-4.17832 -5.860894,-7.49821 0.251778,-3.43415 2.432222,-2.72139 5.007384,-3.92688 3.419028,0.0192 -0.457821,-3.78161 0.08522,-5.91868 -1.437167,-6.58393 -0.06732,-13.33896 -2.819555,-19.72522 -0.700064,-3.36849 2.376517,-2.78056 3.618925,-0.52444 0.891132,3.56928 4.15791,2.42496 3.96699,5.60612 -0.982672,2.42871 -5.241833,3.52881 -2.741355,6.81823 1.368222,2.6316 3.459665,5.49724 6.994304,4.0098 3.057078,0.13544 0.560216,4.10063 4.029836,5.19541 1.839411,2.13887 5.613923,4.23721 5.559962,6.97537 -5.791424,3.22892 -11.362124,7.33328 -17.840807,8.9885 z m 2.710642,-22.88969 c -0.153683,-0.22198 -0.07539,0.22782 0,0 z m -5.317702,-11.54362 c -0.109097,0.0623 0.10117,0.34314 0,0 z m 44.939471,33.90529 c -2.45033,-6.38002 3.90893,-1.06202 0,0 z m -52.797252,-0.85719 c -3.584217,-0.97565 -0.06745,-4.97113 -0.553931,-7.68538 3.846147,-2.64311 1.807059,9.8115 1.330077,7.21114 l -0.06332,0.16101 -0.712731,0.31323 z m 43.660742,-3.36907 c -0.0666,-5.12102 -2.98496,-4.94653 -7.36141,-5.71361 -0.32249,-8.84227 -0.026,-17.03429 0.35526,-25.93181 2.58074,-3.31726 12.94212,-0.98016 13.70672,3.69411 -3.86841,-0.85827 -4.6782,3.60198 -6.02996,6.29668 -4e-5,3.79459 -4.64009,6.84921 -1.9954,10.59824 3.31097,5.06234 8.25583,-4.42301 8.65372,0.6167 -0.17365,3.43481 -1.25035,6.64129 -1.69825,9.94947 -1.67399,0.67959 -3.81973,0.3862 -5.63068,0.49022 z m -7.34883,-15.20673 c -0.2711,-0.0572 0.13211,0.39112 0,0 z m 128.54005,13.5481 c 0.09,-0.16597 0.0277,0.2687 0,0 z M 119.1546,162.18725 c -2.96968,-2.26456 -0.47107,-4.8445 -1.05345,-7.95553 1.72952,-1.65656 0.0569,-3.63247 0.98001,-5.9085 -1.63697,-2.50491 -0.39634,-5.02594 2.42186,-2.66221 1.5799,4.25025 -1.78705,8.08187 -2.8745,11.94776 3.36959,0.80607 1.8187,2.60445 0.52608,4.57848 z m -0.0623,-10.51015 c -0.14544,-0.21403 -0.17948,0.11875 0,0 z m 36.96761,10.20566 c -2.24827,-2.77012 2.95352,-2.26875 0,0 z m 2.18618,-0.2969 c -2.33889,-2.84792 2.94104,-1.63273 0,0 z m -3.96027,0.43102 c -1.86404,-2.42205 1.941,-2.57104 0,0 z m 6.15969,-0.94194 c -2.36393,-2.44404 3.65048,-1.93265 0,0 z M 34.091213,159.46966 c -3.32964,-0.80547 -2.159966,-5.95422 -3.272241,-8.60631 -0.887182,-2.73298 3.350756,-2.1714 4.743878,-3.60442 2.836233,-0.88825 9.590232,-6.60909 7.94518,-0.25756 -0.673604,3.96852 -1.298952,8.90196 -4.738192,11.75473 l -2.523703,0.67619 -2.15501,0.0374 z m 62.447542,-1.78861 c 0.910302,0.26803 0.266356,-0.31483 0,0 z m 61.134665,-1.5569 c -2.47274,-0.81312 -0.56443,-5.55588 0.92613,-5.54869 1.1541,1.46285 2.38097,6.0164 -0.92613,5.54869 z M 54.269159,155.25074 c -0.892161,-5.27463 -0.02913,-11.59266 0.01062,-16.51779 0.241189,-6.61501 -0.129802,-12.66784 -1.369275,-18.96077 -0.219091,-7.7963 4.329376,-14.2526 7.857022,-20.78823 2.852779,-5.163536 9.080268,-7.415697 14.118758,-9.897834 4.896812,-1.137817 10.131759,0.774394 14.142853,3.281976 -6.58564,5.154057 -3.095448,15.452778 -3.364889,22.976458 0.761876,6.37589 1.677621,13.01893 0.391855,19.30094 -3.982533,1.75617 -5.197577,-2.17378 -8.018997,-3.66136 -3.618669,-2.50969 -4.929758,-6.59954 -5.528729,-10.66532 -4.852568,-4.14968 0.319406,-2.43975 1.26375,-4.7562 1.58339,-1.33853 2.356122,-4.59551 2.127383,-6.69871 -2.331596,-6.67731 -9.719769,-1.18752 -12.554563,1.96289 -1.667573,2.22568 1.355465,3.82054 2.67639,4.96625 -2.410629,3.34213 -6.909109,5.60849 -8.534918,9.84773 -1.46673,2.01658 -1.426822,4.22189 -0.02762,6.2129 2.475603,6.28291 -0.147073,13.07987 -1.189512,19.42215 -0.454885,1.29389 -0.710457,3.35385 -2.00008,3.97492 z m 210.138681,-0.11155 c 0.10279,-0.29092 0.21628,0.10745 0,0 z m -153.11589,-1.77375 c -1.75596,-0.64887 -1.57391,-4.54096 0.32938,-4.42643 3.28003,-1.15176 0.92486,4.04928 -0.32938,4.42643 z m -9.20638,-1.19868 c 0.09,-0.16598 0.0277,0.26868 0,0 z m -5.038127,-0.0936 c -1.065859,-6.52638 -0.341324,-13.40165 -0.918935,-20.17693 0.137121,-3.67471 -1.044351,-8.30953 0.307257,-11.40422 1.897229,5.25913 1.378868,12.43818 1.861559,18.44799 -0.730167,3.77974 1.634609,10.88904 -1.249881,13.13316 z m -0.450391,-8.66359 c -0.216269,-0.10745 -0.102794,0.29092 0,0 z m 5.483608,8.07698 c 0.15449,-0.32834 0.15449,0.32831 0,0 z m -5.603863,-0.32716 c 0.02275,-0.51747 0.253,0.22091 0,0 z m 64.209893,-0.63871 c 0.0753,-0.22783 0.15368,0.22199 0,0 z M 31.047946,148.98204 c 0.296798,-0.19708 0.11504,0.021 0,0 z m 84.279074,-1.51705 c -3.03648,-6.79248 6.7458,-2.21239 0,0 z m -84.830077,-0.97754 c -0.413689,-5.96815 -1.329976,-12.64186 -0.139328,-18.3259 3.815523,-1.49546 8.729615,-3.79734 12.903439,-4.40321 0.900422,5.41879 0.75996,11.05166 0.552697,16.57108 -3.640083,3.08266 -8.853621,4.75863 -13.316808,6.15803 z m -0.513254,-16.90423 c -0.159195,-0.22356 -0.159205,0.22357 0,0 z m 81.580941,16.52148 c -0.38973,-9.19709 6.92111,4.73323 0,0 z m -15.185667,-1.37925 c 0.07528,-0.22784 0.153683,0.22198 0,0 z m -0.09337,-3.4636 c 0.121675,-0.29928 0.161124,0.37161 0,0 z m 0.04149,-0.19214 c -0.0299,-0.30139 0.347628,0.14516 0,0 z m 28.544867,-0.33512 c -1.5614,-0.94115 -2.64635,-3.33926 -3.00602,-3.61039 1.16788,1.58441 6.3244,0.6672 3.00602,3.61039 z m -42.482566,-0.85816 c -2.191425,-2.27516 2.662492,-4.7805 3.492772,-1.77938 1.224339,2.25363 -2.330847,2.70004 -3.492772,1.77938 z m 38.510056,0.21006 c -4.2886,-1.00321 0.16821,-3.08819 0,0 z m -24.798949,-4.29994 c 0.08384,-0.39553 0.141085,0.28815 0,0 z M 60.45516,130.92297 c -1.46472,-2.10433 1.110359,-7.05114 3.555762,-6.23873 0.314264,2.01667 -0.964166,6.20258 -3.555762,6.23873 z m 190.30605,-1.15281 c 0.15921,-0.22355 0.15921,0.22355 0,0 z M 31.051921,127.61011 c 0.03709,-0.38843 0.476541,0.11781 0,0 z m -0.766587,-2.93768 c 0.89969,-5.54296 0.809821,-12.84283 6.300263,-16.05498 4.966502,-0.84156 5.155842,5.09465 6.456781,8.4343 2.618676,5.93701 -6.836229,5.07313 -10.254573,7.1708 -0.254083,-0.0793 -2.371704,1.15476 -2.502471,0.44988 z m 71.297756,-3.45115 c 0.0222,-0.51863 0.27121,0.20512 0,0 z m -5.387186,-5.85239 c -1.084809,-5.16578 -1.543073,-11.17096 -3.363876,-16.597646 -0.89484,-1.129993 -1.498984,-6.019257 0.538761,-3.367591 2.541452,6.249937 4.420794,13.242587 3.574801,19.878657 l -0.749751,0.0865 z m -4.403624,-3.21225 c -5.090659,-3.24772 3.327397,-5.06119 0,0 z m -4.008862,-1.24311 c -2.008144,-4.18107 5.370637,-2.68667 0,0 z m 2.964631,-2.73181 c -2.449193,-5.82152 6.002567,2.35299 0,0 z m -2.978901,-1.09983 c -0.411326,-5.50685 4.790119,2.95059 0,0 z m 29.743382,-1.38269 c -1.49102,-0.96611 3.08391,-7.456783 2.45238,-7.061299 8.26191,-6.90482 4.94462,3.744369 4.66065,3.899939 -1.74196,4.08391 -7.10715,2.88277 -7.11303,3.16136 z m -2.23788,-2.77127 c -3.6172,-5.690323 4.93873,-12.722176 0,0 z m 2.88195,-6.841331 c 6.33483,-4.286225 -4.80064,13.009861 0,0 z m 1.76135,-2.620587 c -2.50569,-6.29719 3.57659,-1.625586 0,0 z M 100.8985,86.282165 c -1.290668,-3.665837 3.79368,-2.19016 5.62458,-1.233733 -1.77779,0.710109 -3.69931,1.226173 -5.62458,1.233733 z m 1.49371,-3.630313 c -5.288572,-0.946567 0.44316,-3.05959 1.41891,0.06086 z M 49.285372,75.887886 c -1.266012,-3.043855 -3.167959,-6.841308 -2.550676,-10.194198 2.900314,0.07808 9.741078,-5.432956 10.695104,-1.384067 0.11474,4.617237 2.628836,11.686341 -4.732819,11.057136 -1.136888,0.193137 -2.227946,0.643963 -3.411609,0.521129 z M 274.68962,74.747165 c 0.33798,-0.278732 0.60654,0.325016 0,0 z m 4.45687,-0.953949 c -1.87677,-0.659838 -3.49585,-2.551017 -5.32807,-2.535643 1.94498,-2.607033 -0.4741,-2.57489 -2.89686,-1.678354 -2.85676,1.060531 -8.16537,1.478556 -6.53525,-2.995176 -0.61708,-3.026901 -0.25356,-6.151918 2.66997,-7.789211 2.66599,-2.097112 6.99343,-3.873531 10.64749,-4.786101 2.38506,-1.284153 3.09418,2.531499 2.51719,4.574756 -0.45678,4.987305 0.11092,10.764483 -0.69492,15.234796 l -0.12982,-0.0089 -0.24968,-0.0162 z m 0.21666,-0.04307 c -0.0753,-0.227829 -0.15369,0.221977 0,0 z M 272.19707,56.14285 c -0.0721,-0.219268 -0.16638,0.204204 0,0 z m -46.3614,17.544982 c 0.15922,-0.223548 0.15922,0.223549 0,0 z M 60.380686,72.306119 c -0.759591,-3.467153 -1.202927,-7.129255 -1.257817,-10.723073 5.29874,-2.636884 15.226654,-5.83002 11.206876,4.742071 -0.843663,3.848023 -6.6641,4.250143 -9.822922,6.081963 L 60.38072,72.306116 Z M 274.61562,71.526602 c 0.27317,-0.08927 0.027,0.119973 0,0 z m -23.91677,-2.52593 c -3.73042,-1.723249 -3.79665,-7.467611 -7.47766,-9.642494 -3.29171,-3.460136 -8.0334,-4.941435 -10.2529,-9.313672 -0.0413,-6.011297 -3.43009,-11.912492 -1.12984,-17.795284 -1.233,-4.940075 -1.17226,-6.53874 3.47609,-6.822757 4.0197,-2.628059 10.28776,-3.416267 13.141,0.954894 1.44259,4.840726 -1.99646,8.77362 -3.73824,13.001998 -1.68907,5.152737 -2.80875,11.81011 1.89517,15.775823 3.33852,3.091804 5.53022,7.42443 5.39666,12.171038 -0.11306,0.821056 -0.33359,1.663779 -1.31028,1.670454 z m 8.45819,-6.504243 c -2.01586,-4.44463 -7.24933,-7.502535 -6.24053,-13.124256 1.67227,-3.564501 -3.28367,-7.205756 -0.31433,-10.193036 2.88643,-1.096607 5.58696,-2.413409 8.18686,-3.940047 -6.20506,2.061756 -8.55426,-0.523036 -1.54379,-2.439888 2.01928,0.0381 4.81976,-6.488042 2.18009,-4.662683 -3.60115,2.623034 -8.06034,4.208502 -10.35404,8.350044 -3.30659,3.921827 -1.1274,9.58368 -0.90176,13.566011 -0.01,3.502024 -3.23478,-1.404574 -3.34551,-2.632201 -0.81556,-5.000499 2.18634,-9.240155 3.37833,-13.800236 1.42308,-4.352539 4.43078,-9.323908 1.24375,-13.678339 -2.54214,-3.154253 -1.4651,-8.408081 1.59605,-9.633645 2.23226,-1.7939794 3.5245,-4.5457371 7.08124,-3.3809724 3.48452,-0.793886 1.47633,3.6677304 3.20116,5.1751064 -4.89977,-1.607959 -3.55113,1.533707 -0.34769,3.131058 1.84883,1.219488 3.85199,4.719815 3.05646,6.796442 -2.84766,-2.114621 -6.60989,-4.128789 -9.92912,-4.50476 0.22938,1.268929 -1.29371,4.210715 -0.97539,5.633512 -0.45438,2.70628 1.04728,4.147383 1.49069,0.739906 -0.25787,-2.974777 1.99311,-3.414317 3.81551,-1.815697 3.91275,1.713364 6.56239,5.85011 5.34326,9.979533 -1.22361,3.931101 -0.75186,9.765296 -2.47119,14.252043 0.71666,4.094527 -3.15198,7.255507 -2.2467,11.171944 0.0467,1.612888 -0.34804,4.255267 -1.90335,5.010161 z m -5.73614,-8.947606 c -0.12002,0.02701 0.0894,0.273155 0,0 z m -4.21759,-16.563761 c -0.15368,-0.221976 -0.0754,0.227829 0,0 z m 16.4934,-4.685215 c -0.11999,0.02701 0.0893,0.273163 0,0 z m -2.97134,-21.424228 c -0.0753,-0.227833 -0.15368,0.221985 0,0 z M 46.266361,62.308011 c -0.472575,-3.391396 1.658101,-7.286452 2.53803,-10.760797 0.882091,-2.831785 4.759967,-3.561758 7.246245,-4.992758 0.512631,4.021186 3.827098,11.376685 -0.740872,13.370596 -2.984292,0.810959 -6.009054,2.338465 -9.043403,2.382959 z m 12.884538,-4.007536 c 0.796067,-4.229831 -4.137326,-12.560429 2.051911,-13.342474 6.458952,-2.508187 7.554173,3.951394 8.661602,8.555565 -0.174607,2.728976 -4.899551,2.547089 -7.072609,3.890204 l -1.293002,0.450252 -2.347954,0.446453 z m 70.597041,-0.0077 c 0.17949,-0.118751 0.14541,0.21405 0,0 z M 47.695216,54.495208 c 0.05013,-0.389982 0.05013,0.389983 0,0 z m 213.376264,0.120481 c 0.12907,-0.153529 0.1488,0.262432 0,0 z m 1.40462,-3.201326 c 0.11826,-0.313778 0.19356,0.225988 0,0 z m 0.25862,-0.592552 c 0.25499,-0.172958 0.0381,0.174733 0,0 z m 7.02882,-0.454888 c -4.08384,-1.651644 -2.22416,-7.416271 -0.46052,-10.294428 2.81655,-3.981271 7.23236,-5.166139 9.81194,-9.333995 3.68512,-3.215866 -0.68885,15.050508 1.47145,7.034642 -0.73766,3.330343 0.89025,7.919802 -2.89252,9.470087 -2.40201,1.516003 -4.76675,3.388302 -7.93035,3.123694 z m 9.00785,0.03231 c -2.78637,0.01194 2.8118,-4.13073 1.44541,-0.305869 -0.50624,0.09561 -0.81675,0.535259 -1.44541,0.305869 z m -28.57108,-0.3906 c 0.15923,-0.223548 0.15923,0.223552 0,0 z m -23.55459,-1.183966 c 0.15923,-0.223549 0.15923,0.223553 0,0 z m 50.47411,-1.123599 c 0.24329,-0.203171 0.24973,0.110614 0,0 z m 1.62016,-1.175338 c 0.0586,-0.303389 0.25201,0.10933 0,0 z M 136.46221,45.187721 c -4.12697,-3.59807 -10.60214,-4.540613 -12.77439,-10.07215 -2.11048,-2.703955 -3.43606,-5.605254 -6.60791,-7.588505 -6.00068,-2.94164 -13.8191,2.423496 -19.111995,-0.170075 2.175355,-3.249645 7.735555,-1.041487 11.140895,-2.595484 3.34744,1.824003 4.14047,-0.594085 0.51699,-1.224067 -3.27871,0.951376 -10.622334,0.913089 -4.36718,-1.939658 4.69759,-0.822078 10.07201,-7.831514 14.51081,-3.571659 4.87867,-0.403538 1.9946,11.933878 4.12285,7.243972 1.1299,-5.212738 3.91906,3.260771 3.57531,0.327809 0.55627,-4.041108 -2.93693,-7.222675 -6.0074,-8.856076 -1.26537,-3.120696 5.89164,-1.547993 7.91383,-2.314311 4.72383,3.833716 3.95256,11.050721 5.12097,16.466395 1.3798,-0.178724 1.39939,-6.242211 3.01149,-1.448793 2.39608,4.911001 0.81107,10.986981 -0.657,15.811799 l -0.3872,-0.06918 z m 127.57175,-1.351827 c 0.17945,-0.118735 0.1454,0.214014 0,0 z M 138.16026,42.96718 c 0.15922,-0.223546 0.15922,0.223548 0,0 z M 268.9614,36.460944 c -0.63318,-2.331373 -0.21119,-5.418393 0.19224,-7.801235 0.96152,-4.714898 -2.1354,-8.988672 -0.7727,-13.546755 3.83076,-0.757516 10.15848,0.113988 10.85214,4.831969 1.85767,2.350176 0.53394,5.73613 -0.99273,7.942335 -1.07506,2.229246 -2.82205,3.712007 -4.02548,4.663355 -2.1948,1.475405 -3.35932,3.349435 -5.25347,3.910331 z m -0.0257,-1.298555 c -0.10911,0.06227 0.10117,0.343147 0,0 z m 11.736,0.358303 c 0.15451,-0.328328 0.15451,0.328331 0,0 z m -5.09544,-0.977505 c 0.33745,-0.292851 0.10529,0.168118 0,0 z m -3.50385,-0.1753 c 0.1537,-0.221973 0.0753,0.227826 0,0 z m -42.68296,-1.137226 c -3.07305,-0.555857 -6.50148,-3.666382 -6.63243,-6.963087 -1.04618,-2.94021 0.33295,-5.762072 0.64277,-8.412812 -1.61193,-2.574659 -1.97911,2.314383 -3.14774,3.551879 -1.98682,-0.232805 -1.90436,-3.733697 -2.82282,-5.456043 -2.84549,1.735206 -1.0948,6.598042 1.80127,8.266963 1.78101,1.799934 3.12205,4.610296 -1.18395,3.438729 -4.78791,-2.237588 -11.41876,1.303592 -15.13564,-2.884706 -3.82962,-1.460738 -7.3242,-4.588138 -11.41015,-5.868868 -3.74162,-5.151837 -11.86533,0.59503 -15.72729,-4.243159 -1.62058,-5.2004196 4.15054,-5.7159225 8.00045,-5.1301238 10.58039,-0.6284135 21.12607,-1.16904 31.65535,-2.3172698 2.50208,-0.3276323 2.99512,1.3638149 0.51264,1.5847281 -5.25094,-0.5677603 -8.99009,1.2345115 -2.25565,1.9841825 0.32661,2.486295 5.09461,2.866957 2.09756,1.901 0.51285,-2.551989 5.19436,-3.9065679 7.186,-1.213783 2.91725,2.930868 7.75289,5.379538 6.81728,10.295004 0.55989,3.06491 -1.52825,6.189758 -0.39313,9.312602 l 0.14466,1.438158 -0.1484,0.716609 z m -6.04636,-15.535369 c -0.0721,-0.219249 -0.16641,0.204204 0,0 z m 45.12004,14.392953 c 0.09,-0.165965 0.0277,0.268676 0,0 z m -20.12732,-0.124628 c 0.09,-0.165962 0.0277,0.268699 0,0 z m 17.50523,-0.832367 c 0.11826,-0.313774 0.19355,0.225989 0,0 z m 2.99108,-1.187637 c 0.15919,-0.223558 0.15919,0.223566 0,0 z m 9.7832,-2.430233 c 0.15919,-0.223527 0.15919,0.223528 0,0 z m -30.05959,-0.238295 c -0.0659,-0.283044 0.2347,0.07917 0,0 z M 90.160664,26.204793 c -1.448224,-2.952813 0.0162,-6.778544 1.059116,-9.890285 2.17119,-0.896294 3.550851,-3.636865 6.436588,-3.553898 6.928492,-1.916107 19.198872,-1.746582 7.571132,3.04509 -5.321975,2.789763 -10.381403,6.517862 -14.618056,10.508772 z M 222.40842,25.207771 c 0.15369,-0.221977 0.0753,0.227833 0,0 z m 27.17369,-1.914187 c -2.52417,-3.424174 -7.65073,-4.007294 -10.85864,-0.99825 -3.799,2.780367 -7.81332,-1.938156 -5.62819,-5.312969 1.21155,-2.921023 4.53019,-5.017637 6.42604,-7.0881839 -0.66345,-2.2042314 -4.49535,1.2901369 -4.94605,0.6555569 0.24219,-3.3865943 4.14467,-5.0925985 6.70758,-3.0079134 1.65369,3.5529234 4.46335,6.7752574 6.45444,9.8022174 -0.24168,2.135853 2.07465,4.082091 1.84482,5.949542 z m -14.88964,-8.679141 c 0.0978,-0.271311 -0.28796,0.379956 0,0 z m 0.24004,-3.941339 c -0.24104,-0.201911 -0.0569,0.419298 0,0 z M 83.361719,22.127539 c -3.227986,-1.538402 -3.099612,-6.74887 0.852751,-4.900978 0.667593,1.251395 0.658573,4.585551 -0.852751,4.900978 z M 221.7853,18.041695 c 0.15918,-0.223525 0.15918,0.223532 0,0 z m 8.6616,-3.864839 c -1.87173,-2.090585 -2.19749,-7.7083792 1.80682,-6.5595168 2.72836,1.3371315 -1.6763,4.5365988 -1.80682,6.5595168 z m 14.83067,-0.372488 c 0.15921,-0.22355 0.15921,0.223544 0,0 z m 28.08662,-0.33733 c -1.97993,-0.838436 -4.04285,-1.30415 -6.1522,-0.470279 -0.42365,-1.64352 -3.65257,-3.966921 -2.39908,-5.4860815 3.36139,1.2927175 6.72143,3.5370215 9.03237,5.9829635 l -0.25242,0.03599 z m 0.35599,-0.09306 c -0.11819,-0.160654 -0.20841,0.256839 0,0 z m -6.63407,-4.8366271 c -0.29323,-0.2857389 0.11674,0.3172847 0,0 z m -22.33305,4.7145551 c -0.14675,-0.309575 0.22778,0.08939 0,0 z M 114.25933,12.988345 c 1.44267,-3.1568752 6.97823,-3.2734296 9.08588,-1.972518 -3.11176,0.246021 -6.22042,0.942263 -9.08588,1.972518 z m 129.88863,-0.663934 c 0.0781,-0.14006 0.20278,0.378863 0,0 z m 19.28603,-0.09619 c 0.0213,-0.114773 0.56502,-0.03377 0,0 z m -16.11141,-0.635996 c -1.41663,-1.350203 -3.11062,-3.287488 -3.2913,-4.7007569 2.84926,-0.7506689 6.09934,-0.3266413 4.44305,2.7556149 -0.25665,0.441126 -0.51321,2.281282 -1.15175,1.945142 z m -1.29725,-1.526686 c -0.0754,-0.227833 -0.1537,0.221983 0,0 z m -19.81577,0.162552 c 0.0675,-0.5234451 -2.3313,-1.2637749 -2.7662,-2.6938235 2.60922,-0.5927832 4.5456,-0.01589 2.7662,2.6938235 z m 0.68261,-2.2242413 c 0.10139,-0.4373465 0.18065,0.480348 0,0 z"
       id="path1385"
       inkscape:connector-curvature="0"
       sodipodi:nodetypes="cccccccccccccccccccccccccccccccccccccccccccccccccccccccccccccccccccccccccccccccccccccccccccccccccccccccccccccccccccccccccccccccccccccccccccccccccccccccccccccccccccccccccccccccccccccccccccccccccccccccccccccccccccccccccccccccccccccccccccccccccccccccccccccccccccccccccccccccccccccccccccccccccccccccccccccccccccccccccccccccccccccccccccccccccccccccccccccccccccccccccccccccccccccccccccccccccccccccccccccccccccccccccccccccccccccccccccccccccccccccccccccccccccccccccccccccccccccccccccccccccccccccccccccccccccccccccccccccccccccccccccccccccccccccccccccccccccccccccccccccccccccccccccccccccccccccccccccccccsccccccccccccccccccccccccccccccccccccccccccccccccccccccccccccccccccccccccccccccccccccccccccccccccccccccccccccccccccccccccccccccccccccccccccccccccccccccccccccccccccccccccccccccccccccccccccccccccccccccccccccccccccccccccccc" />
    <path
       style="fill:none;fill-opacity:1;stroke:#ff0000;stroke-width:0.09778713;stroke-miterlimit:4;stroke-dasharray:none;stroke-opacity:1"
       d="M 16.3519,2.9004252 H 288.16156 V 204.78507 H 16.3519 Z"
       id="rect1391" />
  </g>
</svg>
