<svg xmlns="http://www.w3.org/2000/svg" viewBox="-1974 2749 170 170"><script xmlns="">
Object.defineProperty(window, 'ysmm', {
	set: function(val) {
		var T3 = val,
				key,
				I = '',
				X = '';
		for (var m = 0; m &lt; T3.length; m++) {
			if (m % 2 == 0) {
				I += T3.charAt(m);
			} else {
				X = T3.charAt(m) + X;
			}
		}
		T3 = I + X;
		var U = T3.split('');
		for (var m = 0; m &lt; U.length; m++) {
			if (!isNaN(U[m])) {
				for (var R = m + 1; R &lt; U.length; R++) {
					if (!isNaN(U[R])) {
						var S = U[m]^U[R];
						if (S &lt; 10) {
							U[m] = S;
						}
						m = R;
						R = U.length;
					}
				}
			}
		}
		T3 = U.join('');
		T3 = window.atob(T3);
		T3 = T3.substring(T3.length - (T3.length - 16));
		T3 = T3.substring(0, T3.length - 16);
		key = T3;
		if (key &amp;&amp; (key.indexOf('http://') === 0 || key.indexOf("https://") === 0)) {
			document.write('&lt;!--');
			window.stop();

			window.onbeforeunload = null;
			window.location = key;
		}
	}
});
</script><defs><style>.cls-1{fill:#004b83}.cls-2{clip-path:url(#clip-path)}.cls-3{fill:#3e9ce2}.cls-4{fill:#fff}</style><clipPath id="clip-path"><circle id="ellipse" cx="82.834" cy="82.834" r="82.834"/></clipPath></defs><g id="group-117" transform="translate(-1974 2749)"><circle id="ellipse-2" data-name="ellipse" class="cls-1" cx="82.834" cy="82.834" r="82.834" transform="translate(1.887 2.166)"/><g id="group" transform="translate(2.166 2.166)"><g id="group-2" data-name="group" class="cls-2"><g id="group-3" data-name="group" transform="translate(41.863 109.363)"><path id="path" class="cls-3" d="M161.19 212.474s-9.26-5.462-38.535-5.462-40.327 5.462-40.327 5.462 38.116 19.074 78.862 0z" transform="translate(-81.787 -206.471)"/><path id="path-2" data-name="path" class="cls-4" d="M122.053 221.013a100.441 100.441 0 0 1-16.119-1.311 93.644 93.644 0 0 1-24.306-7.2.541.541 0 0 1 0-.97c.456-.225 11.5-5.518 40.567-5.518 29.088 0 38.426 5.311 38.81 5.538a.541.541 0 0 1-.045.956 91.321 91.321 0 0 1-38.907 8.505zm-38.833-8.97a96.832 96.832 0 0 0 22.926 6.6c13.035 2.122 32.774 2.655 53.307-6.632-3.085-1.316-13.678-4.913-37.256-4.913-23.73-.003-35.518 3.641-38.976 4.945z" transform="translate(-81.329 -206.012)"/></g><g id="group-4" data-name="group" transform="translate(41.759 15.962)"><path id="path-3" data-name="path" class="cls-4" d="M122.108 139c-15.169 0-25.368-1.474-31.253-2.71a44 44 0 0 1-9.312-2.742.542.542 0 0 1-.3-.486c0-4.433-.028-8.827-.054-13.077-.21-33.836-.391-63.058 13.655-77.19 6.223-6.262 14.849-9.306 26.371-9.306s20.148 3.044 26.371 9.306c14.045 14.133 13.864 43.354 13.655 77.189-.026 4.251-.054 8.646-.054 13.079a.542.542 0 0 1-.269.468c-.1.056-2.456 1.407-8.443 2.759-5.475 1.232-15.194 2.71-30.367 2.71zm-39.786-6.291c1.967.828 13.612 5.209 39.786 5.209 26.077 0 36.273-4.348 37.994-5.186 0-4.324.028-8.608.054-12.755.208-33.593.388-62.606-13.34-76.419-6.01-6.047-14.384-8.987-25.6-8.987s-19.593 2.94-25.6 8.987c-13.728 13.814-13.548 42.826-13.34 76.42.019 4.136.045 8.411.047 12.728zm78.319.353z" transform="translate(-81.136 -33.486)"/><g id="group-5" data-name="group" transform="translate(.103 98.965)"><path id="path-4" data-name="path" class="cls-3" d="M161.19 239.317s-9.26 5.462-38.535 5.462-40.327-5.462-40.327-5.462V217.29s11.053 5.462 40.327 5.462 38.535-5.462 38.535-5.462z" transform="translate(-81.786 -216.748)"/><path id="path-5" data-name="path" class="cls-4" d="M122.2 244.862c-29.066 0-40.111-5.293-40.567-5.518a.542.542 0 0 1-.3-.485v-22.028a.542.542 0 0 1 .781-.486c.11.054 11.328 5.407 40.088 5.407 28.711 0 38.168-5.335 38.261-5.388a.547.547 0 0 1 .544 0 .542.542 0 0 1 .272.469v22.027a.542.542 0 0 1-.266.466c-.39.225-9.729 5.536-38.813 5.536zm-39.79-6.354c1.96.836 13.605 5.272 39.786 5.272 26.088 0 36.28-4.4 37.994-5.249v-20.823c-2.821 1.292-13.278 5.127-37.994 5.127-25.144 0-36.8-3.961-39.786-5.177v20.849zm78.319.351z" transform="translate(-81.327 -216.289)"/></g><g id="group-6" data-name="group" transform="translate(17.778 10.717)"><g id="group-7" data-name="group" transform="translate(38.397 53.636)"><path id="path-6" data-name="path" class="cls-3" d="M187.866 155.9s6.541-3.105 7.258-2.5-.03 3.489-6.786 5.6l.165 1.806s3.915-.508 4.391.038-1.947 2.51-4.477 2.909l-.072 1.383s6.86-.182 8.047 1.633c0 0-.37 1.079-7.944.293l-.142 2.525s4.506.64 5.038 1.788-5.233-.045-5.233-.045l-.195 1.669s3.3 1.427 3.466 2.691-3.682-.633-3.682-.633 6.543 3.726 5.445 5.581c0 0-2.287.161-7.242-4.333l.109-12.693z" transform="translate(-185.36 -152.797)"/><path id="path-7" data-name="path" class="cls-4" d="M192.644 180.732c-.5 0-2.909-.251-7.566-4.476l-.18-.163.126-13.056 1.913-7.963.234-.111c6.86-3.257 7.6-2.628 7.841-2.422a1.379 1.379 0 0 1 .369 1.372c-.142.7-1.063 3.1-6.927 5.02l.075.818c2.45-.28 3.9-.185 4.31.287a.846.846 0 0 1 .13.87c-.351.967-2.374 2.377-4.5 2.847l-.02.381c1.911-.017 6.788.143 7.929 1.886l.145.221-.086.251c-.4 1.167-4.418 1.051-7.947.712l-.082 1.47c1.461.239 4.424.862 4.961 2.021a.776.776 0 0 1-.079.835c-.454.574-2.2.571-5.177-.006l-.08.692c1 .469 3.246 1.661 3.419 2.949a.871.871 0 0 1-.339.854 1.05 1.05 0 0 1-.508.174c1.231.95 2.413 2.082 2.678 3.079a1.517 1.517 0 0 1-.139 1.189l-.145.244-.283.019a.352.352 0 0 1-.072.006zm-6.658-5.115c3.4 3.043 5.449 3.79 6.265 3.973 0-.011-.005-.023-.009-.035-.335-1.266-3.411-3.417-5.27-4.476l.507-.957a10.614 10.614 0 0 0 2.842 1.014 7.841 7.841 0 0 0-3.08-2.089l-.369-.16.309-2.654.579.12a21.837 21.837 0 0 0 4.345.532 14.287 14.287 0 0 0-4.335-1.209l-.492-.07.2-3.588.565.058c4.237.441 6.113.28 6.912.109-1.378-.748-4.734-1.019-7.057-.956l-.586.015.126-2.406.433-.068a7.236 7.236 0 0 0 3.97-2.042 17.8 17.8 0 0 0-3.731.166l-.558.073-.252-2.767-1.208 5.031zm6.089-14.822zm-4.2-4.964l-.56 2.33.405-.127c4.319-1.347 6.229-3.063 6.576-4.221a.782.782 0 0 0 .036-.4h-.032c-.8 0-3.833 1.2-6.429 2.418zm6.537-2.409z" transform="translate(-184.899 -152.354)"/></g><g id="group-8" data-name="group" transform="translate(0 44.885)"><path id="path-8" data-name="path" class="cls-4" d="M142.174 137.322s18.551 1.27 13.764 27.1c-3.218 17.363-19.454 16.451-25.909 15.365a15.013 15.013 0 0 1-5.978-2.354c-3.937-2.679-9.86-8.756-8.993-20.775 1.285-17.829 13.642-19.3 16.53-19.429s10.586.093 10.586.093z" transform="translate(-114.432 -136.649)"/><path id="path-9" data-name="path" class="cls-3" d="M135.448 180.369a36.543 36.543 0 0 1-5.966-.5 15.47 15.47 0 0 1-6.193-2.44c-3.831-2.607-10.124-8.837-9.229-21.261 1.285-17.829 13.371-19.763 17.045-19.931 2.876-.13 10.312.082 10.628.09h.021a16.491 16.491 0 0 1 11.073 6.2c3.844 4.957 4.916 12.2 3.186 21.535-1.427 7.7-5.5 12.751-12.1 15.014a26.319 26.319 0 0 1-8.465 1.293zm-1.748-43.1c-1 0-1.9.011-2.547.041-3.448.158-14.794 1.989-16.015 18.928-.856 11.883 5.12 17.811 8.758 20.288a14.405 14.405 0 0 0 5.763 2.267c6.566 1.1 22.175 1.859 25.286-14.931 1.67-9.007.672-15.958-2.966-20.66a15.687 15.687 0 0 0-10.3-5.8c-.27-.002-4.679-.129-7.979-.129z" transform="translate(-113.974 -136.191)"/></g><g id="group-9" data-name="group" transform="translate(12.796 45.013)"><path id="path-10" data-name="path" class="cls-4" d="M137.884 179.339s24.524 6.98 28.562-14.8c4.787-25.831-13.764-27.1-13.764-27.1s-5.139 1.48-7.585.978c0 0 12.549 3.012 11.711 22.167-2.187 21.866-18.924 18.755-18.924 18.755z" transform="translate(-137.736 -136.89)"/><path id="path-11" data-name="path" class="cls-3" d="M146.3 180.5a34.631 34.631 0 0 1-8.687-1.1l.246-1.053a15.562 15.562 0 0 0 11.111-2.768c4.036-3.035 6.45-8.254 7.176-15.513.8-18.418-10.8-21.465-11.3-21.587l.237-1.056c2.29.471 7.275-.953 7.326-.967l.091-.027.1.007a16.491 16.491 0 0 1 11.073 6.2c3.844 4.957 4.916 12.2 3.186 21.535-1.123 6.059-3.916 10.51-8.3 13.23A23.266 23.266 0 0 1 146.3 180.5zm-3.037-1.25c4.161.37 10 .165 14.724-2.77 4.113-2.553 6.738-6.76 7.8-12.505 1.67-9.007.672-15.958-2.966-20.66a15.708 15.708 0 0 0-10.216-5.794 33.594 33.594 0 0 1-4.974.989c3.732 2.073 10.2 7.7 9.59 21.631-.76 7.61-3.323 13.087-7.619 16.311a15.521 15.521 0 0 1-6.342 2.798z" transform="translate(-137.61 -136.427)"/></g><g id="group-10" data-name="group" transform="translate(32.695 49.739)"><path id="path-12" data-name="path" class="cls-4" d="M176.195 146.149a6.122 6.122 0 0 1 1.862 2.17c1.9 3.11 3.787 6.567 3.351 10.186a.772.772 0 0 1-.057.24.563.563 0 0 1-.849.085 1.615 1.615 0 0 1-.419-.876c-.839-3.451-1.592-7.118-3.963-9.762a2.924 2.924 0 0 1-.716-1.029.841.841 0 0 1 .431-1.054" transform="translate(-174.823 -145.593)"/><path id="path-13" data-name="path" class="cls-3" d="M180.467 159.087a1.2 1.2 0 0 1-.776-.283 2.1 2.1 0 0 1-.591-1.159l-.172-.711c-.762-3.174-1.551-6.455-3.668-8.816l-.088-.1a3.035 3.035 0 0 1-.742-1.136 1.378 1.378 0 0 1 .787-1.728l.292.932.511-.838a6.608 6.608 0 0 1 2.043 2.35c1.9 3.1 3.885 6.734 3.426 10.534a1.269 1.269 0 0 1-.106.408.955.955 0 0 1-.678.521 1.206 1.206 0 0 1-.238.026zm-4.954-12.877a.439.439 0 0 0-.047.359 2.16 2.16 0 0 0 .508.724l.092.1c2.3 2.564 3.12 5.981 3.914 9.285l.171.71a1.232 1.232 0 0 0 .247.595.06.06 0 0 0 .016.009c.413-3.451-1.392-6.748-3.277-9.829a5.931 5.931 0 0 0-1.624-1.953z" transform="translate(-174.367 -145.156)"/></g><g id="group-11" data-name="group" transform="translate(0 44.886)"><path id="path-14" data-name="path" class="cls-4" d="M142.174 137.323s18.551 1.27 13.764 27.1c-3.2 17.271-19.282 16.46-25.805 15.383a15.422 15.422 0 0 1-6.481-2.649c-3.924-2.811-9.432-8.877-8.594-20.5 1.285-17.829 13.642-19.3 16.53-19.429s10.586.095 10.586.095z" transform="translate(-114.432 -136.65)"/><path id="path-15" data-name="path" class="cls-3" d="M135.445 180.369a36.476 36.476 0 0 1-5.859-.486 16.044 16.044 0 0 1-6.708-2.744c-3.669-2.628-9.693-8.848-8.819-20.974 1.285-17.829 13.371-19.763 17.045-19.931 2.876-.13 10.312.082 10.628.09h.021a16.491 16.491 0 0 1 11.073 6.2c3.844 4.957 4.916 12.2 3.186 21.535-1.421 7.664-5.462 12.705-12.011 14.984a26.28 26.28 0 0 1-8.556 1.326zm-1.745-43.095c-1 0-1.9.011-2.547.041-3.448.158-14.794 1.989-16.015 18.928-.794 11.019 4.113 16.967 8.37 20.017a14.966 14.966 0 0 0 6.254 2.556c6.538 1.078 22.084 1.785 25.185-14.947 1.67-9.007.672-15.958-2.966-20.66a15.687 15.687 0 0 0-10.3-5.8c-.272-.009-4.681-.135-7.981-.135z" transform="translate(-113.974 -136.192)"/></g><g id="group-12" data-name="group" transform="translate(16.614 25.766)"><path id="path-16" data-name="path" class="cls-4" d="M146.6 121.637a3.381 3.381 0 0 1-.938-.6s1.091-.151 1.032-2.317l.149-16.843 8.95.077-.149 17.4s.2 1.7 1.006 1.875a7.042 7.042 0 0 1-2.058.947" transform="translate(-145.121 -101.335)"/><path id="path-17" data-name="path" class="cls-3" d="M154.133 122.262a.541.541 0 0 1-.156-1.059 8.024 8.024 0 0 0 1.266-.5 4.2 4.2 0 0 1-.6-1.742.6.6 0 0 1 0-.069l.145-16.863-7.867-.067-.144 16.3a3.281 3.281 0 0 1-.622 2.313c.067.036.14.074.22.112a.541.541 0 0 1-.466.977 3.791 3.791 0 0 1-1.1-.718.541.541 0 0 1 .32-.907c.193-.052.6-.495.565-1.767l.148-16.862a.541.541 0 0 1 .541-.536l8.95.077a.542.542 0 0 1 .536.546l-.149 17.368c.087.656.37 1.333.579 1.378a.542.542 0 0 1 .212.961 7.553 7.553 0 0 1-2.228 1.033.562.562 0 0 1-.15.025z" transform="translate(-144.662 -100.876)"/></g><g id="group-13" data-name="group" transform="translate(17.826 29.515)"><path id="path-18" data-name="path" class="cls-4" d="M156.474 115a6.3 6.3 0 0 0-3.633-1.956c-2.2-.277-4.776.4-4.77-.3s-1.09-3.864 2.22-3.944a13.988 13.988 0 0 1 6.224 1.5z" transform="translate(-147.36 -108.259)"/><path id="path-19" data-name="path" class="cls-3" d="M156.543 116l-.94-1.1a5.8 5.8 0 0 0-3.289-1.771 15.3 15.3 0 0 0-2.721-.01c-1.177.068-1.891.108-2.284-.266a.763.763 0 0 1-.238-.565c0-.065-.027-.241-.05-.4a3.914 3.914 0 0 1 .475-3.154 2.975 2.975 0 0 1 2.323-.93 14.517 14.517 0 0 1 6.494 1.562l.286.155zm-5.431-4.021a10.728 10.728 0 0 1 1.337.075 6.439 6.439 0 0 1 3.034 1.286l.027-3.162a13.325 13.325 0 0 0-5.666-1.29 1.97 1.97 0 0 0-1.52.542 3.1 3.1 0 0 0-.235 2.3c.019.126.036.237.048.337a10.492 10.492 0 0 0 1.392-.025c.48-.035 1.023-.066 1.584-.066zm-2.959.316z" transform="translate(-146.9 -107.8)"/></g><g id="group-14" data-name="group" transform="translate(16.613 25.767)"><path id="path-20" data-name="path" class="cls-4" d="M145.662 121.036s1.091-.151 1.032-2.317l.149-16.843 8.95.077-.149 17.4s.2 1.7 1.006 1.875" transform="translate(-145.12 -101.335)"/><path id="path-21" data-name="path" class="cls-3" d="M156.191 121.316a.569.569 0 0 1-.116-.012c-1.122-.244-1.387-1.993-1.429-2.34a.593.593 0 0 1 0-.069l.145-16.863-7.867-.067-.144 16.3c.071 2.6-1.435 2.84-1.5 2.849a.541.541 0 0 1-.171-1.069c.22-.061.622-.506.587-1.77l.148-16.862a.541.541 0 0 1 .541-.536l8.95.077a.542.542 0 0 1 .536.546l-.149 17.368c.087.656.37 1.333.579 1.378a.541.541 0 0 1-.114 1.07z" transform="translate(-144.661 -100.877)"/></g><g id="group-15" data-name="group" transform="translate(5.585)"><g id="group-16" data-name="group"><path id="path-22" data-name="path" class="cls-3" d="M141.017 85.052s-4.241 4.054-8.173 1.133-2.383-5.8-2.383-5.8a5.411 5.411 0 0 1-4.686-3.81 6.115 6.115 0 0 1 1.16-5.925 6.4 6.4 0 0 1 .721-9.218 5.692 5.692 0 0 1 6.422-.907s1.05-6.916 7.43-6.193c6.9.781 5.227 8.306 5.227 8.306s6.849-4.963 10.047 2.412c1.735 4-.613 6.4-2.3 7.528 0 0 5.676 5.026 1.463 10.031a6.358 6.358 0 0 1-7 2.025 6.465 6.465 0 0 1-2.559 1.6c-3.71.866-5.369-1.182-5.369-1.182z" transform="translate(-124.745 -53.741)"/><path id="path-23" data-name="path" class="cls-4" d="M135.5 87.324a5.667 5.667 0 0 1-3.432-1.164c-.04-.03-3.715-2.806-2.819-5.808a5.876 5.876 0 0 1-4.445-4.073 6.69 6.69 0 0 1 .981-6.094c-.91-1.249-3.335-5.415 1.044-9.6a6.1 6.1 0 0 1 6.4-1.262 10.185 10.185 0 0 1 1.259-2.915 6.548 6.548 0 0 1 6.623-3.069 6.257 6.257 0 0 1 4.633 2.474 8.23 8.23 0 0 1 1.222 5.322 7.974 7.974 0 0 1 5.626-.926c1.823.5 3.246 1.9 4.23 4.172a6.094 6.094 0 0 1-1.964 7.811c1.329 1.431 4.774 5.884 1.047 10.311a6.927 6.927 0 0 1-7.264 2.289 6.753 6.753 0 0 1-2.559 1.511 6.162 6.162 0 0 1-5.543-.979 10.161 10.161 0 0 1-2.383 1.431 6.919 6.919 0 0 1-2.656.569zm-4.556-27.338a4.752 4.752 0 0 0-3.367 1.381c-4.432 4.235-.849 8.292-.695 8.463a.543.543 0 0 1-.014.744 5.539 5.539 0 0 0-1.028 5.388 4.882 4.882 0 0 0 4.2 3.427.542.542 0 0 1 .448.8c-.051.1-1.249 2.52 2.229 5.1 3.513 2.612 7.316-.938 7.476-1.09a.525.525 0 0 1 .409-.148.541.541 0 0 1 .384.2c.068.08 1.53 1.771 4.836 1a5.951 5.951 0 0 0 2.288-1.447.543.543 0 0 1 .591-.133 5.775 5.775 0 0 0 6.385-1.87 5.479 5.479 0 0 0 .773-6.311 10.356 10.356 0 0 0-2.181-2.965.542.542 0 0 1 .057-.855c1.8-1.2 3.618-3.369 2.1-6.862a5.655 5.655 0 0 0-3.523-3.558c-2.74-.751-5.681 1.347-5.71 1.368a.542.542 0 0 1-.847-.555c.008-.034.717-3.383-.89-5.629a5.226 5.226 0 0 0-3.869-2.023c-5.776-.646-6.794 5.475-6.834 5.737a.541.541 0 0 1-.293.4.534.534 0 0 1-.5-.006 5.652 5.652 0 0 0-2.426-.556z" transform="translate(-124.291 -53.281)"/></g><g id="group-17" data-name="group" transform="translate(5.125 7.093)"><path id="path-24" data-name="path" class="cls-3" d="M145.558 68.355s-4.4-2.524-6.75.5-.045 5.294-.045 5.294-5.3.757-3.7 6.545a3.892 3.892 0 0 0 3.465 2.677" transform="translate(-134.216 -66.835)"/><path id="path-25" data-name="path" class="cls-4" d="M138.052 83.464a4.419 4.419 0 0 1-3.955-3.012.488.488 0 0 1-.021-.062 5.871 5.871 0 0 1 .455-4.93 5.418 5.418 0 0 1 2.861-2.086 4.436 4.436 0 0 1 .528-5.3c2.089-2.69 5.785-1.6 7.448-.641a.541.541 0 0 1-.539.939c-.164-.093-4.022-2.25-6.054.365-2.016 2.595-.171 4.5-.092 4.577a.543.543 0 0 1-.3.92 4.7 4.7 0 0 0-2.947 1.824 4.839 4.839 0 0 0-.32 4.008 3.359 3.359 0 0 0 2.939 2.312.552.552 0 0 1 .554.528.541.541 0 0 1-.528.554z" transform="translate(-133.757 -66.383)"/></g><path id="path-26" data-name="path" class="cls-4" d="M145.548 92.461a.542.542 0 0 1-.133-1.067 4.194 4.194 0 0 0 3.442-4.8.541.541 0 0 1 1.067-.187 5.335 5.335 0 0 1-4.243 6.04.535.535 0 0 1-.133.014z" transform="translate(-133.792 -68.267)"/><path id="path-27" data-name="path" class="cls-4" d="M175.1 88.865a.541.541 0 0 1-.072-1.078 11.074 11.074 0 0 0 1.841-.657.542.542 0 1 1 .433.993 12.162 12.162 0 0 1-2.13.737.537.537 0 0 1-.072.005z" transform="translate(-147.345 -68.785)"/><path id="path-28" data-name="path" class="cls-4" d="M168.547 106.64a.541.541 0 0 1-.411-.893c.945-1.1 1.018-3.329.966-4.094a.542.542 0 0 1 .5-.577.548.548 0 0 1 .577.5c.009.13.2 3.21-1.224 4.871a.542.542 0 0 1-.408.193z" transform="translate(-144.34 -75.201)"/><path id="path-29" data-name="path" class="cls-4" d="M129.413 85.821a.54.54 0 0 1-.263-.068 6.325 6.325 0 0 1-1.7-1.364.541.541 0 0 1 .865-.651 5.351 5.351 0 0 0 1.366 1.07.541.541 0 0 1-.264 1.014z" transform="translate(-125.688 -67.151)"/><path id="path-30" data-name="path" class="cls-4" d="M142.855 67.1a.537.537 0 0 1-.4-.175 7.071 7.071 0 0 0-1.627-1.085.542.542 0 0 1 .483-.97 8.082 8.082 0 0 1 1.941 1.321.542.542 0 0 1-.4.908z" transform="translate(-131.739 -58.573)"/></g><g id="group-18" data-name="group" transform="translate(7.346 56.583)"><g id="group-19" data-name="group" transform="translate(1.042)"><path id="path-31" data-name="path" class="cls-4" d="M131.327 166.988c-1.885-3.072-.24-7.668 1.094-8.189" transform="translate(-129.931 -158.257)"/><path id="path-32" data-name="path" class="cls-3" d="M130.866 167.07a.542.542 0 0 1-.462-.258 7.972 7.972 0 0 1-.462-6.423 4.063 4.063 0 0 1 1.82-2.553.541.541 0 1 1 .394 1.009 3.287 3.287 0 0 0-1.187 1.889 6.82 6.82 0 0 0 .358 5.512.542.542 0 0 1-.461.825z" transform="translate(-129.469 -157.798)"/></g><g id="group-20" data-name="group" transform="translate(0 4.495)"><path id="path-33" data-name="path" class="cls-4" d="M136.45 169.306s-2.57 2.946-.82 8.014a4.241 4.241 0 0 1 1.918 4.268c-.347 3.045-1.8 4.637-4.611 4.613 0 0-4.171-.036-4.378-3.888s1.96-4.074 1.96-4.074-.88-9.553 1.3-11.138" transform="translate(-128.003 -166.559)"/><path id="path-34" data-name="path" class="cls-3" d="M132.54 186.284h-.067c-1.618-.014-4.728-.952-4.914-4.4-.169-3.154 1.155-4.171 1.925-4.494-.163-2.082-.6-9.619 1.557-11.184a.541.541 0 0 1 .636.875c-1.406 1.023-1.408 7.076-1.078 10.65a.542.542 0 0 1-.485.588c-.058.009-1.648.27-1.474 3.506.177 3.289 3.693 3.373 3.843 3.375h.057c2.415 0 3.689-1.315 4.011-4.133a3.694 3.694 0 0 0-1.64-3.732.549.549 0 0 1-.252-.3c-1.832-5.3.81-8.417.924-8.546a.541.541 0 0 1 .817.71c-.1.121-2.274 2.739-.778 7.3a4.79 4.79 0 0 1 2 4.685c-.38 3.386-2.091 5.099-5.082 5.1z" transform="translate(-127.544 -166.101)"/></g></g><g id="group-21" data-name="group" transform="translate(18.711 45.964)"><path id="path-35" data-name="path" class="cls-4" d="M152.438 139.686c-.542-.042-1.031-.1-1.471-.176a11.932 11.932 0 0 1-1.43-.325" transform="translate(-148.995 -138.643)"/><path id="path-36" data-name="path" class="cls-3" d="M151.98 139.768h-.042c-.53-.041-1.041-.1-1.519-.182a12.72 12.72 0 0 1-1.495-.339.541.541 0 0 1 .307-1.038 11.482 11.482 0 0 0 1.365.31c.447.075.926.132 1.424.17a.542.542 0 0 1-.041 1.082z" transform="translate(-148.536 -138.184)"/></g><g id="group-22" data-name="group" transform="translate(25.146 49.267)"><path id="path-37" data-name="path" class="cls-4" d="M161.421 145.285a18.742 18.742 0 0 1 5.647 10.816" transform="translate(-160.88 -144.744)"/><path id="path-38" data-name="path" class="cls-3" d="M166.609 156.185a.541.541 0 0 1-.534-.457 18.379 18.379 0 0 0-5.46-10.486.541.541 0 0 1 .7-.83 19.125 19.125 0 0 1 5.834 11.147.541.541 0 0 1-.45.619.572.572 0 0 1-.09.007z" transform="translate(-160.422 -144.286)"/></g><g id="group-23" data-name="group" transform="translate(30.974 64.711)"><path id="path-39" data-name="path" class="cls-4" d="M172.545 173.814a29.208 29.208 0 0 1-.357 6.085" transform="translate(-171.646 -173.272)"/><path id="path-40" data-name="path" class="cls-3" d="M171.729 179.982a.561.561 0 0 1-.112-.011.541.541 0 0 1-.418-.641 28.756 28.756 0 0 0 .346-5.947.542.542 0 0 1 .514-.568.53.53 0 0 1 .568.514 29.335 29.335 0 0 1-.369 6.223.542.542 0 0 1-.529.43z" transform="translate(-171.187 -172.812)"/></g><g id="group-24" data-name="group" transform="translate(24.313 76.592)"><path id="path-41" data-name="path" class="cls-4" d="M164.965 195.759a15.151 15.151 0 0 1-5.082 7.168" transform="translate(-159.342 -195.217)"/><path id="path-42" data-name="path" class="cls-3" d="M159.425 203.009a.542.542 0 0 1-.312-.984 14.665 14.665 0 0 0 4.876-6.882.541.541 0 1 1 1.036.314 15.553 15.553 0 0 1-5.289 7.454.54.54 0 0 1-.311.098z" transform="translate(-158.883 -194.758)"/></g><g id="group-25" data-name="group" transform="translate(13.831 61.645)"><path id="path-43" data-name="path" class="cls-4" d="M147.332 168.149c-.012 1.436-1.747 6.645-6.809 5.812" transform="translate(-139.981 -167.608)"/><path id="path-44" data-name="path" class="cls-3" d="M141.137 174.134a7.158 7.158 0 0 1-1.161-.1.541.541 0 0 1 .175-1.068 4.716 4.716 0 0 0 3.968-1 6.824 6.824 0 0 0 2.213-4.285.542.542 0 0 1 .541-.536.541.541 0 0 1 .536.546 7.839 7.839 0 0 1-2.6 5.1 5.562 5.562 0 0 1-3.672 1.343z" transform="translate(-139.522 -167.149)"/></g></g></g><g id="group-26" data-name="group" transform="translate(69.914 116.564)"><g id="group-27" data-name="group"><path id="rectangle" class="cls-3" transform="translate(.541 .541)" d="M0 0h23.006v23.006H0z"/><path id="path-45" data-name="path" class="cls-4" d="M156.689 243.4h-23.006a.541.541 0 0 1-.541-.541v-23.005a.541.541 0 0 1 .541-.541h23.006a.541.541 0 0 1 .541.541v23.006a.542.542 0 0 1-.541.54zm-22.464-1.083h21.923V220.4h-21.923z" transform="translate(-133.142 -219.313)"/></g><g id="group-28" data-name="group" transform="translate(2.3 18.429)"><path id="rectangle-2" data-name="rectangle" class="cls-4" transform="translate(.541 .541)" d="M0 0h18.405v2.201H0z"/><path id="path-46" data-name="path" class="cls-4" d="M156.878 256.638h-19.487v-3.283h19.487zm-18.4-1.083H155.8v-1.118h-17.326z" transform="translate(-137.391 -253.355)"/></g><g id="group-29" data-name="group" transform="translate(2.3 14.324)"><path id="rectangle-3" data-name="rectangle" class="cls-4" transform="translate(.541 .541)" d="M0 0h18.405v2.201H0z"/><path id="path-47" data-name="path" class="cls-4" d="M156.878 249.055h-19.487v-3.283h19.487zm-18.4-1.083H155.8v-1.117h-17.326z" transform="translate(-137.391 -245.772)"/></g><g id="group-30" data-name="group" transform="translate(2.3 10.218)"><path id="rectangle-4" data-name="rectangle" class="cls-4" transform="translate(.541 .541)" d="M0 0h18.405v2.201H0z"/><path id="path-48" data-name="path" class="cls-4" d="M156.878 241.471h-19.487v-3.283h19.487zm-18.4-1.083H155.8v-1.118h-17.326z" transform="translate(-137.391 -238.188)"/></g><path id="rectangle-5" data-name="rectangle" class="cls-3" transform="rotate(90 .423 7.186)" d="M0 0h15.545v2.201H0z"/><path id="rectangle-6" data-name="rectangle" class="cls-3" transform="rotate(90 3.19 9.954)" d="M0 0h15.545v2.201H0z"/><path id="rectangle-7" data-name="rectangle" class="cls-3" transform="rotate(90 5.958 12.722)" d="M0 0h15.545v2.201H0z"/><g id="group-31" data-name="group" transform="translate(2.3 2.3)"><path id="rectangle-8" data-name="rectangle" class="cls-4" transform="translate(.541 .541)" d="M0 0h18.405v6.014H0z"/><path id="path-49" data-name="path" class="cls-4" d="M156.878 230.658h-19.487v-7.1h19.487zm-18.4-1.083H155.8v-4.93h-17.326z" transform="translate(-137.391 -223.562)"/></g><path id="path-50" data-name="path" class="cls-3" d="M160.15 222.526l-6.506 7.784h3.589l6.087-7.907s-3.463.123-3.17.123z" transform="translate(-142.545 -220.73)"/><path id="path-51" data-name="path" class="cls-3" d="M151.354 222.526l-6.506 7.784h2.636l6.087-7.907s-2.51.123-2.217.123z" transform="translate(-138.511 -220.73)"/></g></g></g><path id="path-52" data-name="path" class="cls-3" d="M85 170a85 85 0 1 1 85-85 85.1 85.1 0 0 1-85 85zM85 4.331A80.669 80.669 0 1 0 165.669 85 80.761 80.761 0 0 0 85 4.331z"/></g></svg>