<?xml version="1.0" encoding="UTF-8" standalone="no"?>
<!-- Created with Inkscape (http://www.inkscape.org/) -->

<svg
   xmlns:dc="http://purl.org/dc/elements/1.1/"
   xmlns:cc="http://creativecommons.org/ns#"
   xmlns:rdf="http://www.w3.org/1999/02/22-rdf-syntax-ns#"
   xmlns:svg="http://www.w3.org/2000/svg"
   xmlns="http://www.w3.org/2000/svg"
   xmlns:sodipodi="http://sodipodi.sourceforge.net/DTD/sodipodi-0.dtd"
   xmlns:inkscape="http://www.inkscape.org/namespaces/inkscape"
   width="210mm"
   height="297mm"
   viewBox="0 0 210 297"
   version="1.1"
   id="SVGRoot"
   inkscape:version="0.92.2 (5c3e80d, 2017-08-06)"
   sodipodi:docname="plumbus-klaar.svg">
  <sodipodi:namedview
     id="base"
     pagecolor="#ffffff"
     bordercolor="#666666"
     borderopacity="1.0"
     inkscape:pageopacity="0.0"
     inkscape:pageshadow="2"
     inkscape:zoom="0.49497475"
     inkscape:cx="622.4342"
     inkscape:cy="751.4229"
     inkscape:document-units="mm"
     inkscape:current-layer="layer1"
     showgrid="false"
     inkscape:window-width="1920"
     inkscape:window-height="986"
     inkscape:window-x="-11"
     inkscape:window-y="-11"
     inkscape:window-maximized="1" />
  <defs
     id="defs7022" />
  <metadata
     id="metadata7025">
    <rdf:RDF>
      <cc:Work
         rdf:about="">
        <dc:format>image/svg+xml</dc:format>
        <dc:type
           rdf:resource="http://purl.org/dc/dcmitype/StillImage" />
        <dc:title></dc:title>
      </cc:Work>
    </rdf:RDF>
  </metadata>
  <g
     id="layer1"
     inkscape:groupmode="layer"
     inkscape:label="Laag 1">
    <path
       style="fill:#929292;stroke-width:0.21748091"
       d="M 106.31085,5.7604317 C 88.704202,5.5998987 75.228992,8.2679077 62.997997,14.285203 43.052399,24.097853 30.262715,42.430636 23.020878,71.587849 c -4.709089,18.959889 -7.019663,41.954621 -7.736117,76.988391 -0.27654,13.52421 -0.05072,128.73954 0.253942,129.5476 0.337087,0.89402 3.039794,2.03967 9.425549,3.99503 16.188132,4.95696 40.284554,8.16835 67.65292,9.01637 7.180697,0.22249 28.013798,0.0912 34.669268,-0.2185 22.43718,-1.04382 41.07994,-3.60391 54.69711,-7.51187 5.96164,-1.71091 12.00843,-4.15864 12.46805,-5.04625 0.30184,-0.58294 0.54455,-121.40637 0.2664,-132.61023 C 193.61895,101.48468 189.83332,75.218834 181.50633,54.08025 169.11278,22.618443 145.76271,6.8874187 109.88807,5.8303857 c -1.21134,-0.0357 -2.40344,-0.05925 -3.57722,-0.06995 z m -1.89162,3.356818 c 9.41892,-0.02752 18.85516,1.0068993 26.89098,3.0204683 15.77576,3.953026 28.38916,12.502049 37.57953,25.470826 9.48655,13.386729 15.85244,32.943356 19.16636,58.880914 1.40883,11.026722 2.23037,21.830412 2.97638,39.146302 0.29399,6.82364 0.49123,69.70332 0.2549,81.25654 l -0.1706,8.29094 -2.17432,-0.85477 c -9.94331,-3.9054 -27.74215,-7.2945 -46.24707,-8.80651 l -4.54413,-0.3718 -1.09913,1.07518 c -1.2494,1.2216 -1.5346,1.64931 -1.32337,1.98649 0.0858,0.13722 2.06137,0.38923 4.71565,0.60083 15.17233,1.20942 29.115,3.44016 39.51139,6.3217 2.58688,0.71697 8.44209,2.63976 8.63977,2.83744 0.17505,0.17487 -2.73964,1.36394 -5.52538,2.25385 -10.80261,3.45102 -29.91258,6.55042 -46.32279,7.51286 -1.19614,0.0699 -2.58462,0.17839 -3.08467,0.24051 l -0.90845,0.11311 -0.0699,-3.51109 c -0.0666,-3.3867 -0.0872,-3.52446 -0.58262,-3.92508 -0.49903,-0.40366 -1.25506,-0.4159 -26.8977,-0.4159 H 78.82 l -0.450389,0.57306 c -0.410224,0.52154 -0.451343,0.86456 -0.451343,3.81678 v 3.24375 l -1.250544,-0.12072 c -0.687786,-0.0666 -3.158416,-0.27226 -5.490891,-0.45806 -18.479684,-1.47183 -36.907157,-4.77945 -48.172244,-8.64647 l -1.522694,-0.52226 3.15367,-1.02055 c 9.783892,-3.1647 26.03338,-6.18494 40.99576,-7.62017 6.087845,-0.58396 5.763036,-0.52374 5.763036,-1.06464 0,-0.31298 -0.447846,-0.87439 -1.288871,-1.61469 l -1.288878,-1.13458 -4.382169,0.43793 c -17.08333,1.70659 -32.454017,4.70236 -43.197864,8.41839 l -2.42059,0.83658 -0.164816,-22.73497 c -0.268788,-37.0886 -1.13e-4,-60.75738 0.879693,-77.54131 1.834359,-34.990179 6.642188,-59.01656 15.340949,-76.661622 4.064121,-8.243937 8.171103,-14.107263 13.784716,-19.68191 10.761276,-10.686605 24.930943,-16.913624 43.06275,-18.9239203 4.141266,-0.459151 8.418629,-0.690863 12.699949,-0.703372 z m -1.21988,20.5290243 c -1.55483,-0.0026 -3.05536,0.115972 -3.968193,0.356476 -3.363832,0.885526 -6.593225,3.108615 -8.599523,5.920195 -1.073881,1.504904 -2.844311,5.078718 -3.066464,6.189465 -0.135183,0.675551 -0.175349,0.700184 -0.924729,0.56634 -0.431046,-0.07675 -1.371352,-0.2431 -2.089027,-0.368932 -2.585712,-0.453405 -6.434955,0.306661 -8.972286,1.770881 -3.463417,1.998688 -6.864391,6.564423 -7.897108,10.602303 -0.906614,3.544873 -0.399797,7.18153 1.54282,11.063232 l 1.103926,2.204018 -0.671751,1.057931 c -1.144993,1.805122 -1.787459,4.190621 -1.906954,7.073951 -0.132031,3.186876 0.264104,5.123337 1.592644,7.777321 1.541553,3.079388 4.530729,5.706602 7.597168,6.677229 l 1.087634,0.344019 0.01632,1.880125 c 0.02782,3.211688 1.406776,5.901281 4.768349,9.297142 1.848916,1.86777 2.452204,2.32976 4.02378,3.08371 1.016726,0.48773 2.460217,1.00434 3.208287,1.14801 1.389363,0.26685 5.467326,0.18644 6.209592,-0.12267 0.376649,-0.15686 0.390854,0.31072 0.326767,11.2271 l -0.06707,11.39191 -0.59796,1.27642 c -0.705145,1.50537 -0.747649,2.01715 -0.183026,2.19636 0.574684,0.18247 0.720306,0.68927 0.314311,1.0953 -0.308585,0.30858 -0.453901,0.2768 -1.559105,-0.34689 -1.174407,-0.66281 -1.281076,-0.68216 -2.966806,-0.54334 -7.269985,0.59862 -15.186695,4.14173 -20.563517,9.20322 -7.781274,7.32498 -12.204948,17.80736 -13.488615,31.96311 -0.350753,3.86767 -0.172122,12.45276 0.324856,15.61503 2.120688,13.4945 8.756877,24.33052 19.201818,31.35267 5.413837,3.63973 11.197681,5.39804 20.251131,6.15689 3.229491,0.27064 11.391891,0.0884 14.372131,-0.32101 l -9.6e-4,-9.7e-4 c 10.94732,-1.50446 19.91878,-5.91642 25.78514,-12.68175 6.31588,-7.28371 9.74385,-16.80487 11.06803,-30.74131 0.68222,-7.18023 0.61971,-12.56594 -0.21179,-18.11897 -2.02749,-13.54082 -8.78161,-23.44556 -19.75378,-28.96948 -2.31117,-1.16357 -6.37861,-2.55721 -8.54585,-2.92847 l -1.5639,-0.26831 -1.91557,0.90844 c -2.34563,1.11219 -3.13945,1.29807 -3.53124,0.82602 -0.43164,-0.52011 -0.0289,-0.85534 1.85617,-1.54281 1.8699,-0.68194 1.80101,-0.42535 0.83658,-3.14408 l -0.57497,-1.62331 0.15911,-11.79535 0.16003,-11.79535 0.67655,-0.14374 c 1.13702,-0.24137 3.84667,-1.57829 5.06636,-2.49917 l 1.15472,-0.87106 1.45466,0.25298 c 3.04716,0.53065 6.95257,-0.0818 9.85677,-1.546649 4.14514,-2.090212 7.65873,-6.615533 8.61101,-11.090064 0.40927,-1.923288 0.30046,-5.037603 -0.24723,-7.068203 -0.68745,-2.548368 -2.11588,-5.150108 -4.82586,-8.789252 -0.22738,-0.305308 -0.051,-0.581069 1.20073,-1.883001 4.29886,-4.472726 5.12546,-10.580428 2.26054,-16.694026 -2.17841,-4.648609 -4.7532,-7.324053 -8.46153,-8.789258 -1.36778,-0.540435 -1.71065,-0.582796 -4.73672,-0.582629 -3.46781,1.76e-4 -4.83501,0.243208 -7.1669,1.274502 l -1.15089,0.508842 -0.14668,-1.878213 c -0.21533,-2.750717 -0.88381,-5.314184 -1.96637,-7.544459 -0.7846,-1.616485 -1.24623,-2.245467 -2.58063,-3.513017 -1.91684,-1.820862 -4.40138,-3.150133 -6.88804,-3.685509 -1.13215,-0.243736 -2.74205,-0.367318 -4.29689,-0.369894 z m -0.0834,3.405695 c 0.39173,-0.0037 0.78968,0.0096 1.19304,0.04024 3.37163,0.255543 5.81683,1.278192 7.85591,3.28495 2.64809,2.606117 3.66163,6.680488 3.09138,12.424932 -0.17227,1.734589 -0.16059,1.805708 0.37085,2.337221 0.6635,0.663491 1.30479,0.693552 2.31134,0.107331 1.77582,-1.034195 4.77466,-2.380867 6.08598,-2.732987 0.87641,-0.235302 2.21337,-0.380776 3.5178,-0.383307 2.00552,-0.0039 2.18408,0.03551 3.80626,0.833695 2.12627,1.046582 4.48827,3.31083 5.44968,5.224492 1.52869,3.042831 1.88356,4.367121 1.89546,7.079697 0.0111,2.490553 0.004,2.52733 -0.83561,4.225014 -0.59837,1.210645 -1.27673,2.143013 -2.31518,3.18146 -1.61901,1.619019 -2.78474,2.299568 -5.19287,3.031006 -1.83931,0.558655 -2.41101,1.02262 -2.41101,1.957743 0,0.81597 0.85052,1.729679 1.6099,1.729679 0.29829,0 1.3546,-0.255808 2.34679,-0.569209 l 1.80347,-0.570171 0.98031,1.094345 c 1.19241,1.331739 2.87736,4.078201 3.64909,5.948942 0.8364,2.027408 0.9525,5.448287 0.25874,7.605788 -1.71078,5.320553 -6.76687,9.108357 -12.15854,9.108357 h -1.92323 l 0.51555,-1.623308 c 0.58386,-1.838617 1.09511,-6.182807 0.86914,-7.387305 -0.29561,-1.575735 -1.78527,-2.180996 -2.8202,-1.146091 -0.4426,0.442605 -0.51401,0.78184 -0.63436,2.989802 -0.14074,2.584864 -0.54932,4.511893 -1.24576,5.877074 -0.60109,1.178166 -2.49397,2.773978 -4.34192,3.660591 -1.62498,0.77962 -1.64216,0.7826 -4.56712,0.78099 -3.40785,-0.002 -4.69036,-0.3728 -6.35812,-1.840836 -1.09556,-0.964356 -1.87916,-1.239553 -2.53366,-0.889274 -0.24769,0.132587 -1.09945,0.732634 -1.89259,1.332955 -3.400387,2.573725 -7.303449,3.799045 -10.358897,3.252365 h -9.63e-4 c -3.134962,-0.56175 -6.912827,-3.518962 -8.642637,-6.764429 -0.915853,-1.71832 -1.137262,-3.874677 -0.57209,-5.576173 0.375826,-1.131433 0.266891,-1.886901 -0.344976,-2.394718 -0.16578,-0.137557 -0.996414,-0.394807 -1.846585,-0.572088 -4.642739,-0.968037 -7.786333,-4.451074 -8.568855,-9.494541 -0.272071,-1.753327 -0.02659,-3.854046 0.668872,-5.71225 0.76958,-2.056887 0.815503,-2.079344 2.264396,-1.117341 1.515981,1.00654 2.567092,1.10948 3.210204,0.315272 0.278062,-0.343425 0.396071,-0.774232 0.352645,-1.287917 -0.0573,-0.680862 -0.263353,-0.920057 -1.74214,-2.029617 -3.358068,-2.519677 -5.168906,-6.044751 -5.168906,-10.062797 0,-3.475055 1.224834,-6.125389 4.230764,-9.153398 2.023037,-2.037928 3.07898,-2.703861 5.171782,-3.26099 2.272118,-0.604874 5.3204,-0.24023 7.614416,0.911313 1.823711,0.915454 1.810445,0.85281 0.507884,2.292184 -1.918234,2.119728 -2.97502,4.78374 -2.945725,7.426592 0.01113,1.014268 0.526224,3.362271 0.94869,4.323714 0.127024,0.289283 -0.0919,0.489491 -1.053141,0.960191 -2.908701,1.424248 -4.94925,3.732703 -5.931691,6.710765 -0.490257,1.486112 -0.577841,2.129328 -0.577841,4.251847 0,2.127282 0.08649,2.760495 0.578798,4.240342 0.318283,0.956918 0.809644,2.117942 1.091471,2.579668 1.318804,2.160739 4.028647,4.129503 6.452988,4.687854 2.214356,0.509994 3.351485,0.132532 3.60789,-1.196878 0.195337,-1.01289 -0.574232,-1.772457 -2.077532,-2.050699 -1.611351,-0.298217 -2.849643,-0.932466 -3.944238,-2.020992 -3.171873,-3.154303 -3.069208,-9.680177 0.197406,-12.561962 1.192113,-1.05168 2.905104,-1.956694 4.658151,-2.461797 1.772923,-0.510834 2.223458,-1.675865 1.178671,-3.048258 -1.209066,-1.588197 -1.546925,-2.540858 -1.546647,-4.369713 2.2e-4,-1.459539 0.098,-1.93885 0.604668,-2.977345 0.808114,-1.656564 2.355727,-3.335735 3.714254,-4.029526 2.231101,-1.139406 5.96379,-0.819675 9.445684,0.809737 0.76528,0.3581 1.63028,0.651622 1.92132,0.651622 0.69775,0 1.59648,-0.921117 1.59648,-1.635766 0,-0.984006 -0.4285,-1.434751 -2.09766,-2.205936 -3.15785,-1.459018 -6.514757,-2.024936 -9.499328,-1.601274 l -1.83413,0.260649 -1.120221,-0.804943 c -0.9165,-0.658426 -1.094797,-0.890105 -0.980306,-1.269708 2.05144,-6.801704 6.580528,-10.672584 12.456555,-10.726875 z m -0.63054,36.051083 c -0.39227,0.0043 -0.78588,0.137854 -1.10871,0.399602 -0.47062,0.381713 -0.50865,0.556256 -0.45232,2.088066 0.17469,4.751372 -2.35204,8.215235 -6.960872,9.542455 -1.326391,0.38197 -1.691345,0.773706 -1.691345,1.816884 0,1.509092 1.446385,1.953996 3.761209,1.157588 3.397985,-1.169074 6.279788,-3.960956 7.526248,-7.292436 1.01204,-2.704942 1.02369,-6.526104 0.023,-7.336516 -0.31484,-0.254953 -0.70496,-0.379848 -1.09723,-0.375643 z m -4.090866,64.248188 c 0.360414,0.0152 0.936213,0.11421 1.941466,0.30665 1.24634,0.23858 2.8538,0.51287 3.57147,0.6085 1.2005,0.16004 1.30516,0.21762 1.30516,0.71775 0,0.50214 -0.0829,0.54602 -1.08764,0.58263 -0.59785,0.0219 -1.87007,-0.1029 -2.82689,-0.27791 h -9.6e-4 c -2.467628,-0.45142 -3.280026,-0.69552 -3.598309,-1.07901 -0.228291,-0.27502 -0.220224,-0.3939 0.04599,-0.66025 0.144085,-0.14417 0.289281,-0.2135 0.649696,-0.19836 z m 14.199666,7.28669 c 0.3478,0 3.70228,3.47477 4.93508,5.11141 3.69942,4.9113 5.999,9.67068 7.49943,15.52493 0.79758,3.11202 0.88816,4.64756 0.28076,4.76261 -0.19042,0.0363 -0.44545,-0.0606 -0.56632,-0.21561 -0.1209,-0.15465 -0.38982,-1.16198 -0.59796,-2.23851 -0.20824,-1.07654 -0.80835,-3.26667 -1.33392,-4.86707 -1.9738,-6.01005 -4.97713,-10.97017 -9.69865,-16.01748 -1.1009,-1.17687 -1.27369,-1.46297 -1.04835,-1.73447 0.14854,-0.17894 0.38681,-0.32581 0.52993,-0.32581 z m 49.61635,8.7126 c -0.85865,-0.013 -1.98356,0.16448 -3.34053,0.528 -3.14584,0.84279 -11.10486,4.09434 -11.4705,4.68594 -0.22703,0.36739 0.54724,2.77256 0.94103,2.92369 0.18155,0.0699 1.91339,-0.5564 3.84937,-1.39046 3.39518,-1.46278 8.33849,-3.28112 8.91958,-3.28112 1.20778,0 -2.56507,3.93794 -5.19191,5.41902 -0.93709,0.52838 -2.79585,1.43151 -4.13014,2.00663 -1.39636,0.60183 -2.45622,1.18801 -2.49726,1.38181 -0.11367,0.5369 0.38729,2.57818 0.6775,2.76078 0.33684,0.21196 0.64457,0.11776 3.41815,-1.04068 6.85832,-2.86431 11.1292,-6.78967 11.46953,-10.54289 0.0923,-1.01836 0.0256,-1.395 -0.37755,-2.11203 -0.26971,-0.47986 -0.7281,-0.98061 -1.01769,-1.11255 -0.31556,-0.14371 -0.73439,-0.21891 -1.24958,-0.22614 z m -82.600026,7.64029 c 0.683317,0.13017 0.559004,0.9361 -0.237648,1.54376 -1.907626,1.45501 -3.204104,4.92401 -3.350117,8.96271 -0.110891,3.06469 0.09235,4.34958 0.688042,4.34958 0.295436,0 0.564955,-0.39828 1.003309,-1.48053 0.706994,-1.74535 1.432446,-2.86329 2.084239,-3.21211 0.982015,-0.5256 1.304543,0.47483 0.42068,1.30516 -2.199946,2.06674 -3.111137,10.58388 -2.379386,22.23474 l 0.132235,2.10149 -1.194965,0.56538 c -1.29579,0.61306 -2.063937,1.51635 -2.693695,3.16997 -0.280011,0.73525 -0.374413,1.68224 -0.382351,3.80623 -0.0093,2.45602 0.05454,2.99087 0.488722,4.07937 1.000834,2.50984 3.367488,4.21758 6.775924,4.88909 3.289425,0.64804 6.620041,-0.23482 8.474943,-2.24714 1.880088,-2.03966 2.949317,-5.53388 2.792403,-9.12178 -0.117011,-2.67603 -0.896536,-4.32093 -2.907392,-6.1358 -1.396268,-1.26017 -1.408699,-1.28268 -1.982663,-3.43445 -0.498437,-1.8685 -0.580157,-2.61429 -0.59221,-5.4286 -0.01669,-3.68606 0.27289,-5.18067 1.52748,-7.92202 0.910756,-1.99001 1.705368,-3.06071 2.272061,-3.06071 0.681627,0 0.732845,0.59505 0.12745,1.47382 -0.954705,1.38563 -1.895268,3.63873 -2.264396,5.42381 -0.482912,2.33532 -0.413629,2.45591 1.405786,2.44934 1.872628,-0.007 3.063222,-0.28399 4.813387,-1.11926 1.733033,-0.8271 3.775486,-2.82056 4.995473,-4.87664 1.052805,-1.77434 1.460925,-2.84933 1.974035,-5.19957 0.32286,-1.47884 0.45057,-1.75002 0.85382,-1.80922 0.67573,-0.0992 0.79897,0.42979 0.49063,2.10629 -0.59321,3.22485 -2.388,6.51069 -4.839269,8.85728 -2.372817,2.27151 -4.558358,3.22248 -8.0006,3.48235 l -2.026742,0.15336 0.127451,1.97787 c 0.07009,1.08803 0.309521,2.61879 0.531837,3.40091 0.350329,1.2322 0.595445,1.61211 1.83509,2.85181 2.304516,2.30451 3.427637,5.26009 3.125878,8.22387 -0.779782,7.65892 -4.428266,11.55684 -10.779581,11.5165 -1.016732,-0.007 -2.386555,-0.15502 -3.044426,-0.32965 -2.029402,-0.53867 -3.513266,-1.39491 -5.022295,-2.89973 -2.148003,-2.14199 -2.481993,-3.12957 -2.473294,-7.30201 0.0056,-2.854 0.06737,-3.41357 0.490635,-4.47512 0.545924,-1.36878 1.665802,-2.7834 2.717654,-3.43349 l 0.707205,-0.43696 -0.03451,-8.22389 c -0.03282,-7.8372 -0.05648,-8.26977 -0.489671,-9.22238 -0.543889,-1.19634 -1.031634,-3.26266 -1.227548,-5.19862 -0.264319,-2.61171 0.723429,-7.31763 1.992244,-9.49167 0.689548,-1.18151 2.593572,-2.95487 3.074129,-2.86331 z m 74.182586,8.48643 c -1.76515,0.007 -3.53479,0.17005 -3.6903,0.42165 -0.19962,0.32301 0.013,2.60123 0.27406,2.93325 0.135,0.1719 0.91077,0.21212 2.526,0.13036 l 2.33148,-0.11886 -0.71583,0.60369 c -0.39344,0.3318 -1.46951,1.0077 -2.39185,1.50163 l -1.67696,0.89788 -0.069,1.07231 c -0.0371,0.59002 -0.0111,1.29929 0.0584,1.57635 0.19339,0.7707 1.10027,0.64445 3.30411,-0.46188 h 9.6e-4 c 2.2291,-1.11902 4.24224,-2.67058 5.1603,-3.97682 0.49059,-0.69806 0.643,-1.1564 0.643,-1.93475 0,-1.45809 -0.77756,-2.11581 -2.93136,-2.48001 -0.70669,-0.11942 -1.76397,-0.16968 -2.82305,-0.16486 z m -27.40367,9.5463 c 0.10755,0.0148 0.23396,0.0946 0.38332,0.21848 0.65588,0.54431 0.068,13.33322 -0.66791,14.52354 -0.20435,0.33062 -0.67171,0.30211 -0.97265,-0.0604 -0.18915,-0.22909 -0.16782,-0.902 0.0901,-2.77322 0.18733,-1.3592 0.40034,-4.50179 0.47338,-6.98388 0.11367,-3.86328 0.22789,-4.99184 0.69378,-4.92455 z m 25.582,0.62863 c -1.58613,0 -1.63099,0.0551 -1.63099,1.97115 0,1.50775 -0.1834,1.41737 3.27921,1.60798 2.13615,0.11756 4.91746,0.49652 6.72513,0.91611 0.71629,0.16634 0.68158,0.1834 -0.58358,0.28748 -0.73949,0.0606 -3.13216,0.0388 -5.31744,-0.0489 -3.05547,-0.12258 -4.0126,-0.0979 -4.14356,0.10829 -0.0936,0.14742 -0.17153,0.87799 -0.17338,1.62329 -0.004,1.22878 0.0419,1.36562 0.48586,1.46616 1.38338,0.31348 10.43891,0.40981 12.15086,0.12943 l -9.6e-4,9.5e-4 c 2.19893,-0.36021 3.08689,-0.69224 3.82157,-1.42686 1.05302,-1.05298 0.98786,-1.82412 -0.25681,-3.03389 -1.21869,-1.18439 -3.39151,-2.11609 -6.31404,-2.70712 -2.46622,-0.49867 -6.02408,-0.89404 -8.0418,-0.89404 z m -1.58977,10.43937 c -0.7696,0 -0.88117,0.2331 -0.96881,2.03921 l -0.0508,1.06081 1.94432,0.5213 c 1.96185,0.52603 2.81884,0.91109 1.44413,0.64875 -0.40887,-0.0784 -1.40495,-0.20363 -2.21362,-0.27886 l -1.46999,-0.13611 -0.1591,0.84518 c -0.0872,0.46478 -0.16727,1.18713 -0.17821,1.60511 l -0.0202,0.75991 1.3914,0.27599 c 3.42302,0.6807 7.45185,0.79424 8.88318,0.2501 0.89614,-0.34074 1.3367,-0.82677 1.49011,-1.64438 0.289,-1.5407 -0.84437,-2.89826 -3.39132,-4.06115 -1.76995,-0.80812 -5.6003,-1.88589 -6.70118,-1.88589 z m -1.4719,8.11369 c -0.52295,-0.0276 -0.71814,0.42802 -0.94966,1.43261 -0.30623,1.32884 -0.30126,1.40559 0.10533,1.69613 0.23423,0.16726 0.99487,0.70134 1.6904,1.18635 0.69554,0.48503 1.22032,0.92622 1.16621,0.98031 -0.054,0.054 -0.71343,-0.1515 -1.46519,-0.4571 -2.02259,-0.82187 -2.23089,-0.77535 -2.66591,0.60467 -0.57754,1.83213 -0.56489,1.85835 1.63769,3.2974 3.75333,2.45223 8.26359,6.365 7.59429,6.58812 -0.56819,0.18942 -5.09704,-2.47202 -8.10984,-4.76548 -0.92394,-0.70338 -1.86177,-1.27833 -2.08424,-1.27833 -0.46418,0 -1.3617,1.64874 -1.3617,2.50204 0,0.62401 1.16367,1.61447 4.39079,3.73822 4.10503,2.70151 8.36542,4.31592 10.13563,3.84171 1.04336,-0.27951 1.62118,-2.56908 1.0493,-4.15794 -0.4906,-1.36305 -1.459,-2.66238 -3.37215,-4.52688 l -1.7019,-1.65876 0.51268,-0.55388 c 0.40085,-0.43257 0.51267,-0.79792 0.51267,-1.67505 0,-1.99213 -1.55726,-3.78853 -5.09798,-5.88187 -0.97512,-0.5765 -1.57978,-0.89072 -1.98649,-0.91227 z m -26.83349,7.39497 c 0.11497,0.004 0.23072,0.0794 0.36126,0.20986 0.34857,0.34856 0.34657,0.43642 -0.0297,1.51407 -1.77908,5.09283 -5.91023,10.99255 -10.19311,14.55707 -1.27916,1.06463 -1.3533,1.10172 -1.83701,0.90653 -0.61027,-0.24628 -0.18229,-0.94035 1.45656,-2.36117 3.79758,-3.2922 6.86138,-7.59663 8.82089,-12.39236 0.73429,-1.79714 1.07602,-2.44353 1.42111,-2.434 z M 19.080396,230.99707 c 0.01999,-0.006 0.04163,-8.4e-4 0.0642,0.009 0.209319,0.0877 1.652333,0.58976 3.20733,1.11638 11.909925,4.03368 31.035008,7.37918 50.129993,8.76914 1.734407,0.12628 3.667002,0.28418 4.294964,0.35071 l 1.141305,0.12072 v 21.29754 c 0,20.80384 0.01001,21.30715 0.423554,21.72016 0.232517,0.23252 0.745912,0.48104 1.1413,0.55197 0.39546,0.0708 12.300159,0.10143 26.454968,0.0671 l 25.73627,-0.0632 0.52417,-0.60945 0.52514,-0.61042 V 262.6427 241.56937 l 0.7072,-0.10255 c 0.38871,-0.0566 3.00672,-0.25987 5.81767,-0.45326 20.99416,-1.444 40.0485,-5.06064 51.59805,-9.79352 0.36256,-0.14854 0.37844,0.97428 0.32581,22.53181 l -0.0556,22.688 -1.73927,0.73116 c -11.46489,4.8202 -32.29632,8.53687 -55.6755,9.93343 -12.47201,0.74503 -30.07072,0.96299 -42.625778,0.52799 -28.832316,-0.99887 -54.306941,-4.80831 -69.865571,-10.44705 l -2.447454,-0.88641 v -22.72633 c 0,-20.21237 0.01743,-22.49335 0.317186,-22.57492 z m 62.318235,2.72245 h 23.922269 23.92321 v 23.92321 23.92226 H 105.32097 81.398706 v -23.92226 z m 43.940519,1.53323 c -0.86052,-0.004 -1.71872,0.0484 -1.88012,0.15613 -0.52922,0.35406 -12.26586,15.79596 -12.26586,16.13824 0,0.20275 0.0666,0.43527 0.14761,0.51649 0.081,0.081 3.72678,0.12165 8.10123,0.0901 l 7.95363,-0.0575 0.0575,-8.24974 -9.5e-4,9.6e-4 c 0.0447,-6.45542 -0.002,-8.28783 -0.21753,-8.42416 -0.17209,-0.10922 -1.03494,-0.16726 -1.89546,-0.1706 z m -38.108491,0.0306 c -2.099027,0.0111 -3.468525,0.0323 -3.603096,0.0651 l -0.489673,0.11887 v 8.22387 c 0,4.52311 0.0662,8.29145 0.148534,8.37337 0.08178,0.0818 2.356262,0.1222 5.053916,0.0901 l 4.905388,-0.0575 6.577565,-7.83003 c 5.191987,-6.18008 6.566607,-7.94321 6.526777,-8.3724 l -0.0508,-0.5443 -11.091014,-0.0593 c -3.05017,-0.0167 -5.87857,-0.0185 -7.977602,-0.007 z m 25.680701,0 c -1.09796,0.0111 -1.95651,0.0708 -2.1245,0.16096 -0.52634,0.28161 -12.424938,15.75829 -12.424938,16.16123 0,0.54819 0.246168,0.59987 2.854688,0.59987 h 2.56435 l 6.65613,-7.94596 c 5.00943,-5.98005 6.63962,-8.06471 6.58812,-8.42704 -0.0666,-0.4657 -0.16337,-0.48367 -2.95339,-0.54238 -0.40264,-0.009 -0.79449,-0.009 -1.16046,-0.007 z m 0.40918,17.82671 c -0.52516,-0.002 -1.161,0.004 -1.92613,0.0148 l -4.00749,0.0593 -0.0593,3.79763 c -0.0328,2.08903 -0.0111,3.92465 0.0469,4.0784 0.14835,0.3866 7.73886,0.40354 8.12422,0.0185 l 9.6e-4,9.5e-4 c 0.30126,-0.30125 0.37119,-7.27466 0.0777,-7.73707 -0.10069,-0.15873 -0.6813,-0.22668 -2.25673,-0.23191 z m -30.07341,0.0738 -0.06036,3.79859 c -0.03282,2.08904 -0.01094,3.92662 0.04983,4.08318 0.08549,0.22258 0.928177,0.27176 3.865663,0.2252 l 3.756419,-0.0605 v -4.02281 -4.02379 h -3.806255 z m 11.743603,0 -0.05941,3.79859 c -0.03282,2.08904 -0.01187,3.92584 0.04888,4.08222 0.08567,0.22306 0.988785,0.27167 4.192433,0.22519 l 4.082224,-0.0584 v -4.02377 -4.02379 h -4.132051 z m 24.793327,0 -0.0605,3.79859 c -0.0328,2.08904 -0.0111,3.92662 0.0499,4.08318 0.0855,0.22258 0.92817,0.27176 3.86565,0.2252 l 3.75643,-0.0605 v -4.02281 -4.02379 h -3.80625 z m -6.46352,9.06045 c -0.52516,-0.002 -1.161,0.004 -1.92613,0.0148 l -4.00749,0.0593 -0.0593,3.79763 c -0.0328,2.08904 -0.0111,3.92466 0.0469,4.0784 0.0818,0.21372 1.0505,0.27884 4.11385,0.27884 3.4532,0 4.02502,-0.0473 4.13878,-0.344 l 9.5e-4,9.5e-4 c 0.1976,-0.51489 0.15261,-7.33373 -0.0508,-7.6537 -0.10069,-0.15854 -0.6813,-0.22669 -2.25673,-0.2319 z m -30.07341,0.0738 -0.06036,3.79858 c -0.03282,2.08903 -0.01094,3.92662 0.04983,4.0832 0.08549,0.22256 0.928177,0.27174 3.865663,0.22519 l 3.756419,-0.0605 v -4.02282 -4.02377 h -3.806255 z m 11.743603,0 -0.05941,3.79858 c -0.03282,2.08903 -0.01187,3.92588 0.04888,4.08224 0.08567,0.22308 0.988785,0.27166 4.192433,0.22519 l 4.082224,-0.0584 v -4.02379 -4.02377 h -4.132051 z m 24.793327,0 -0.0605,3.79858 c -0.0328,2.08903 -0.0111,3.92662 0.0499,4.0832 0.0855,0.22256 0.92817,0.27174 3.86565,0.22519 l 3.75643,-0.0605 v -4.02282 -4.02377 h -3.80625 z m -6.46352,9.06045 c -0.52516,-0.002 -1.161,0.004 -1.92613,0.0148 l -4.00749,0.0593 -0.0593,3.79763 c -0.0328,2.089 -0.0111,3.92463 0.0469,4.07838 0.0818,0.2137 1.0505,0.27886 4.11385,0.27886 3.4532,0 4.02502,-0.0473 4.13878,-0.34402 l 9.5e-4,9.6e-4 c 0.1976,-0.51488 0.15261,-7.33374 -0.0508,-7.65371 -0.10069,-0.15855 -0.6813,-0.22668 -2.25673,-0.23189 z m -30.07341,0.0738 -0.06036,3.79857 c -0.03282,2.08902 -0.01094,3.92662 0.04983,4.08319 0.08549,0.22258 0.928177,0.27081 3.865663,0.22425 l 3.756419,-0.0593 v -4.02283 -4.02377 h -3.806255 z m 11.743603,0 -0.05941,3.79857 c -0.03282,2.08902 -0.01187,3.92586 0.04888,4.08224 0.08567,0.22306 0.988785,0.27167 4.192433,0.2252 l 4.082224,-0.0584 v -4.02377 -4.02377 h -4.132051 z m 24.793327,0 -0.0605,3.79857 c -0.0328,2.08902 -0.0111,3.92662 0.0499,4.08319 0.0855,0.22258 0.92817,0.27081 3.86565,0.22425 l 3.75643,-0.0593 v -4.02283 -4.02377 h -3.80625 z"
       id="path7594"
       inkscape:connector-curvature="0"
       sodipodi:nodetypes="cssccccccccscccccsscccccccccccccccccsccsccccccsscccccccccsccccccccccccccccccscccccccccccccscccsccccccccccccccccccccccccccccccccccscccccccccccsscccccscccccccccccccscccccccccscccccccsscccccccccscscsscccccccccccsccccccccscccccccsccccccccscccccsccccccccccccsccccccccccccccccscccccccccccccccccccccccccccccccccccccccccsccccccccccccsccccccccccccccccccccccccccccccccccccccccssccccccsccccccccccccccccccsccccccccccccccscccscccccccccccccscccccccccccscccccccccccssccccccccccccccccccccccccccccccccccccccccccccccccscccccccccccccccccccccccccccccccccccccscccccccccccccccccccccccccccccccc" />
  </g>
</svg>
