<?xml version="1.0" encoding="UTF-8" standalone="no"?>
<!-- Created with Inkscape (http://www.inkscape.org/) -->

<svg
   xmlns:dc="http://purl.org/dc/elements/1.1/"
   xmlns:cc="http://creativecommons.org/ns#"
   xmlns:rdf="http://www.w3.org/1999/02/22-rdf-syntax-ns#"
   xmlns:svg="http://www.w3.org/2000/svg"
   xmlns="http://www.w3.org/2000/svg"
   xmlns:sodipodi="http://sodipodi.sourceforge.net/DTD/sodipodi-0.dtd"
   xmlns:inkscape="http://www.inkscape.org/namespaces/inkscape"
   width="297mm"
   height="210mm"
   viewBox="0 0 297 210"
   version="1.1"
   id="SVGRoot"
   inkscape:version="0.92.4 (33fec40, 2019-01-16)"
   sodipodi:docname="hartjes.svg">
  <defs
     id="defs1517" />
  <sodipodi:namedview
     id="base"
     pagecolor="#ffffff"
     bordercolor="#666666"
     borderopacity="1.0"
     inkscape:pageopacity="0.0"
     inkscape:pageshadow="2"
     inkscape:zoom="0.7"
     inkscape:cx="348.475"
     inkscape:cy="559.52383"
     inkscape:document-units="mm"
     inkscape:current-layer="layer1"
     showgrid="false"
     inkscape:window-width="1853"
     inkscape:window-height="1025"
     inkscape:window-x="67"
     inkscape:window-y="27"
     inkscape:window-maximized="1" />
  <metadata
     id="metadata1520">
    <rdf:RDF>
      <cc:Work
         rdf:about="">
        <dc:format>image/svg+xml</dc:format>
        <dc:type
           rdf:resource="http://purl.org/dc/dcmitype/StillImage" />
        <dc:title></dc:title>
      </cc:Work>
    </rdf:RDF>
  </metadata>
  <g
     inkscape:label="Laag 1"
     inkscape:groupmode="layer"
     id="layer1">
    <g
       id="g4861"
       transform="translate(-18.331991,-110.54535)">
      <g
         transform="translate(-19.087798,-89.013393)"
         id="g4694">
        <path
           inkscape:connector-curvature="0"
           style="fill:none;stroke:#ff0000;stroke-width:0.99999994px;stroke-linecap:butt;stroke-linejoin:miter;stroke-opacity:1"
           d="m 231.45312,818.92969 c -4.95387,0.14502 -10.31714,3.06107 -15.73828,10.73242 -20.40901,28.8802 40,78.57227 40,78.57227 0,0 60.40901,-49.69203 40,-78.57227 -5.42114,-7.67131 -10.7844,-10.58738 -15.73828,-10.73242 -13.696,-0.40099 -24.26172,20.375 -24.26172,20.375 0,0 -10.56571,-20.77601 -24.26172,-20.375 z m 0.42383,5.01758 a 1.3392857,1.6964285 0 0 1 1.33789,1.69726 1.3392857,1.6964285 0 0 1 -1.33789,1.69727 1.3392857,1.6964285 0 0 1 -1.33984,-1.69727 1.3392857,1.6964285 0 0 1 1.33984,-1.69726 z m 47.67578,0 a 1.3392857,1.6964285 0 0 1 1.33985,1.69726 1.3392857,1.6964285 0 0 1 -1.33985,1.69727 1.3392857,1.6964285 0 0 1 -1.33789,-1.69727 1.3392857,1.6964285 0 0 1 1.33789,-1.69726 z"
           transform="scale(0.26458333)"
           id="path3868" />
        <path
           style="fill:none;stroke:#ff0000;stroke-width:0.26458332px;stroke-linecap:butt;stroke-linejoin:miter;stroke-opacity:1"
           d="m 67.657884,222.06603 c 0,0 2.69308,6.81937 0,4.55941 -2.69308,-2.25996 -2.69308,6.86662 0,4.55941 2.69308,-2.30721 2.69308,6.86662 0,4.55941 -2.69308,-2.30721 0,4.55941 0,4.55941"
           id="path3908"
           inkscape:connector-curvature="0"
           sodipodi:nodetypes="czzzc" />
      </g>
      <g
         id="g4818">
        <g
           id="g4690"
           transform="translate(-18.898809,-88.58817)">
          <g
             transform="translate(-25.607887,-2.0788691)"
             id="text3787-7"
             style="font-style:normal;font-variant:normal;font-weight:normal;font-stretch:normal;font-size:10.58333302px;line-height:1.25;font-family:Karumbi;-inkscape-font-specification:Karumbi;letter-spacing:0px;word-spacing:0px;fill:#0000ff;fill-opacity:1;stroke:none;stroke-width:0.26458332"
             aria-label="Олаф ">
            <path
               inkscape:connector-curvature="0"
               id="path4654"
               style="font-style:normal;font-variant:normal;font-weight:bold;font-stretch:normal;font-size:4.23333311px;font-family:FreeMono;-inkscape-font-specification:'FreeMono Bold';fill:#0000ff;fill-opacity:1;stroke-width:0.26458332"
               d="m 83.772869,224.31906 q 0.09313,0 0.220133,0.0296 0.127,0.0254 0.300567,0.1143 0.1778,0.0889 0.3175,0.22437 0.143933,0.13547 0.2413,0.38523 0.1016,0.24554 0.1016,0.5588 0,0.5207 -0.351367,0.89747 -0.347133,0.37677 -0.829733,0.37677 -0.491067,0 -0.8382,-0.37677 -0.3429,-0.381 -0.3429,-0.91863 0,-0.5334 0.347133,-0.91017 0.347133,-0.381 0.833967,-0.381 z m 0,0.42333 q -0.309034,0 -0.5334,0.25824 -0.224367,0.254 -0.224367,0.6096 0,0.35983 0.220133,0.61806 0.224367,0.254 0.537634,0.254 0.309033,0 0.5334,-0.254 0.224366,-0.254 0.224366,-0.60536 0,-0.36407 -0.224366,-0.6223 -0.220134,-0.25824 -0.5334,-0.25824 z" />
            <path
               inkscape:connector-curvature="0"
               id="path4656"
               style="font-style:normal;font-variant:normal;font-weight:bold;font-stretch:normal;font-size:4.23333311px;font-family:FreeMono;-inkscape-font-specification:'FreeMono Bold';fill:#0000ff;fill-opacity:1;stroke-width:0.26458332"
               d="m 87.505015,226.62623 q 0,0.22013 -0.2794,0.22013 h -0.376767 q -0.283633,0 -0.283633,-0.21167 0,-0.21166 0.258233,-0.21166 v -0.99907 l -0.5969,-0.004 v 1.0033 q 0,0.42333 -0.5715,0.42333 -0.220133,0 -0.381,-0.0974 -0.160866,-0.0974 -0.160866,-0.27093 v -0.22437 q 0,-0.25823 0.211666,-0.25823 0.110067,0 0.156634,0.0593 0.0508,0.055 0.0508,0.19896 v 0.11007 q 0,0.055 0.0381,0.0847 0.0381,0.0296 0.09313,0.0296 0.05503,0 0.09737,-0.0296 0.04233,-0.0339 0.04233,-0.0847 v -0.94403 q -0.258233,0 -0.258233,-0.21167 0,-0.21167 0.283633,-0.21167 h 1.397 q 0.2794,0 0.2794,0.22014 0,0.2032 -0.258234,0.2032 v 1.0033 q 0.258234,0 0.258234,0.2032 z" />
            <path
               inkscape:connector-curvature="0"
               id="path4658"
               style="font-style:normal;font-variant:normal;font-weight:bold;font-stretch:normal;font-size:4.23333311px;font-family:FreeMono;-inkscape-font-specification:'FreeMono Bold';fill:#0000ff;fill-opacity:1;stroke-width:0.26458332"
               d="m 87.757361,226.34259 q 0,-0.28786 0.283634,-0.49953 0.283633,-0.2159 0.740833,-0.2159 0.1905,0 0.440266,0.0423 v -0.0974 q 0,-0.20744 -0.393699,-0.20744 -0.173567,0 -0.3937,0.0508 -0.220134,0.0466 -0.2667,0.0466 -0.0889,0 -0.148167,-0.0593 -0.05927,-0.0635 -0.05927,-0.15663 0,-0.13547 0.127,-0.1778 0.359834,-0.127 0.728134,-0.127 0.389466,0 0.609599,0.1651 0.224367,0.1651 0.224367,0.46143 v 0.85514 h 0.06773 q 0.2794,0 0.2794,0.21166 0,0.21167 -0.2794,0.21167 h -0.4953 v -0.0974 q -0.3175,0.1651 -0.702733,0.1651 -0.313266,0 -0.537633,-0.1651 -0.224367,-0.16933 -0.224367,-0.4064 z m 1.468967,-0.0677 v -0.21167 q -0.2667,-0.0466 -0.4699,-0.0466 -0.2159,0 -0.385233,0.0931 -0.1651,0.0931 -0.1651,0.2159 0,0.072 0.09313,0.11853 0.09313,0.0466 0.2286,0.0466 0.347133,0 0.6985,-0.2159 z" />
            <path
               inkscape:connector-curvature="0"
               id="path4660"
               style="font-style:normal;font-variant:normal;font-weight:bold;font-stretch:normal;font-size:4.23333311px;font-family:FreeMono;-inkscape-font-specification:'FreeMono Bold';fill:#0000ff;fill-opacity:1;stroke-width:0.26458332"
               d="m 91.701174,225.36469 h -0.1016 v 1.016 h 0.1016 q 0.262467,0 0.389467,-0.13546 0.127,-0.1397 0.127,-0.37254 0,-0.18626 -0.148167,-0.34713 -0.148167,-0.16087 -0.3683,-0.16087 z m -0.872067,-1.04986 q 0,-0.21167 0.2794,-0.21167 h 0.491067 v 0.8382 h 0.135467 q 0.3937,0 0.6477,0.27517 0.258233,0.27093 0.258233,0.68156 0,0.38947 -0.262467,0.6477 -0.258233,0.25824 -0.635,0.25824 h -0.143933 v 0.46566 h 0.160867 q 0.1397,0 0.207433,0.0423 0.07197,0.0466 0.07197,0.16933 0,0.21167 -0.2794,0.21167 H 91.10851 q -0.2794,0 -0.2794,-0.21167 0,-0.21167 0.2794,-0.21167 h 0.06773 v -0.46566 h -0.143934 q -0.4064,0 -0.651933,-0.254 -0.245533,-0.254 -0.245533,-0.65194 0,-0.4191 0.232833,-0.6858 0.237067,-0.27093 0.630767,-0.27093 h 0.1778 v -0.41487 h -0.06773 q -0.135466,0 -0.207433,-0.0423 -0.07197,-0.0466 -0.07197,-0.16933 z m 0.245534,1.04986 q -0.220134,0 -0.3683,0.16087 -0.148167,0.16087 -0.148167,0.34713 0,0.23284 0.127,0.37254 0.127,0.13546 0.389467,0.13546 h 0.1016 v -1.016 z" />
          </g>
        </g>
        <g
           id="g4778">
          <g
             id="text4698"
             style="font-style:normal;font-variant:normal;font-weight:normal;font-stretch:normal;font-size:10.58333302px;line-height:1.25;font-family:Sarai;-inkscape-font-specification:Sarai;letter-spacing:0px;word-spacing:0px;fill:#000000;fill-opacity:1;stroke:none;stroke-width:0.26458332"
             transform="rotate(30)"
             aria-label="22/2/2019">
            <path
               id="path4749"
               style="font-size:2.82222223px;fill:#0000ff;fill-opacity:1;stroke-width:0.26458332"
               d="m 107.2866,101.87526 -0.0367,0.15804 -0.8128,0.0113 0.0198,-0.10442 q 0.22296,-0.23425 0.33302,-0.36125 0.22014,-0.26246 0.26247,-0.40075 0.0226,-0.0734 0.0226,-0.14676 0,-0.11853 -0.0847,-0.20038 -0.0847,-0.0818 -0.20602,-0.0818 -0.13547,0 -0.27658,0.15804 l -0.0367,-0.0226 0.0762,-0.19474 q 0.1016,-0.1016 0.32173,-0.1016 0.14394,0 0.25965,0.12136 0.11571,0.11853 0.11571,0.26247 0,0.21166 -0.21167,0.49388 -0.11571,0.15805 -0.37253,0.41487 z"
               inkscape:connector-curvature="0" />
            <path
               id="path4751"
               style="font-size:2.82222223px;fill:#0000ff;fill-opacity:1;stroke-width:0.26458332"
               d="m 108.32289,101.87526 -0.0367,0.15804 -0.8128,0.0113 0.0198,-0.10442 q 0.22295,-0.23425 0.33302,-0.36125 0.22013,-0.26246 0.26246,-0.40075 0.0226,-0.0734 0.0226,-0.14676 0,-0.11853 -0.0847,-0.20038 -0.0847,-0.0818 -0.20603,-0.0818 -0.13546,0 -0.27657,0.15804 l -0.0367,-0.0226 0.0762,-0.19474 q 0.1016,-0.1016 0.32173,-0.1016 0.14393,0 0.25964,0.12136 0.11572,0.11853 0.11572,0.26247 0,0.21166 -0.21167,0.49388 -0.11571,0.15805 -0.37253,0.41487 z"
               inkscape:connector-curvature="0" />
            <path
               id="path4753"
               style="font-size:2.82222223px;fill:#0000ff;fill-opacity:1;stroke-width:0.26458332"
               d="m 109.09388,100.60243 -0.53057,1.45909 -0.0875,-0.0367 0.5334,-1.45908 z"
               inkscape:connector-curvature="0" />
            <path
               id="path4755"
               style="font-size:2.82222223px;fill:#0000ff;fill-opacity:1;stroke-width:0.26458332"
               d="m 110.04819,101.87526 -0.0367,0.15804 -0.8128,0.0113 0.0198,-0.10442 q 0.22295,-0.23425 0.33302,-0.36125 0.22013,-0.26246 0.26247,-0.40075 0.0226,-0.0734 0.0226,-0.14676 0,-0.11853 -0.0847,-0.20038 -0.0847,-0.0818 -0.20602,-0.0818 -0.13547,0 -0.27658,0.15804 l -0.0367,-0.0226 0.0762,-0.19474 q 0.1016,-0.1016 0.32173,-0.1016 0.14394,0 0.25965,0.12136 0.11571,0.11853 0.11571,0.26247 0,0.21166 -0.21167,0.49388 -0.11571,0.15805 -0.37253,0.41487 z"
               inkscape:connector-curvature="0" />
            <path
               id="path4757"
               style="font-size:2.82222223px;fill:#0000ff;fill-opacity:1;stroke-width:0.26458332"
               d="m 110.81919,100.60243 -0.53058,1.45909 -0.0875,-0.0367 0.5334,-1.45908 z"
               inkscape:connector-curvature="0" />
            <path
               id="path4759"
               style="font-size:2.82222223px;fill:#0000ff;fill-opacity:1;stroke-width:0.26458332"
               d="m 111.7735,101.87526 -0.0367,0.15804 -0.8128,0.0113 0.0198,-0.10442 q 0.22296,-0.23425 0.33302,-0.36125 0.22014,-0.26246 0.26247,-0.40075 0.0226,-0.0734 0.0226,-0.14676 0,-0.11853 -0.0847,-0.20038 -0.0847,-0.0818 -0.20602,-0.0818 -0.13547,0 -0.27658,0.15804 l -0.0367,-0.0226 0.0762,-0.19474 q 0.1016,-0.1016 0.32174,-0.1016 0.14393,0 0.25964,0.12136 0.11571,0.11853 0.11571,0.26247 0,0.21166 -0.21166,0.49388 -0.11572,0.15805 -0.37254,0.41487 z"
               inkscape:connector-curvature="0" />
            <path
               id="path4761"
               style="font-size:2.82222223px;fill:#0000ff;fill-opacity:1;stroke-width:0.26458332"
               d="m 112.86058,101.24308 q 0,0.29633 -0.0931,0.50518 -0.12418,0.2794 -0.38382,0.2794 -0.21167,0 -0.32738,-0.23425 -0.0875,-0.18626 -0.0875,-0.42333 0,-0.28505 0.096,-0.51647 0.12418,-0.3048 0.36972,-0.3048 0.23988,0 0.34713,0.24271 0.079,0.17498 0.079,0.45156 z m -0.13829,0.14675 q 0,-0.23424 -0.0621,-0.41204 -0.0875,-0.25118 -0.2794,-0.25118 -0.27657,0 -0.27657,0.48825 0,0.23424 0.0677,0.40075 0.0903,0.23425 0.29069,0.23425 0.25964,0 0.25964,-0.46003 z"
               inkscape:connector-curvature="0" />
            <path
               id="path4763"
               style="font-size:2.82222223px;fill:#0000ff;fill-opacity:1;stroke-width:0.26458332"
               d="m 113.65698,102.0333 -0.1524,0.0395 q 0,-0.0988 0.003,-0.29633 0.003,-0.19756 0.003,-0.29633 v -0.38665 q 0,-0.26529 -0.008,-0.34713 l -0.36688,0.2032 -0.0395,-0.096 0.46003,-0.26529 0.1016,0.0819 z"
               inkscape:connector-curvature="0" />
            <path
               id="path4765"
               style="font-size:2.82222223px;fill:#0000ff;fill-opacity:1;stroke-width:0.26458332"
               d="m 114.91339,101.11326 q 0,0.21449 -0.13828,0.48824 -0.12418,0.24271 -0.29634,0.42051 l -0.26246,0.0649 -0.008,-0.048 q 0.18909,-0.11289 0.33584,-0.29634 0.16087,-0.20038 0.19756,-0.40075 l -0.0113,-0.0113 q -0.18627,0.18626 -0.34996,0.18626 -0.14675,0 -0.254,-0.127 -0.10442,-0.127 -0.10442,-0.27657 0,-0.18909 0.14111,-0.3556 0.14394,-0.16651 0.3302,-0.16651 0.18627,0 0.31045,0.17215 0.11006,0.15522 0.11006,0.34996 z m -0.1524,0.0762 q -0.008,-0.18909 -0.0875,-0.30198 -0.096,-0.13547 -0.27376,-0.13547 -0.23989,0 -0.23989,0.26529 0,0.13547 0.096,0.23707 0.096,0.1016 0.23142,0.1016 0.16087,0 0.27375,-0.16651 z"
               inkscape:connector-curvature="0" />
          </g>
        </g>
      </g>
      <g
         id="g4799">
        <g
           id="g4683"
           transform="matrix(0.78370542,-0.45247253,0.45247253,0.78370542,-108.52636,-8.1917139)">
          <g
             transform="translate(-41.057664,2.031622)"
             id="text3793-1"
             style="font-style:normal;font-variant:normal;font-weight:normal;font-stretch:normal;font-size:10.58333302px;line-height:1.25;font-family:Karumbi;-inkscape-font-specification:Karumbi;letter-spacing:0px;word-spacing:0px;fill:#0000ff;fill-opacity:1;stroke:none;stroke-width:0.26458332"
             aria-label="Андреа">
            <path
               inkscape:connector-curvature="0"
               id="path4663"
               style="font-style:normal;font-variant:normal;font-weight:bold;font-stretch:normal;font-size:4.23333311px;font-family:FreeMono;-inkscape-font-specification:'FreeMono Bold';fill:#0000ff;fill-opacity:1;stroke-width:0.26458332"
               d="m 109.48505,227.63912 q 0,-0.12277 0.072,-0.1651 0.072,-0.0466 0.20744,-0.0466 h 0.0974 l -0.0974,-0.24553 h -1.00754 l -0.0974,0.24553 h 0.0974 q 0.2794,0 0.2794,0.21167 0,0.21166 -0.2794,0.21166 h -0.56303 q -0.2794,0 -0.2794,-0.21166 0,-0.127 0.0762,-0.16934 0.072,-0.0423 0.20743,-0.0423 l 0.65617,-1.62137 h -0.2667 q -0.28363,0 -0.28363,-0.21166 0,-0.127 0.072,-0.16934 0.0762,-0.0423 0.21167,-0.0423 h 0.9144 l 0.84243,2.0447 q 0.28787,0 0.28787,0.21167 0,0.21166 -0.2794,0.21166 h -0.58843 q -0.2794,0 -0.2794,-0.21166 z m 0.10583,-0.88054 -0.3302,-0.8128 -0.33443,0.8128 z" />
            <path
               inkscape:connector-curvature="0"
               id="path4665"
               style="font-style:normal;font-variant:normal;font-weight:bold;font-stretch:normal;font-size:4.23333311px;font-family:FreeMono;-inkscape-font-specification:'FreeMono Bold';fill:#0000ff;fill-opacity:1;stroke-width:0.26458332"
               d="m 111.43919,226.42415 v 0.31327 h 0.74084 v -0.30904 q -0.25824,0 -0.25824,-0.21166 0,-0.1016 0.0762,-0.15664 0.0762,-0.0593 0.2032,-0.0593 h 0.381 q 0.2794,0 0.2794,0.21166 0,0.21167 -0.25823,0.21167 v 1.0033 q 0.25823,0 0.25823,0.2032 0,0.22013 -0.2794,0.22013 h -0.37676 q -0.28364,0 -0.28364,-0.21166 0,-0.21167 0.25824,-0.21167 v -0.26247 h -0.74084 v 0.26247 q 0.25824,0 0.25824,0.2032 0,0.22013 -0.2794,0.22013 h -0.37677 q -0.28363,0 -0.28363,-0.21166 0,-0.21167 0.25823,-0.21167 v -1.0033 q -0.25823,0 -0.25823,-0.21167 0,-0.0847 0.0762,-0.14816 0.0762,-0.0635 0.20743,-0.0635 h 0.37253 q 0.28364,0.004 0.28364,0.2159 0,0.20743 -0.25824,0.20743 z" />
            <path
               inkscape:connector-curvature="0"
               id="path4667"
               style="font-style:normal;font-variant:normal;font-weight:bold;font-stretch:normal;font-size:4.23333311px;font-family:FreeMono;-inkscape-font-specification:'FreeMono Bold';fill:#0000ff;fill-opacity:1;stroke-width:0.26458332"
               d="m 114.13841,227.42745 h 0.65193 v -0.99907 l -0.5969,-0.004 v 0.82127 q 0,0.14393 -0.055,0.18203 z m -0.6985,0.8128 q -0.13124,0 -0.17357,-0.0762 -0.0381,-0.072 -0.0381,-0.2032 v -0.5334 h 0.4191 q 0.0466,0 0.0847,-0.0593 0.0381,-0.0635 0.0381,-0.12276 v -0.82127 q -0.25824,0 -0.25824,-0.21167 0,-0.21166 0.28364,-0.21166 h 1.397 q 0.2794,0 0.2794,0.22013 0,0.2032 -0.25824,0.2032 v 1.0033 h 0.23707 v 0.5334 q 0,0.13547 -0.0423,0.20743 -0.0423,0.072 -0.16934,0.072 -0.21166,0 -0.21166,-0.2794 v -0.11007 h -1.37584 v 0.11007 q 0,0.2794 -0.21166,0.2794 z" />
            <path
               inkscape:connector-curvature="0"
               id="path4669"
               style="font-style:normal;font-variant:normal;font-weight:bold;font-stretch:normal;font-size:4.23333311px;font-family:FreeMono;-inkscape-font-specification:'FreeMono Bold';fill:#0000ff;fill-opacity:1;stroke-width:0.26458332"
               d="m 115.61842,226.21248 q 0,-0.21166 0.2794,-0.21166 h 0.49107 v 0.1905 q 0.28786,-0.24554 0.6477,-0.24554 0.4445,0 0.7366,0.27517 0.29633,0.27093 0.29633,0.68157 0,0.38946 -0.2921,0.6477 -0.2921,0.25823 -0.73237,0.25823 -0.34713,0 -0.65616,-0.23707 v 0.70274 h 0.24553 q 0.1397,0 0.20743,0.0423 0.072,0.0466 0.072,0.16933 0,0.21167 -0.2794,0.21167 h -0.7366 q -0.2794,0 -0.2794,-0.21167 0,-0.21166 0.2794,-0.21166 h 0.0677 v -1.84997 h -0.0677 q -0.13547,0 -0.20743,-0.0423 -0.072,-0.0466 -0.072,-0.16934 z m 1.84997,1.0287 q 0.1778,-0.14393 0.1778,-0.36406 0,-0.22014 -0.17357,-0.36407 -0.17357,-0.14393 -0.45297,-0.14393 -0.28363,0 -0.4572,0.14393 -0.17356,0.14393 -0.17356,0.35983 0,0.22437 0.17356,0.3683 0.1778,0.14394 0.4572,0.14394 0.27517,0 0.44874,-0.14394 z" />
            <path
               inkscape:connector-curvature="0"
               id="path4671"
               style="font-style:normal;font-variant:normal;font-weight:bold;font-stretch:normal;font-size:4.23333311px;font-family:FreeMono;-inkscape-font-specification:'FreeMono Bold';fill:#0000ff;fill-opacity:1;stroke-width:0.26458332"
               d="m 120.4851,227.56715 q 0,0.13547 -0.24554,0.22437 -0.24553,0.0847 -0.46143,0.10583 -0.21167,0.0212 -0.36407,0.0212 -0.49106,0 -0.80433,-0.27517 -0.31327,-0.27517 -0.31327,-0.70697 0,-0.4191 0.31327,-0.70273 0.3175,-0.28787 0.77893,-0.28787 0.47414,0 0.78317,0.28787 0.31327,0.28787 0.31327,0.7239 v 0.1651 h -1.7272 q 0.14393,0.37253 0.69426,0.37253 0.22437,0 0.49954,-0.0677 0.27516,-0.072 0.3302,-0.072 0.0847,0 0.14393,0.0635 0.0593,0.0593 0.0593,0.14817 z m -1.7145,-0.81703 h 1.2446 q -0.0508,-0.17357 -0.22014,-0.27517 -0.16933,-0.10583 -0.40216,-0.10583 -0.23284,0 -0.4064,0.10583 -0.16934,0.10583 -0.2159,0.27517 z" />
            <path
               inkscape:connector-curvature="0"
               id="path4673"
               style="font-style:normal;font-variant:normal;font-weight:bold;font-stretch:normal;font-size:4.23333311px;font-family:FreeMono;-inkscape-font-specification:'FreeMono Bold';fill:#0000ff;fill-opacity:1;stroke-width:0.26458332"
               d="m 120.87291,227.34702 q 0,-0.28787 0.28363,-0.49954 0.28364,-0.2159 0.74084,-0.2159 0.1905,0 0.44026,0.0423 v -0.0974 q 0,-0.20743 -0.3937,-0.20743 -0.17356,0 -0.3937,0.0508 -0.22013,0.0466 -0.2667,0.0466 -0.0889,0 -0.14816,-0.0593 -0.0593,-0.0635 -0.0593,-0.15664 0,-0.13546 0.127,-0.1778 0.35983,-0.127 0.72813,-0.127 0.38947,0 0.6096,0.1651 0.22437,0.1651 0.22437,0.46144 v 0.85513 h 0.0677 q 0.2794,0 0.2794,0.21167 0,0.21166 -0.2794,0.21166 h -0.4953 v -0.0974 q -0.3175,0.1651 -0.70273,0.1651 -0.31327,0 -0.53763,-0.1651 -0.22437,-0.16934 -0.22437,-0.4064 z m 1.46897,-0.0677 v -0.21166 q -0.2667,-0.0466 -0.4699,-0.0466 -0.2159,0 -0.38524,0.0931 -0.1651,0.0931 -0.1651,0.2159 0,0.072 0.0931,0.11854 0.0931,0.0466 0.2286,0.0466 0.34713,0 0.6985,-0.2159 z" />
          </g>
        </g>
        <g
           id="g4747">
          <g
             id="text4698-4"
             style="font-style:normal;font-variant:normal;font-weight:normal;font-stretch:normal;font-size:10.58333302px;line-height:1.25;font-family:Sarai;-inkscape-font-specification:Sarai;letter-spacing:0px;word-spacing:0px;fill:#000000;fill-opacity:1;stroke:none;stroke-width:0.26458332"
             transform="rotate(-30)"
             aria-label="22/2/2019">
            <path
               id="path4718"
               style="font-size:2.82222223px;fill:#0000ff;fill-opacity:1;stroke-width:0.26458332"
               d="m -26.388306,149.51748 -0.03669,0.15805 -0.8128,0.0113 0.01976,-0.10442 q 0.222955,-0.23425 0.333022,-0.36125 0.220133,-0.26247 0.262467,-0.40075 0.02258,-0.0734 0.02258,-0.14676 0,-0.11853 -0.08467,-0.20038 -0.08467,-0.0818 -0.206022,-0.0818 -0.135467,0 -0.276578,0.15804 l -0.03669,-0.0226 0.0762,-0.19473 q 0.1016,-0.1016 0.321733,-0.1016 0.143934,0 0.259645,0.12136 0.115711,0.11853 0.115711,0.26246 0,0.21167 -0.211667,0.49389 -0.115711,0.15805 -0.372533,0.41487 z"
               inkscape:connector-curvature="0" />
            <path
               id="path4720"
               style="font-size:2.82222223px;fill:#0000ff;fill-opacity:1;stroke-width:0.26458332"
               d="m -25.352021,149.51748 -0.03669,0.15805 -0.8128,0.0113 0.01975,-0.10442 q 0.222956,-0.23425 0.333023,-0.36125 0.220133,-0.26247 0.262466,-0.40075 0.02258,-0.0734 0.02258,-0.14676 0,-0.11853 -0.08467,-0.20038 -0.08467,-0.0818 -0.206022,-0.0818 -0.135466,0 -0.276578,0.15804 l -0.03669,-0.0226 0.0762,-0.19473 q 0.1016,-0.1016 0.321733,-0.1016 0.143933,0 0.259644,0.12136 0.115711,0.11853 0.115711,0.26246 0,0.21167 -0.211666,0.49389 -0.115711,0.15805 -0.372534,0.41487 z"
               inkscape:connector-curvature="0" />
            <path
               id="path4722"
               style="font-size:2.82222223px;fill:#0000ff;fill-opacity:1;stroke-width:0.26458332"
               d="m -24.581025,148.24466 -0.530578,1.45909 -0.08749,-0.0367 0.5334,-1.45909 z"
               inkscape:connector-curvature="0" />
            <path
               id="path4724"
               style="font-size:2.82222223px;fill:#0000ff;fill-opacity:1;stroke-width:0.26458332"
               d="m -23.626717,149.51748 -0.03669,0.15805 -0.8128,0.0113 0.01975,-0.10442 q 0.222956,-0.23425 0.333023,-0.36125 0.220133,-0.26247 0.262466,-0.40075 0.02258,-0.0734 0.02258,-0.14676 0,-0.11853 -0.08467,-0.20038 -0.08467,-0.0818 -0.206022,-0.0818 -0.135467,0 -0.276578,0.15804 l -0.03669,-0.0226 0.0762,-0.19473 q 0.1016,-0.1016 0.321734,-0.1016 0.143933,0 0.259644,0.12136 0.115711,0.11853 0.115711,0.26246 0,0.21167 -0.211666,0.49389 -0.115711,0.15805 -0.372534,0.41487 z"
               inkscape:connector-curvature="0" />
            <path
               id="path4726"
               style="font-size:2.82222223px;fill:#0000ff;fill-opacity:1;stroke-width:0.26458332"
               d="m -22.855722,148.24466 -0.530578,1.45909 -0.08749,-0.0367 0.5334,-1.45909 z"
               inkscape:connector-curvature="0" />
            <path
               id="path4728"
               style="font-size:2.82222223px;fill:#0000ff;fill-opacity:1;stroke-width:0.26458332"
               d="m -21.901414,149.51748 -0.03669,0.15805 -0.8128,0.0113 0.01976,-0.10442 q 0.222956,-0.23425 0.333022,-0.36125 0.220134,-0.26247 0.262467,-0.40075 0.02258,-0.0734 0.02258,-0.14676 0,-0.11853 -0.08467,-0.20038 -0.08467,-0.0818 -0.206022,-0.0818 -0.135467,0 -0.276578,0.15804 l -0.03669,-0.0226 0.0762,-0.19473 q 0.1016,-0.1016 0.321733,-0.1016 0.143934,0 0.259645,0.12136 0.115711,0.11853 0.115711,0.26246 0,0.21167 -0.211667,0.49389 -0.115711,0.15805 -0.372533,0.41487 z"
               inkscape:connector-curvature="0" />
            <path
               id="path4730"
               style="font-size:2.82222223px;fill:#0000ff;fill-opacity:1;stroke-width:0.26458332"
               d="m -20.814329,148.88531 q 0,0.29633 -0.09313,0.50517 -0.124178,0.2794 -0.383822,0.2794 -0.211667,0 -0.327378,-0.23424 -0.08749,-0.18627 -0.08749,-0.42333 0,-0.28505 0.09596,-0.51647 0.124177,-0.3048 0.369711,-0.3048 0.239889,0 0.347133,0.24271 0.07902,0.17498 0.07902,0.45156 z m -0.138289,0.14675 q 0,-0.23424 -0.06209,-0.41204 -0.08749,-0.25118 -0.2794,-0.25118 -0.276577,0 -0.276577,0.48824 0,0.23425 0.06773,0.40076 0.09031,0.23424 0.290689,0.23424 0.259644,0 0.259644,-0.46002 z"
               inkscape:connector-curvature="0" />
            <path
               id="path4732"
               style="font-size:2.82222223px;fill:#0000ff;fill-opacity:1;stroke-width:0.26458332"
               d="m -20.017933,149.67553 -0.1524,0.0395 q 0,-0.0988 0.0028,-0.29633 0.0028,-0.19756 0.0028,-0.29634 v -0.38664 q 0,-0.26529 -0.0085,-0.34713 l -0.366889,0.2032 -0.03951,-0.096 0.460022,-0.26529 0.1016,0.0819 z"
               inkscape:connector-curvature="0" />
            <path
               id="path4734"
               style="font-size:2.82222223px;fill:#0000ff;fill-opacity:1;stroke-width:0.26458332"
               d="m -18.761515,148.75548 q 0,0.21449 -0.138289,0.48825 -0.124178,0.24271 -0.296334,0.42051 l -0.262466,0.0649 -0.0085,-0.048 q 0.189089,-0.11289 0.335845,-0.29633 0.160866,-0.20038 0.197555,-0.40076 l -0.01129,-0.0113 q -0.186266,0.18626 -0.349955,0.18626 -0.146756,0 -0.254,-0.127 -0.104423,-0.127 -0.104423,-0.27658 0,-0.18908 0.141112,-0.3556 0.143933,-0.16651 0.3302,-0.16651 0.186266,0 0.310444,0.17216 0.110067,0.15522 0.110067,0.34995 z m -0.1524,0.0762 q -0.0085,-0.18908 -0.08749,-0.30197 -0.09596,-0.13547 -0.273756,-0.13547 -0.239889,0 -0.239889,0.26529 0,0.13547 0.09596,0.23707 0.09596,0.1016 0.231422,0.1016 0.160867,0 0.273756,-0.16652 z"
               inkscape:connector-curvature="0" />
          </g>
        </g>
      </g>
    </g>
  </g>
</svg>
