<?xml version="1.0" encoding="UTF-8" standalone="no"?>
<!-- Created with Inkscape (http://www.inkscape.org/) -->

<svg
   xmlns:dc="http://purl.org/dc/elements/1.1/"
   xmlns:cc="http://creativecommons.org/ns#"
   xmlns:rdf="http://www.w3.org/1999/02/22-rdf-syntax-ns#"
   xmlns:svg="http://www.w3.org/2000/svg"
   xmlns="http://www.w3.org/2000/svg"
   xmlns:sodipodi="http://sodipodi.sourceforge.net/DTD/sodipodi-0.dtd"
   xmlns:inkscape="http://www.inkscape.org/namespaces/inkscape"
   id="svg8"
   version="1.1"
   viewBox="0 0 210 297"
   height="297mm"
   width="210mm"
   inkscape:version="0.92.4 (33fec40, 2019-01-16)"
   sodipodi:docname="hartjes.svg">
  <defs
     id="defs2" />
  <sodipodi:namedview
     id="base"
     pagecolor="#ffffff"
     bordercolor="#666666"
     borderopacity="1.0"
     inkscape:pageopacity="0.0"
     inkscape:pageshadow="2"
     inkscape:zoom="0.7"
     inkscape:cx="599.00618"
     inkscape:cy="146.46985"
     inkscape:document-units="mm"
     inkscape:current-layer="layer1"
     showgrid="false"
     inkscape:window-width="1613"
     inkscape:window-height="995"
     inkscape:window-x="67"
     inkscape:window-y="27"
     inkscape:window-maximized="1" />
  <metadata
     id="metadata5">
    <rdf:RDF>
      <cc:Work
         rdf:about="">
        <dc:format>image/svg+xml</dc:format>
        <dc:type
           rdf:resource="http://purl.org/dc/dcmitype/StillImage" />
        <dc:title></dc:title>
      </cc:Work>
    </rdf:RDF>
  </metadata>
  <g
     inkscape:label="Layer 1"
     inkscape:groupmode="layer"
     id="layer1">
    <path
       style="fill:none;stroke:#000000;stroke-width:0.26458332px;stroke-linecap:butt;stroke-linejoin:miter;stroke-opacity:1"
       d="m 25.813763,60.161555 c 0,0 31.661042,-4.009043 19.962801,-15.902537 -11.698241,-11.893494 38.34278,-12.027129 25.040922,0 -13.301858,12.027129 35.402814,14.833459 25.040922,0 -10.361893,-14.833459 30.920852,-6.548103 30.920852,-6.548103"
       id="path3732"
       inkscape:connector-curvature="0"
       sodipodi:nodetypes="czzzc" />
    <path
       style="fill:none;stroke:#000000;stroke-width:0.99999994px;stroke-linecap:butt;stroke-linejoin:miter;stroke-opacity:1"
       d="M 231.45312 818.92969 C 226.49925 819.07471 221.13598 821.99076 215.71484 829.66211 C 195.30583 858.54231 255.71484 908.23438 255.71484 908.23438 C 255.71484 908.23438 316.12385 858.54235 295.71484 829.66211 C 290.2937 821.9908 284.93044 819.07473 279.97656 818.92969 C 266.28056 818.5287 255.71484 839.30469 255.71484 839.30469 C 255.71484 839.30469 245.14913 818.52868 231.45312 818.92969 z M 231.87695 823.94727 A 1.3392857 1.6964285 0 0 1 233.21484 825.64453 A 1.3392857 1.6964285 0 0 1 231.87695 827.3418 A 1.3392857 1.6964285 0 0 1 230.53711 825.64453 A 1.3392857 1.6964285 0 0 1 231.87695 823.94727 z M 279.55273 823.94727 A 1.3392857 1.6964285 0 0 1 280.89258 825.64453 A 1.3392857 1.6964285 0 0 1 279.55273 827.3418 A 1.3392857 1.6964285 0 0 1 278.21484 825.64453 A 1.3392857 1.6964285 0 0 1 279.55273 823.94727 z "
       transform="scale(0.26458333)"
       id="path3868" />
    <path
       style="fill:none;stroke:#000000;stroke-width:0.26458332px;stroke-linecap:butt;stroke-linejoin:miter;stroke-opacity:1"
       d="m 67.657884,222.06603 c 0,0 2.69308,6.81937 0,4.55941 -2.69308,-2.25996 -2.69308,6.86662 0,4.55941 2.69308,-2.30721 2.69308,6.86662 0,4.55941 -2.69308,-2.30721 0,4.55941 0,4.55941"
       id="path3908"
       inkscape:connector-curvature="0"
       sodipodi:nodetypes="czzzc" />
    <flowRoot
       xml:space="preserve"
       id="flowRoot3910"
       style="font-style:normal;font-weight:normal;font-size:40px;line-height:1.25;font-family:sans-serif;letter-spacing:0px;word-spacing:0px;fill:#000000;fill-opacity:1;stroke:none"
       transform="scale(0.26458333)"><flowRegion
         id="flowRegion3912"><rect
           id="rect3914"
           width="137.38075"
           height="42.426407"
           x="238.396"
           y="720.47894" /></flowRegion><flowPara
         id="flowPara3916">Ola</flowPara></flowRoot>    <text
       xml:space="preserve"
       style="font-style:normal;font-weight:normal;font-size:10.58333302px;line-height:1.25;font-family:sans-serif;letter-spacing:0px;word-spacing:0px;fill:#000000;fill-opacity:1;stroke:none;stroke-width:0.26458332"
       x="74.434563"
       y="196.90755"
       id="text3920"><tspan
         sodipodi:role="line"
         id="tspan3918"
         x="74.434563"
         y="196.90755"
         style="stroke-width:0.26458332">Olaf</tspan><tspan
         sodipodi:role="line"
         x="74.434563"
         y="210.13672"
         style="stroke-width:0.26458332"
         id="tspan3922" /></text>
    <text
       xml:space="preserve"
       style="font-style:normal;font-weight:normal;font-size:10.58333302px;line-height:1.25;font-family:sans-serif;letter-spacing:0px;word-spacing:0px;fill:#000000;fill-opacity:1;stroke:none;stroke-width:0.26458332"
       x="69.222809"
       y="205.86108"
       id="text3926"><tspan
         sodipodi:role="line"
         id="tspan3924"
         x="69.222809"
         y="205.86108"
         style="stroke-width:0.26458332">Andrea</tspan></text>
  </g>
</svg>
