<?xml version="1.0" encoding="UTF-8" standalone="no"?>
<!-- Created with Inkscape (http://www.inkscape.org/) -->

<svg
   xmlns:dc="http://purl.org/dc/elements/1.1/"
   xmlns:cc="http://creativecommons.org/ns#"
   xmlns:rdf="http://www.w3.org/1999/02/22-rdf-syntax-ns#"
   xmlns:svg="http://www.w3.org/2000/svg"
   xmlns="http://www.w3.org/2000/svg"
   xmlns:sodipodi="http://sodipodi.sourceforge.net/DTD/sodipodi-0.dtd"
   xmlns:inkscape="http://www.inkscape.org/namespaces/inkscape"
   width="420mm"
   height="297mm"
   viewBox="0 0 420 297"
   version="1.1"
   id="SVGRoot"
   inkscape:version="0.92.2 (5c3e80d, 2017-08-06)"
   sodipodi:docname="standaard bovenkant kleinerder.svg">
  <sodipodi:namedview
     id="base"
     pagecolor="#ffffff"
     bordercolor="#666666"
     borderopacity="1.0"
     inkscape:pageopacity="0.0"
     inkscape:pageshadow="2"
     inkscape:zoom="0.49497475"
     inkscape:cx="1141.1694"
     inkscape:cy="949.26631"
     inkscape:document-units="mm"
     inkscape:current-layer="layer1"
     showgrid="false"
     inkscape:window-width="1920"
     inkscape:window-height="986"
     inkscape:window-x="-11"
     inkscape:window-y="-11"
     inkscape:window-maximized="1" />
  <defs
     id="defs2089" />
  <metadata
     id="metadata2092">
    <rdf:RDF>
      <cc:Work
         rdf:about="">
        <dc:format>image/svg+xml</dc:format>
        <dc:type
           rdf:resource="http://purl.org/dc/dcmitype/StillImage" />
        <dc:title />
      </cc:Work>
    </rdf:RDF>
  </metadata>
  <g
     id="layer1"
     inkscape:groupmode="layer"
     inkscape:label="Layer 1">
    <path
       style="fill:#8b0000;fill-opacity:1;stroke:#ff0000;stroke-width:0.37795275;stroke-miterlimit:4;stroke-dasharray:none;stroke-opacity:1"
       d="M 0.18945312 0.18945312 L 0.18945312 189.16602 L 0.18945312 960.1875 L 340.34766 960.1875 L 340.34766 189.16602 L 378.14258 189.16602 L 378.14258 1134.0469 L 718.29883 1134.0469 L 718.29883 189.16602 L 756.0957 189.16602 L 756.0957 960.1875 L 1096.252 960.1875 L 1096.252 189.16602 L 1134.0469 189.16602 L 1134.0469 1134.0469 L 1474.2051 1134.0469 L 1474.2051 189.16602 L 1512 189.16602 L 1512 960.1875 L 1852.1582 960.1875 L 1852.1582 189.16602 L 1852.1582 0.18945312 L 0.18945312 0.18945312 z M 108.14258 18.904297 C 112.70832 19.03358 117.14632 21.104029 120.20703 26.041016 C 128.98943 30.500476 122.36033 54.566024 119.92383 36.339844 C 118.82953 13.346563 81.251289 28.262369 99.431641 39.777344 C 103.19568 22.155771 116.0639 51.195864 97.324219 45.205078 C 79.597223 35.603038 94.445334 18.516447 108.14258 18.904297 z M 1744.2012 18.904297 C 1757.8984 18.516447 1772.7485 35.603038 1755.0215 45.205078 C 1736.2818 51.195864 1749.15 22.155772 1752.9141 39.777344 C 1771.0944 28.262369 1733.5162 13.346563 1732.4219 36.339844 C 1729.9852 54.566023 1723.3543 30.500476 1732.1367 26.041016 C 1735.1974 21.104029 1739.6354 19.03358 1744.2012 18.904297 z M 552.09766 24.849609 C 555.48238 24.801821 558.83675 26.850078 562.20312 32.447266 C 590.13538 43.841014 577.75073 73.570397 555.96875 79.765625 C 554.21335 92.015459 555.19571 153.75311 548.08789 102.72461 C 556.75095 72.93226 511.31552 68.110985 528.83008 40.148438 C 537.05305 35.207729 544.65127 24.954743 552.09766 24.849609 z M 930.05273 24.849609 C 933.43746 24.801821 936.79183 26.850078 940.1582 32.447266 C 968.09046 43.841013 955.70581 73.570397 933.92383 79.765625 C 932.16843 92.015459 933.14883 153.75311 926.04102 102.72461 C 934.70407 72.93226 889.2706 68.110984 906.78516 40.148438 C 915.00813 35.207729 922.60635 24.954743 930.05273 24.849609 z M 1308.0039 24.849609 C 1311.3886 24.801821 1314.743 26.850078 1318.1094 32.447266 C 1346.0416 43.841012 1333.657 73.570397 1311.875 79.765625 C 1310.1196 92.015459 1311.1 153.75311 1303.9922 102.72461 C 1312.6552 72.93226 1267.2218 68.110983 1284.7363 40.148438 C 1292.9593 35.207729 1300.5575 24.954743 1308.0039 24.849609 z M 228.84375 31.044922 C 234.41774 30.953473 242.54053 38.406395 231.19922 35.326172 C 229.09702 34.976528 226.55226 38.170335 224.79102 35.701172 C 224.87241 32.271662 226.66263 31.080706 228.84375 31.044922 z M 1623.502 31.044922 C 1625.6831 31.080706 1627.4733 32.271662 1627.5547 35.701172 C 1625.7934 38.170335 1623.2467 34.976528 1621.1445 35.326172 C 1609.8032 38.406395 1617.928 30.953472 1623.502 31.044922 z M 208.79492 37.162109 C 213.46821 37.104155 217.60222 40.244144 207.78906 45.628906 C 206.03834 49.212628 204.64853 43.376294 203.22266 43.546875 C 201.20044 39.18766 205.16014 37.207185 208.79492 37.162109 z M 1643.5488 37.162109 C 1647.1836 37.207185 1651.1452 39.18766 1649.123 43.546875 C 1647.6971 43.376294 1646.3054 49.212628 1644.5547 45.628906 C 1634.7415 40.244145 1638.8755 37.104155 1643.5488 37.162109 z M 240.42383 37.900391 C 261.8248 40.596203 264.26175 72.793803 251.18359 86.751953 C 248.9862 92.672492 222.21235 108.02998 235.83984 93.017578 C 248.9099 77.31798 247.39631 55.647056 240.42383 37.900391 z M 1611.9219 37.900391 C 1604.9494 55.647057 1603.4358 77.31798 1616.5059 93.017578 C 1630.1334 108.02998 1603.3576 92.672492 1601.1602 86.751953 C 1588.082 72.793803 1590.5209 40.596203 1611.9219 37.900391 z M 230.50977 38.666016 C 244.93683 48.378184 243.49245 72.758704 235.72461 87.0625 C 232.08827 89.91836 225.71025 106.89499 224.375 93.082031 C 220.92946 75.265414 217.19613 53.270272 230.50977 38.666016 z M 1621.834 38.666016 C 1635.1476 53.270273 1631.414 75.265414 1627.9688 93.082031 C 1626.6335 106.89499 1620.2574 89.91836 1616.6211 87.0625 C 1608.8533 72.758704 1607.4069 48.378184 1621.834 38.666016 z M 221.76953 39.255859 C 219.09159 54.830064 214.38431 73.456636 219.28906 90.251953 C 221.78446 97.028544 224.44773 104.49733 215.66016 94.921875 C 201.81066 80.108829 200.89336 48.099761 221.76953 39.255859 z M 1630.5742 39.255859 C 1651.4504 48.099761 1650.5331 80.108829 1636.6836 94.921875 C 1627.896 104.49733 1630.5612 97.028544 1633.0566 90.251953 C 1637.9614 73.456636 1633.2522 54.830064 1630.5742 39.255859 z M 258.55664 40.894531 C 263.97096 40.721039 279.16293 54.918975 260.46289 50.421875 L 258.01758 47.083984 C 256.03239 42.608157 256.75187 40.952362 258.55664 40.894531 z M 1593.7891 40.894531 C 1595.5938 40.952362 1596.3114 42.608157 1594.3262 47.083984 L 1591.8828 50.421875 C 1573.1828 54.918978 1588.3747 40.72104 1593.7891 40.894531 z M 195.20312 45.115234 C 201.67495 44.880711 206.54931 49.431143 198.38281 57.787109 C 185.28221 72.73273 196.95775 92.622006 213.72852 97.582031 C 220.69417 102.91326 207.51542 98.5566 206.0293 98.132812 C 187.29555 94.684274 171.17051 72.676086 182.58789 54.810547 C 184.16917 48.375494 190.16953 45.297641 195.20312 45.115234 z M 1657.1426 45.115234 C 1662.1762 45.297641 1668.1765 48.375494 1669.7578 54.810547 C 1681.1752 72.67609 1665.0482 94.684273 1646.3145 98.132812 C 1644.8283 98.5566 1631.6515 102.91326 1638.6172 97.582031 C 1655.3879 92.622006 1667.0635 72.73273 1653.9629 57.787109 C 1645.7964 49.431141 1650.6708 44.880712 1657.1426 45.115234 z M 129.53516 45.630859 C 142.52339 45.745284 155.26234 49.444612 164.75586 58.4375 C 174.9002 66.083223 170.16977 89.990869 158.64258 88.623047 C 151.702 92.044547 143.08042 94.391033 136.02539 89.882812 C 119.73238 84.973433 132.44632 57.997768 141.6543 66.855469 C 122.27025 78.468131 148.61349 91.411196 159.90234 87.232422 C 173.44237 72.562737 154.58938 51.107499 137.18555 52.943359 C 125.17728 51.696656 100.09067 52.328869 98.851562 64.330078 C 106.59837 67.901203 116.55812 73.849157 101.32031 70.009766 C 83.470357 71.177851 84.90958 54.369998 100.1875 51.064453 C 109.18029 47.62061 119.4332 45.541862 129.53516 45.630859 z M 1722.8105 45.630859 C 1732.9125 45.541862 1743.1654 47.62061 1752.1582 51.064453 C 1767.4361 54.369998 1768.8753 71.177851 1751.0254 70.009766 C 1735.7875 73.849157 1745.7473 67.901203 1753.4941 64.330078 C 1752.255 52.328865 1727.1684 51.696656 1715.1602 52.943359 C 1697.7563 51.107499 1678.9014 72.562737 1692.4414 87.232422 C 1703.7303 91.411196 1730.0755 78.468131 1710.6914 66.855469 C 1719.8994 57.997768 1732.6133 84.973432 1716.3203 89.882812 C 1709.2653 94.391033 1700.6417 92.044547 1693.7012 88.623047 C 1682.174 89.990869 1677.4455 66.083223 1687.5898 58.4375 C 1697.0833 49.44461 1709.8223 45.745284 1722.8105 45.630859 z M 267.5957 53.166016 C 288.53158 58.261337 288.22416 89.49173 269.60352 97.904297 C 260.56871 103.81301 249.219 105.98976 238.62891 103.93555 C 232.82541 97.987828 260.59612 101.81935 262.45703 90.677734 C 277.92726 80.6309 256.28163 58.670142 267.5957 53.166016 z M 1584.75 53.166016 C 1596.0641 58.670145 1574.4184 80.630899 1589.8887 90.677734 C 1591.7496 101.81935 1619.5183 97.987831 1613.7148 103.93555 C 1603.1248 105.98976 1591.775 103.81301 1582.7402 97.904297 C 1564.1196 89.49173 1563.8141 58.26134 1584.75 53.166016 z M 979.2793 54.652344 C 979.56487 54.645634 979.84725 54.648715 980.125 54.660156 C 999.38264 55.453423 999.76733 99.25383 968.6543 98.070312 C 957.76741 104.02178 951.31405 122.84538 943.6582 127.0332 C 957.3249 106.42201 960.27616 83.795793 963.93164 62.0625 C 969.83692 56.92594 974.99564 54.752988 979.2793 54.652344 z M 1357.2305 54.652344 C 1357.516 54.645634 1357.7984 54.648715 1358.0762 54.660156 C 1377.3338 55.453423 1377.7185 99.25383 1346.6055 98.070312 C 1335.7186 104.02178 1329.2652 122.84538 1321.6094 127.0332 C 1335.2761 106.42201 1338.2273 83.795793 1341.8828 62.0625 C 1347.7881 56.92594 1352.9468 54.752988 1357.2305 54.652344 z M 602.16992 54.660156 C 621.42757 55.453423 621.81225 99.25383 590.69922 98.070312 C 579.81233 104.02178 573.36093 122.84538 565.70508 127.0332 C 579.37177 106.42201 582.32303 83.795793 585.97852 62.0625 C 592.27748 56.583503 597.72585 54.477095 602.16992 54.660156 z M 495.82812 54.988281 C 515.54148 55.449032 527.16693 72.066836 520.91211 92.355469 C 522.83079 99.671066 545.56003 148.51301 527.28125 120.4668 C 518.26284 91.580121 469.81639 93.442998 486.91406 55.816406 C 490.03182 55.186347 493.01193 54.92246 495.82812 54.988281 z M 873.7832 54.988281 C 893.49656 55.449032 905.12201 72.066836 898.86719 92.355469 C 900.78586 99.671066 923.51511 148.51301 905.23633 120.4668 C 896.21792 91.580118 847.76951 93.442998 864.86719 55.816406 C 867.98494 55.186347 870.96701 54.92246 873.7832 54.988281 z M 1251.7344 54.988281 C 1271.4477 55.449032 1283.0732 72.066836 1276.8184 92.355469 C 1278.737 99.671066 1301.4663 148.51301 1283.1875 120.4668 C 1274.1691 91.580115 1225.7207 93.442998 1242.8184 55.816406 C 1245.9361 55.186347 1248.9182 54.92246 1251.7344 54.988281 z M 118.04883 55.712891 C 119.92552 55.829602 120.0197 58.075006 114.86523 63.072266 C 114.46355 63.728225 109.49678 67.859524 109.33984 64.5 C 110.27673 58.932632 115.63594 55.562833 118.04883 55.712891 z M 1734.2949 55.712891 C 1736.7078 55.562833 1742.067 58.93263 1743.0039 64.5 C 1742.8469 67.859524 1737.8802 63.728225 1737.4785 63.072266 C 1732.3241 58.075005 1732.4182 55.829602 1734.2949 55.712891 z M 202.50977 58.597656 C 202.68614 58.617829 202.86323 58.664431 203.03906 58.736328 C 198.80815 68.813754 208.55212 86.884857 206.00586 90.712891 L 204.25586 89.117188 L 202.20703 87.080078 C 191.57282 81.521406 197.04214 57.972299 202.50977 58.597656 z M 1649.8359 58.597656 C 1655.3035 57.972299 1660.7729 81.521406 1650.1387 87.080078 L 1648.0879 89.117188 L 1646.3379 90.712891 C 1643.7916 86.884857 1653.5376 68.813754 1649.3066 58.736328 C 1649.4825 58.664431 1649.6596 58.617829 1649.8359 58.597656 z M 263.80859 67.945312 C 264.52059 67.873425 265.05834 69.94208 265.45508 75.490234 C 271.62707 85.898898 236.34058 108.86387 251.8125 90.167969 C 257.96925 87.634212 261.6726 68.160987 263.80859 67.945312 z M 1588.5371 67.945312 C 1590.6731 68.160987 1594.3748 87.634212 1600.5312 90.167969 C 1616.0032 108.86387 1580.7186 85.898898 1586.8906 75.490234 C 1587.2874 69.942079 1587.8251 67.873424 1588.5371 67.945312 z M 145.91992 68.216797 C 150.47046 68.09834 153.58326 83.770698 140.78516 77.849609 C 142.13937 70.727795 144.13927 68.26315 145.91992 68.216797 z M 1706.4258 68.216797 C 1708.2064 68.26315 1710.2063 70.727794 1711.5605 77.849609 C 1698.7624 83.770698 1701.8752 68.09834 1706.4258 68.216797 z M 113.35938 68.269531 C 139.42774 82.041805 101.49484 95.506849 87.453125 90.277344 L 83.570312 89.773438 L 79.720703 89.039062 C 65.54772 83.599434 97.749989 87.172145 103.50195 85.576172 C 117.35727 87.154272 114.25683 69.164637 113.35938 68.269531 z M 1738.9863 68.269531 C 1738.0888 69.164637 1734.9884 87.154272 1748.8438 85.576172 C 1754.5954 87.172145 1786.798 83.599433 1772.625 89.039062 L 1768.7734 89.773438 L 1764.8926 90.277344 C 1750.8509 95.506849 1712.9179 82.041805 1738.9863 68.269531 z M 105.29102 72.246094 C 91.912243 86.553582 68.017104 82.457652 49.855469 85.40625 C 29.497444 82.613327 13.250104 107.34502 32.744141 120.59375 C 30.419402 120.32975 28.563303 118.78772 26.570312 117.74219 C 6.0699197 101.83592 30.984445 77.289209 50.695312 81.019531 C 69.255722 80.364358 87.993946 78.682308 105.29102 72.246094 z M 1747.0547 72.246094 C 1764.3517 78.682308 1783.09 80.364358 1801.6504 81.019531 C 1821.3612 77.289209 1846.2758 101.83592 1825.7754 117.74219 C 1823.7824 118.78772 1821.9263 120.32975 1819.6016 120.59375 C 1839.0956 107.34502 1822.8483 82.613327 1802.4902 85.40625 C 1784.3286 82.457652 1760.4335 86.553582 1747.0547 72.246094 z M 461.61914 80.966797 C 489.43505 81.065789 487.24098 119.48994 512.30078 129.90039 C 530.80815 145.98104 512.25564 134.08072 503.57422 128.90625 C 483.59137 115.02776 436.53791 117.3649 451.95898 82.240234 C 455.54221 81.356784 458.74163 80.956556 461.61914 80.966797 z M 839.57422 80.966797 C 867.39013 81.065789 865.1941 119.48994 890.25391 129.90039 C 908.76127 145.98104 890.21072 134.08072 881.5293 128.90625 C 861.54644 115.02776 814.49299 117.3649 829.91406 82.240234 C 833.49729 81.356784 836.69671 80.956556 839.57422 80.966797 z M 1217.5254 80.966797 C 1245.3413 81.065789 1243.1453 119.48994 1268.2051 129.90039 C 1286.7124 145.98104 1268.1619 134.08072 1259.4805 128.90625 C 1239.4976 115.02776 1192.4442 117.3649 1207.8652 82.240234 C 1211.4485 81.356784 1214.6479 80.956556 1217.5254 80.966797 z M 533.58203 81.816406 C 534.20345 81.814307 534.87176 81.845729 535.5918 81.912109 C 540.36663 92.925347 541.1954 120.15548 541.47656 126.68164 C 541.26347 114.0183 514.31814 81.881479 533.58203 81.816406 z M 911.53516 81.816406 C 912.15657 81.814307 912.82684 81.845729 913.54688 81.912109 C 918.32169 92.925347 919.15048 120.15548 919.43164 126.68164 C 919.21855 114.0183 892.27127 81.881479 911.53516 81.816406 z M 1289.4863 81.816406 C 1290.1077 81.814307 1290.778 81.845729 1291.498 81.912109 C 1296.2729 92.925347 1297.0997 120.15548 1297.3809 126.68164 C 1297.1678 114.0183 1270.2224 81.881479 1289.4863 81.816406 z M 571.5625 81.919922 C 572.93146 81.958632 574.50935 82.366717 576.33008 83.205078 C 574.96582 97.695043 565.3196 111.08443 560.08008 124.91016 C 559.86805 125.59999 559.63755 126.2544 559.36914 126.83203 C 559.5915 126.18995 559.83751 125.55022 560.08008 124.91016 C 563.99989 112.15674 559.0083 81.564929 571.5625 81.919922 z M 949.51758 81.919922 C 950.88654 81.958632 952.46442 82.366717 954.28516 83.205078 C 952.92044 97.699907 943.26761 111.09317 938.0293 124.92383 C 937.81835 125.60835 937.59083 126.25827 937.32422 126.83203 C 937.54497 126.1946 937.78863 125.55926 938.0293 124.92383 C 941.957 112.17874 936.95884 81.564801 949.51758 81.919922 z M 1327.4688 81.919922 C 1328.8375 81.958632 1330.4156 82.366717 1332.2363 83.205078 C 1330.8716 97.699907 1321.2188 111.09317 1315.9805 124.92383 C 1315.7695 125.60835 1315.542 126.25827 1315.2754 126.83203 C 1315.4961 126.1946 1315.7398 125.55926 1315.9805 124.92383 C 1319.9082 112.17874 1314.91 81.564801 1327.4688 81.919922 z M 635.9668 82.716797 C 647.3653 82.928078 652.96158 91.909483 645.875 105.78125 C 631.41883 120.07846 607.77714 120.06664 590.24805 131.19922 C 587.94247 133.20957 585.50549 135.13658 582.9082 136.95703 C 585.18623 134.73641 587.65196 132.84797 590.24805 131.19922 C 605.51763 117.88487 614.90351 100.77309 625.17773 84.6875 C 629.12787 83.286268 632.77522 82.657638 635.9668 82.716797 z M 1013.9219 82.716797 C 1025.3204 82.928078 1030.9167 91.909483 1023.8301 105.78125 C 1009.3742 120.07818 985.73211 120.06535 968.20312 131.19727 C 965.89727 133.20792 963.46093 135.13633 960.86328 136.95703 C 963.14162 134.73612 965.60667 132.84617 968.20312 131.19727 C 983.47213 117.88304 992.85882 100.77275 1003.1328 84.6875 C 1007.0829 83.286268 1010.7303 82.657638 1013.9219 82.716797 z M 1391.873 82.716797 C 1403.2715 82.928078 1408.8678 91.909483 1401.7812 105.78125 C 1387.3249 120.0788 1363.6816 120.06586 1346.1523 131.19922 C 1343.847 133.20929 1341.4114 135.13682 1338.8145 136.95703 C 1341.0921 134.73676 1343.5567 132.84779 1346.1523 131.19922 C 1361.4225 117.88476 1370.8096 100.7734 1381.084 84.6875 C 1385.0341 83.286268 1388.6815 82.657638 1391.873 82.716797 z M 175.86719 86.396484 C 182.04262 86.383109 188.79129 93.679442 175.22461 90.757812 L 172.84961 90.472656 L 170.65625 89.496094 C 171.81363 87.217915 173.80871 86.400943 175.86719 86.396484 z M 1676.4785 86.396484 C 1678.537 86.400943 1680.5321 87.217915 1681.6895 89.496094 L 1679.4961 90.472656 L 1677.1211 90.757812 C 1663.5544 93.679442 1670.3031 86.383109 1676.4785 86.396484 z M 66.205078 87.982422 C 74.271553 87.684924 92.314904 102.60839 101.23242 108.22852 C 124.97063 126.96856 148.57727 146.16337 175.68555 159.89844 C 189.05545 172.203 168.36817 162.36985 164.94141 160.09961 C 129.37475 141.12306 102.07553 110.13702 67.40625 89.808594 C 80.422656 100.35499 100.57048 121.2478 105.75195 142.56641 C 112.59384 148.75213 104.74339 169.39665 102.30469 152.60742 C 98.013098 127.39359 82.503976 105.50002 63.414062 89.113281 C 64.103542 88.378085 65.052725 88.024922 66.205078 87.982422 z M 1786.1406 87.982422 C 1787.293 88.024922 1788.2422 88.378085 1788.9316 89.113281 C 1769.8417 105.50002 1754.3326 127.39359 1750.041 152.60742 C 1747.6023 169.39665 1739.7499 148.75213 1746.5918 142.56641 C 1751.7733 121.2478 1771.9211 100.35499 1784.9375 89.808594 C 1750.2682 110.13702 1722.969 141.12306 1687.4023 160.09961 C 1683.9756 162.36985 1663.2903 172.203 1676.6602 159.89844 C 1703.7684 146.16337 1727.3751 126.96856 1751.1133 108.22852 C 1760.0308 102.60839 1778.0741 87.684924 1786.1406 87.982422 z M 47.582031 89.394531 C 47.995448 89.376 48.342969 89.378476 48.613281 89.402344 C 49.611358 89.49047 49.544506 89.863305 47.757812 90.496094 C 37.981116 90.563709 29.880702 101.05902 37.933594 107.98633 C 35.691567 111.24241 30.586764 109.50944 29.080078 106.47461 C 20.546143 94.778611 41.380785 89.672504 47.582031 89.394531 z M 1804.7637 89.394531 C 1810.9647 89.672504 1831.7975 94.778611 1823.2637 106.47461 C 1821.757 109.50944 1816.6541 111.24241 1814.4121 107.98633 C 1822.465 101.05902 1814.3646 90.563709 1804.5879 90.496094 C 1802.8012 89.863305 1802.7343 89.49047 1803.7324 89.402344 C 1804.0027 89.378476 1804.3503 89.376 1804.7637 89.394531 z M 55.394531 91.361328 C 68.63151 97.347967 83.013347 111.62886 77.841797 127.16211 C 74.489783 132.58867 67.263272 128.78271 62.960938 127.11914 C 47.09843 121.03979 74.625621 127.99882 71.439453 117.07227 C 73.420561 107.04448 54.672982 92.938294 55.394531 91.361328 z M 1796.9492 91.361328 C 1797.6708 92.938294 1778.9254 107.04448 1780.9062 117.07227 C 1777.7204 127.99882 1805.2473 121.03979 1789.3848 127.11914 C 1785.0824 128.78271 1777.8559 132.58867 1774.5039 127.16211 C 1769.3323 111.62886 1783.7123 97.347967 1796.9492 91.361328 z M 182.38477 93.773438 C 183.85949 93.720777 185.96602 94.228075 188.76172 95.556641 C 201.91218 100.10711 204.7318 103.68013 187.94922 103.93945 C 179.89016 101.29989 177.1179 93.961506 182.38477 93.773438 z M 1669.959 93.773438 C 1675.2258 93.961507 1672.4536 101.29989 1664.3945 103.93945 C 1647.612 103.68013 1650.4335 100.10711 1663.584 95.556641 C 1666.3797 94.228075 1668.4843 93.720777 1669.959 93.773438 z M 46.333984 96.005859 C 46.572142 95.987351 46.824244 95.990091 47.091797 96.013672 C 48.677297 96.153413 50.798011 97.055028 53.664062 98.990234 C 47.658892 104.43068 51.664972 125.00212 34.662109 117.62695 C 45.20159 116.75084 38.951084 96.579605 46.333984 96.005859 z M 1806.0098 96.005859 C 1813.3927 96.579605 1807.1441 116.75084 1817.6836 117.62695 C 1800.6807 125.00212 1804.6868 104.43068 1798.6816 98.990234 C 1801.5477 97.055028 1803.6665 96.153413 1805.252 96.013672 C 1805.5195 95.990091 1805.7716 95.987351 1806.0098 96.005859 z M 499.73438 98.564453 C 501.47918 98.474356 504.64379 99.952719 509.66602 103.80664 C 516.20396 112.57719 537.26523 148.52444 515.42969 122.74805 C 505.38193 119.21182 493.50294 98.88623 499.73438 98.564453 z M 877.6875 98.564453 C 879.4323 98.474356 882.59692 99.95272 887.61914 103.80664 C 894.15708 112.57719 915.21835 148.52444 893.38281 122.74805 C 883.33506 119.21182 871.45607 98.88623 877.6875 98.564453 z M 1255.6387 98.564453 C 1257.3835 98.474356 1260.5481 99.952721 1265.5703 103.80664 C 1272.1083 112.57719 1293.1695 148.52444 1271.334 122.74805 C 1261.2862 119.21182 1249.4072 98.88623 1255.6387 98.564453 z M 108.04102 100.33203 C 136.05988 99.60725 157.72977 122.87155 171.70703 144.85938 C 173.84115 147.45267 180.64886 162.56691 172.93164 154.17969 C 160.10235 135.3699 145.70231 115.8764 124.83594 105.54492 C 119.18806 101.04459 88.567083 108.45461 105.30859 100.47852 C 106.22559 100.40436 107.13718 100.35541 108.04102 100.33203 z M 1744.3047 100.33203 C 1745.2085 100.35541 1746.1182 100.40436 1747.0352 100.47852 C 1763.7767 108.45461 1733.1557 101.04459 1727.5078 105.54492 C 1706.6414 115.8764 1692.2414 135.3699 1679.4121 154.17969 C 1671.6949 162.56691 1678.5026 147.45268 1680.6367 144.85938 C 1694.614 122.87155 1716.2858 99.607249 1744.3047 100.33203 z M 335.56445 101.21094 C 353.51285 102.90138 364.84624 124.42604 360.00391 141.54297 C 351.65477 172.37013 316.49903 184.94779 287.46484 184.5332 C 281.05938 184.56722 274.5959 184.2838 268.32031 182.91016 C 256.48541 183.24797 255.52155 174.95636 267.81641 177.10547 C 297.56966 182.3338 334.24654 174.04886 350.61523 146.5957 C 359.50163 130.17987 350.94212 110.1305 335.56445 101.21094 z M 1516.7812 101.21094 C 1501.404 110.1305 1492.8441 130.17987 1501.7305 146.5957 C 1518.0991 174.04886 1554.7761 182.3338 1584.5293 177.10547 C 1596.8242 174.95636 1595.8603 183.24797 1584.0254 182.91016 C 1577.7498 184.2838 1571.2863 184.56722 1564.8809 184.5332 C 1535.8467 184.94779 1500.6909 172.37013 1492.3418 141.54297 C 1487.4995 124.42604 1498.8332 102.90138 1516.7812 101.21094 z M 601.96484 101.51953 C 604.00771 101.58651 604.94094 103.79951 603.96289 109.26367 C 592.9577 115.08222 584.8434 125.08011 574.30664 131.16016 C 576.77123 123.9954 595.29149 101.30073 601.96484 101.51953 z M 979.91992 101.51953 C 981.96278 101.58651 982.89407 103.79951 981.91602 109.26367 C 970.91083 115.08222 962.79847 125.08011 952.26172 131.16016 C 954.72631 123.9954 973.24657 101.30073 979.91992 101.51953 z M 1357.8711 101.51953 C 1359.914 101.58651 1360.8452 103.79951 1359.8672 109.26367 C 1348.862 115.08222 1340.7477 125.08011 1330.2109 131.16016 C 1332.6755 123.9954 1351.1977 101.30073 1357.8711 101.51953 z M 272.68555 102.58008 C 277.26037 102.28708 291.94766 109.44531 276.58594 107.44727 L 272.96875 105.9707 C 270.75878 103.60209 271.16061 102.67774 272.68555 102.58008 z M 1579.0371 102.58008 C 1581.0426 102.46791 1581.8612 103.30602 1579.375 105.9707 L 1575.7578 107.44727 C 1561.0362 109.36206 1573.9121 102.86673 1579.0371 102.58008 z M 207.42773 102.73438 C 212.57159 102.63219 217.26849 106.00541 208.98633 112.93945 L 207.23242 114.29883 L 203.18945 113.38086 C 196.69406 106.41408 202.28388 102.83652 207.42773 102.73438 z M 1644.918 102.73438 C 1650.0618 102.83653 1655.6517 106.41408 1649.1562 113.38086 L 1645.1133 114.29883 L 1643.3574 112.93945 C 1635.0752 106.00541 1639.7741 102.63219 1644.918 102.73438 z M 326.38086 103.24805 C 337.72105 105.00147 336.04356 105.66384 325.83203 107.05469 C 318.56964 111.53675 347.19841 135.79235 336.65039 133.70312 C 329.47537 125.19108 300.63304 107.11436 326.38086 103.24805 z M 1525.9629 103.24805 C 1551.7107 107.11436 1522.8703 125.19107 1515.6953 133.70312 C 1505.1473 135.79235 1533.776 111.53675 1526.5137 107.05469 C 1516.3021 105.66384 1514.6227 105.00147 1525.9629 103.24805 z M 223.56641 103.38281 C 230.50888 103.39288 238.63301 108.91258 228.43359 116.07227 C 225.25503 118.49501 220.40702 120.81111 218.69141 115.17578 C 213.48175 106.70063 218.16671 103.37498 223.56641 103.38281 z M 1628.7793 103.38281 C 1634.179 103.37498 1638.864 106.70063 1633.6543 115.17578 C 1631.9387 120.81111 1627.0907 118.49501 1623.9121 116.07227 C 1613.7127 108.91258 1621.8368 103.39288 1628.7793 103.38281 z M 138.74023 104.49805 C 166.02761 114.95864 190.64449 132.46603 214.45898 149.41406 C 229.56363 160.65677 216.52566 159.10037 209.17383 150.75977 C 187.03946 133.40682 163.43488 117.91394 138.74023 104.49805 z M 1713.6055 104.49805 C 1688.9108 117.91394 1665.3043 133.40682 1643.1699 150.75977 C 1635.8181 159.10037 1622.7821 160.65677 1637.8867 149.41406 C 1661.7012 132.46603 1686.3181 114.95864 1713.6055 104.49805 z M 256.36328 106.40039 C 261.09827 106.28311 269.26231 107.65917 271.29883 107.94727 C 275.96513 116.07827 259.14211 115.53749 256.03516 110.60156 C 251.07188 107.4868 252.68051 106.49161 256.36328 106.40039 z M 1595.9824 106.40039 C 1599.6652 106.49161 1601.2738 107.4868 1596.3105 110.60156 C 1593.2036 115.53749 1576.3806 116.07827 1581.0469 107.94727 C 1583.0834 107.65917 1591.2474 106.28311 1595.9824 106.40039 z M 242.12891 107.00781 C 248.45398 107.19909 255.8828 111.56034 246.34766 118.48438 C 244.38289 119.80346 242.12244 117.98696 240.37891 117.34766 C 231.8272 109.91717 236.54796 106.83904 242.12891 107.00781 z M 1610.2168 107.00781 C 1615.7977 106.83904 1620.5185 109.91717 1611.9668 117.34766 C 1610.2233 117.98696 1607.9608 119.80347 1605.9961 118.48438 C 1596.4609 111.56034 1603.8917 107.19909 1610.2168 107.00781 z M 670.11133 109.24414 C 703.88405 109.57554 668.40679 152.14962 646.34961 137.83594 C 630.1021 135.7461 615.51418 144.9225 600.11328 148.19922 C 627.55106 141.53011 640.79945 112.99827 666.625 109.34766 C 667.86134 109.2671 669.02189 109.23345 670.11133 109.24414 z M 1048.0664 109.24414 C 1081.8391 109.57554 1046.3619 152.14962 1024.3047 137.83594 C 1008.0572 135.7461 993.4673 144.9225 978.06641 148.19922 C 1005.5042 141.53011 1018.7545 112.99827 1044.5801 109.34766 C 1045.8164 109.2671 1046.977 109.23345 1048.0664 109.24414 z M 1426.0176 109.24414 C 1459.7903 109.57554 1424.313 152.14962 1402.2559 137.83594 C 1386.0084 135.7461 1371.4185 144.9225 1356.0176 148.19922 C 1383.4554 141.53011 1396.7059 112.99827 1422.5312 109.34766 C 1423.7676 109.2671 1424.9281 109.23345 1426.0176 109.24414 z M 194.97266 109.3457 C 196.95051 109.25419 198.57759 110.93681 198.70117 115.42969 C 213.24013 116.99972 191.4523 122.90173 187.48047 119.77734 C 187.40247 114.57707 191.67624 109.49823 194.97266 109.3457 z M 1657.373 109.3457 C 1660.6695 109.49823 1664.9412 114.57707 1664.8633 119.77734 C 1660.8915 122.90173 1639.1056 116.99972 1653.6445 115.42969 C 1653.7681 110.93681 1655.3952 109.25419 1657.373 109.3457 z M 437.89258 110.25781 C 441.44841 110.23592 445.14032 111.01147 448.72852 112.79688 C 457.74106 133.42579 484.30217 139.79067 497.85352 153.91016 L 493.55273 151.95312 C 470.54781 135.50297 443.46503 144.28474 419.09766 138.33203 C 409.65222 125.43359 422.48396 110.35269 437.89258 110.25781 z M 815.8457 110.25781 C 819.40154 110.23592 823.0954 111.01147 826.68359 112.79688 C 835.69614 133.42578 862.25725 139.79067 875.80859 153.91016 L 871.50781 151.95312 C 848.50289 135.50298 821.41815 144.28474 797.05078 138.33203 C 787.60535 125.43359 800.43708 110.35269 815.8457 110.25781 z M 1193.7969 110.25781 C 1197.3527 110.23592 1201.0466 111.01147 1204.6348 112.79688 C 1213.6473 133.42577 1240.2084 139.79067 1253.7598 153.91016 L 1249.459 151.95312 C 1226.4541 135.50299 1199.3693 144.28474 1175.002 138.33203 C 1165.5565 125.43359 1178.3883 110.35269 1193.7969 110.25781 z M 213.78711 114.41992 C 216.30348 114.58174 218.02393 117.19155 216.43945 123.61523 C 215.30011 125.6639 207.50049 132.40467 206.18359 127.67773 C 203.18847 120.67925 209.59316 114.15022 213.78711 114.41992 z M 1638.5566 114.41992 C 1642.7506 114.15022 1649.1572 120.67925 1646.1621 127.67773 C 1644.8452 132.40467 1637.0436 125.6639 1635.9043 123.61523 C 1634.3198 117.19155 1636.0403 114.58174 1638.5566 114.41992 z M 152.28125 116.4707 C 166.11636 130.0105 183.66049 147.14143 183.69531 167.44531 L 182.75 166.36328 C 177.57007 147.03554 165.13591 131.28649 152.28125 116.4707 z M 1700.0645 116.4707 C 1687.2098 131.28649 1674.7756 147.03554 1669.5957 166.36328 L 1668.6504 167.44531 C 1668.6852 147.14143 1686.2293 130.0105 1700.0645 116.4707 z M 255.22461 116.95898 C 259.54486 116.99205 263.25472 119.60072 256.33984 124.93945 L 253.31055 124.88867 L 250.44531 124.43164 C 245.97489 119.46901 250.90436 116.92592 255.22461 116.95898 z M 1597.1191 116.95898 C 1601.4394 116.92592 1606.3708 119.46901 1601.9004 124.43164 L 1599.0332 124.88867 L 1596.0059 124.93945 C 1589.091 119.60072 1592.7989 116.99205 1597.1191 116.95898 z M 233.86523 118.47656 C 238.05165 118.58182 242.92728 122.61579 236.94922 130.01953 L 235.13086 129.5293 L 232.32031 127.75586 C 227.01329 121.3486 230.17134 118.38369 233.86523 118.47656 z M 1618.4805 118.47656 C 1622.1744 118.38369 1625.3305 121.3486 1620.0234 127.75586 L 1617.2148 129.5293 L 1615.3965 130.01953 C 1609.4184 122.61579 1614.2941 118.58182 1618.4805 118.47656 z M 163.79492 121.57617 C 174.20695 131.73079 193.14629 148.73594 190.73242 161.25391 C 188.80646 159.41655 187.65448 156.99701 186.5625 154.625 C 184.33902 143.07632 162.99511 124.9957 163.79492 121.57617 z M 1688.5488 121.57617 C 1689.3487 124.9957 1668.0047 143.07632 1665.7812 154.625 C 1664.6896 156.99701 1663.5392 159.41655 1661.6133 161.25391 C 1659.1994 148.73594 1678.1368 131.73079 1688.5488 121.57617 z M 225.06836 121.86328 C 225.34941 132.22735 233.25974 141.31607 235.13281 150.54883 C 228.40763 168.31899 207.90383 170.02631 191.62109 168.51367 C 180.68336 157.04011 219.24606 171.04665 224.2832 157.55078 C 238.25974 148.77846 210.80975 125.38374 225.06836 121.86328 z M 1627.2773 121.86328 C 1641.536 125.38374 1614.086 148.77846 1628.0625 157.55078 C 1633.0996 171.04665 1671.6623 157.04011 1660.7246 168.51367 C 1644.4419 170.02631 1623.9381 168.31899 1617.2129 150.54883 C 1619.0859 141.31607 1626.9961 132.22735 1627.2773 121.86328 z M 848.52734 122.45703 C 848.8044 122.44427 849.11149 122.44412 849.45117 122.45898 C 851.46409 122.54706 854.59988 123.13486 859.14258 124.39453 C 869.46144 131.96472 900.22971 154.85132 870.55664 137.56445 C 860.78491 136.12201 839.9385 122.85263 848.52734 122.45703 z M 1226.4785 122.45703 C 1226.7556 122.44427 1227.0627 122.44412 1227.4023 122.45898 C 1229.4153 122.54706 1232.551 123.13486 1237.0938 124.39453 C 1247.4124 131.96472 1278.1809 154.85132 1248.5078 137.56445 C 1238.7361 136.12201 1217.8897 122.85263 1226.4785 122.45703 z M 471.49609 122.45898 C 473.50901 122.54706 476.64675 123.13486 481.18945 124.39453 C 491.50832 131.96472 522.27463 154.85132 492.60156 137.56445 C 482.51461 136.07548 460.62633 121.9834 471.49609 122.45898 z M 277.98047 122.5 C 278.99366 122.46173 279.97372 122.51064 280.90625 122.65234 C 301.13522 122.75435 295.41297 139.37643 289.75195 151.30859 C 273.15505 144.73128 306.30682 122.24353 280.85352 127.34766 C 264.91548 124.5092 247.37627 155.25537 271.48242 152.40039 C 281.86275 171.80461 251.04908 179.49159 236.29688 179.27539 C 230.76684 179.51463 225.221 179.32089 219.71289 178.78906 C 211.16033 177.6687 188.59223 174.62991 188.93164 170.06836 C 212.13672 175.67044 238.1077 176.83344 260.51562 167.55469 C 273.28094 162.60386 269.50064 148.92507 257.41211 153.76562 C 240.09473 142.95068 262.78259 123.07405 277.98047 122.5 z M 1574.3652 122.5 C 1589.5631 123.07405 1612.251 142.95067 1594.9336 153.76562 C 1582.845 148.92506 1579.0648 162.60386 1591.8301 167.55469 C 1614.2381 176.83344 1640.207 175.67044 1663.4121 170.06836 C 1663.7515 174.62991 1641.1834 177.6687 1632.6309 178.78906 C 1627.1228 179.32089 1621.5789 179.51463 1616.0488 179.27539 C 1601.2966 179.49159 1570.4829 171.80461 1580.8633 152.40039 C 1604.9694 155.25537 1587.4302 124.5092 1571.4922 127.34766 C 1546.0389 122.24353 1579.1903 144.73128 1562.5938 151.30859 C 1556.9327 139.37643 1551.2105 122.75435 1571.4395 122.65234 C 1572.372 122.51064 1573.352 122.46173 1574.3652 122.5 z M 1004.8203 122.97266 C 1007.6952 123.09673 1006.87 125.18854 998.60547 130.32422 C 995.11171 128.22841 963.87716 146.40322 972.33008 138.24023 C 976.23132 131.37268 997.37189 123.24623 1004.1973 122.97461 C 1004.4207 122.96572 1004.6287 122.96438 1004.8203 122.97266 z M 1382.7715 122.97266 C 1385.6465 123.09673 1384.8213 125.18854 1376.5566 130.32422 C 1373.0629 128.22841 1341.8285 146.40322 1350.2812 138.24023 C 1354.1825 131.37268 1375.3231 123.24623 1382.1484 122.97461 C 1382.3719 122.96572 1382.5798 122.96438 1382.7715 122.97266 z M 626.24414 122.97461 C 629.81932 122.83233 629.46594 124.84616 620.65039 130.32422 C 617.15663 128.22841 585.92404 146.40322 594.37695 138.24023 C 598.27819 131.37268 619.4188 123.24623 626.24414 122.97461 z M 56.359375 129.98047 C 56.999451 129.98776 57.698411 130.11717 58.457031 130.38281 C 49.232059 152.35081 87.432612 167.91567 90.679688 142.78125 C 96.10247 156.10569 76.906518 168.59614 64.990234 161.39648 L 62.751953 160.20508 C 50.347802 157.11194 46.758229 129.87115 56.359375 129.98047 z M 1795.9863 129.98047 C 1805.5875 129.87115 1801.9976 157.11194 1789.5938 160.20508 L 1787.3555 161.39648 C 1775.4392 168.59614 1756.2432 156.10569 1761.666 142.78125 C 1764.9131 167.91567 1803.1136 152.35081 1793.8887 130.38281 C 1794.6473 130.11717 1795.3463 129.98776 1795.9863 129.98047 z M 78.21875 132.76367 C 85.777772 133.17758 90.696734 148.94211 85.375 145.70703 C 83.997676 134.72449 63.591944 150.73531 72.658203 135.35156 C 74.590371 133.38997 76.47436 132.66816 78.21875 132.76367 z M 1774.127 132.76367 C 1775.8713 132.66816 1777.7553 133.38997 1779.6875 135.35156 C 1788.7538 150.73531 1768.348 134.72449 1766.9707 145.70703 C 1761.649 148.94211 1766.5679 133.17758 1774.127 132.76367 z M 922.95898 134.30078 C 927.31489 134.64973 931.41981 147.40492 918.8125 140.86719 C 919.57441 136.22891 921.03863 134.47333 922.53711 134.30664 C 922.67759 134.29101 922.81847 134.28952 922.95898 134.30078 z M 1300.9102 134.30078 C 1305.266 134.64973 1309.371 147.40492 1296.7637 140.86719 C 1297.5256 136.22891 1298.9898 134.47333 1300.4883 134.30664 C 1300.6288 134.29101 1300.7696 134.28952 1300.9102 134.30078 z M 544.58398 134.30664 C 549.07944 133.80656 553.87142 147.61582 540.85742 140.86719 C 541.61934 136.22891 543.0855 134.47333 544.58398 134.30664 z M 557.87695 134.44922 C 562.5625 134.71406 567.83188 146.23294 553.83398 140.98633 C 554.29914 135.9643 556.04348 134.34558 557.87695 134.44922 z M 935.83203 134.44922 C 940.51758 134.71406 945.78696 146.23294 931.78906 140.98633 C 932.25422 135.9643 933.99855 134.34558 935.83203 134.44922 z M 1313.7832 134.44922 C 1318.4688 134.71406 1323.7381 146.23294 1309.7402 140.98633 C 1310.2054 135.9643 1311.9497 134.34558 1313.7832 134.44922 z M 308.87695 134.56836 C 309.96762 134.59772 311.02267 135.034 311.9707 135.98242 C 295.73076 148.81013 319.0013 159.34793 327.07617 144.32812 C 331.14813 137.26778 337.71509 128.1626 334.98828 142.62695 C 331.66258 153.94347 318.02738 162.80502 306.52539 157.90625 C 291.93744 154.11045 301.2423 134.36286 308.87695 134.56836 z M 1543.4688 134.56836 C 1551.1031 134.36286 1560.4063 154.11045 1545.8184 157.90625 C 1534.3164 162.80502 1520.6831 153.94347 1517.3574 142.62695 C 1514.6306 128.1626 1521.1956 137.26777 1525.2676 144.32812 C 1533.3425 159.34793 1556.613 148.81013 1540.373 135.98242 C 1541.3211 135.034 1542.3781 134.59772 1543.4688 134.56836 z M 531.16992 136.5 C 534.92761 136.83931 541.30151 150.76626 529.22266 144.375 C 528.62928 138.31545 529.69952 136.36723 531.16992 136.5 z M 908.85352 136.5 C 908.94198 136.49154 909.0331 136.4917 909.125 136.5 C 912.88269 136.83931 919.25659 150.76626 907.17773 144.375 C 906.62145 138.69417 907.52654 136.62683 908.85352 136.5 z M 1286.8047 136.5 C 1286.8932 136.49154 1286.9843 136.4917 1287.0762 136.5 C 1290.8339 136.83931 1297.2078 150.76626 1285.1289 144.375 C 1284.5726 138.69417 1285.4777 136.62683 1286.8047 136.5 z M 569.48242 136.73438 C 574.08473 136.98746 581.5264 145.41707 568.00781 145.44922 C 565.44039 138.7114 567.07169 136.6018 569.48242 136.73438 z M 947.43555 136.73438 C 952.03786 136.98745 959.47952 145.41707 945.96094 145.44922 C 943.39351 138.7114 945.02481 136.6018 947.43555 136.73438 z M 1325.3867 136.73438 C 1329.989 136.98744 1337.4307 145.41707 1323.9121 145.44922 C 1321.3447 138.7114 1322.976 136.6018 1325.3867 136.73438 z M 691.36328 138.9043 C 719.68181 138.62151 727.86885 171.28558 695.91211 175.14844 C 687.72936 176.32561 678.38529 175.67049 673.95508 167.45898 C 661.0622 148.04941 617.12317 164.91765 611.50781 161.49805 C 638.50978 150.07925 669.02752 155.85194 691.36328 138.9043 z M 1069.3184 138.9043 C 1097.6369 138.62151 1105.8239 171.28558 1073.8672 175.14844 C 1065.6844 176.32561 1056.3404 175.67049 1051.9102 167.45898 C 1039.0173 148.04941 995.07825 164.91765 989.46289 161.49805 C 1016.4649 150.07925 1046.9826 155.85194 1069.3184 138.9043 z M 1447.2695 138.9043 C 1475.5881 138.62151 1483.7751 171.28558 1451.8184 175.14844 C 1443.6356 176.32561 1434.2915 175.67049 1429.8613 167.45898 C 1416.9685 148.04941 1373.0294 164.91765 1367.4141 161.49805 C 1394.416 150.07925 1424.9338 155.85194 1447.2695 138.9043 z M 641.73047 142.55859 C 645.27754 142.56039 648.04556 143.54875 649.42188 146.04883 C 635.75888 148.61407 614.51724 151.84113 605.26367 155.11719 C 613.43227 151.43849 631.08925 142.55321 641.73047 142.55859 z M 1019.6855 142.55859 C 1023.2326 142.56039 1026.0006 143.54875 1027.377 146.04883 C 1013.714 148.61407 992.47037 151.84113 983.2168 155.11719 C 991.3854 151.43849 1009.0443 142.55321 1019.6855 142.55859 z M 1397.6367 142.55859 C 1401.1838 142.56039 1403.9518 143.54875 1405.3281 146.04883 C 1391.6651 148.61407 1370.4215 151.84113 1361.168 155.11719 C 1369.3366 151.43849 1386.9955 142.55321 1397.6367 142.55859 z M 581.61914 143.04492 C 586.27587 142.74028 589.96372 159.62655 577.21289 150.67383 C 578.40772 145.1585 580.0669 143.14647 581.61914 143.04492 z M 959.57422 143.04492 C 964.23095 142.74028 967.91685 159.62655 955.16602 150.67383 C 956.36085 145.1585 958.02198 143.14647 959.57422 143.04492 z M 1337.5254 143.04492 C 1342.1821 142.74028 1345.868 159.62655 1333.1172 150.67383 C 1334.312 145.1585 1335.9731 143.14647 1337.5254 143.04492 z M 897.91602 143.11523 C 898.02793 143.10771 898.14279 143.10826 898.25977 143.11719 C 902.37727 143.43137 909.31749 153.60865 896.51367 150.93555 C 895.18706 145.24923 896.23737 143.22805 897.91602 143.11523 z M 1275.8672 143.11523 C 1275.9791 143.10771 1276.094 143.10826 1276.2109 143.11719 C 1280.3284 143.43137 1287.2687 153.60865 1274.4648 150.93555 C 1273.1383 145.24923 1274.1885 143.22805 1275.8672 143.11523 z M 520.30469 143.11719 C 524.42219 143.43137 531.36436 153.60865 518.56055 150.93555 C 517.14549 144.87014 518.4331 142.97438 520.30469 143.11719 z M 397.57617 144.04492 C 422.5426 143.95085 444.18471 158.78699 470.50977 157.30469 C 480.69378 156.67948 503.61159 171.14604 479.41797 162.28125 C 448.69891 147.43258 425.24484 173.09438 399.75586 179.36719 C 394.15762 178.11649 390.15227 173.68007 386.11914 169.96094 C 367.21945 160.64743 386.35986 150.06698 397.57617 144.04492 z M 775.53125 144.04492 C 800.49768 143.95085 822.13979 158.78699 848.46484 157.30469 C 858.64886 156.67948 881.56667 171.14604 857.37305 162.28125 C 826.65399 147.43258 803.19992 173.09438 777.71094 179.36719 C 772.1127 178.11649 768.10735 173.68007 764.07422 169.96094 C 745.17454 160.64743 764.31494 150.06698 775.53125 144.04492 z M 1153.4824 144.04492 C 1178.4488 143.95085 1200.091 158.78699 1226.416 157.30469 C 1236.6 156.67948 1259.5178 171.14604 1235.3242 162.28125 C 1204.6052 147.43258 1181.1511 173.09438 1155.6621 179.36719 C 1150.0639 178.11649 1146.0585 173.68007 1142.0254 169.96094 C 1123.1257 160.64743 1142.2661 150.06698 1153.4824 144.04492 z M 456.35352 144.67578 C 463.7109 144.89106 517.34498 166.90197 481.74414 156.11719 C 472.96781 153.52897 422.0529 145.79708 456.35352 144.67578 z M 834.30664 144.67578 C 841.66402 144.89106 895.29811 166.90197 859.69727 156.11719 C 850.92094 153.52897 800.00603 145.79708 834.30664 144.67578 z M 1212.2578 144.67578 C 1219.6152 144.89106 1273.2493 166.90197 1237.6484 156.11719 C 1228.8721 153.52897 1177.9572 145.79708 1212.2578 144.67578 z M 929.48633 148.51367 C 930.02415 148.50697 930.56086 148.51146 931.09766 148.52539 C 940.09536 148.75895 948.89267 151.91094 955.59766 158.64453 C 968.98365 164.16632 969.28936 190.30582 953.33594 170.12305 C 934.71417 143.54635 908.05653 170.35887 890.5332 174.49414 C 895.84033 158.77869 912.81387 148.72146 929.48633 148.51367 z M 1307.4375 148.51367 C 1307.9753 148.50697 1308.512 148.51146 1309.0488 148.52539 C 1318.0465 148.75895 1326.8438 151.91094 1333.5488 158.64453 C 1346.9348 164.16632 1347.2405 190.30582 1331.2871 170.12305 C 1312.6653 143.54635 1286.0077 170.35887 1268.4844 174.49414 C 1273.7915 158.77869 1290.7651 148.72146 1307.4375 148.51367 z M 553.14258 148.52539 C 562.14028 148.75895 570.93759 151.91094 577.64258 158.64453 C 591.02857 164.16632 591.33428 190.30582 575.38086 170.12305 C 556.75909 143.54635 530.10145 170.35887 512.57812 174.49414 C 518.05645 158.27174 535.96515 148.0795 553.14258 148.52539 z M 511.99219 151.86719 C 515.6396 152.01356 513.88936 166.93526 507.63867 156.10938 C 509.52587 152.94414 510.97091 151.8262 511.99219 151.86719 z M 889.94727 151.86719 C 893.59468 152.01356 891.84444 166.93525 885.59375 156.10938 C 887.48095 152.94414 888.92599 151.8262 889.94727 151.86719 z M 1267.8984 151.86719 C 1271.5459 152.01356 1269.7956 166.93524 1263.5449 156.10938 C 1265.4321 152.94414 1266.8772 151.8262 1267.8984 151.86719 z M 968.71484 152.64062 C 968.82778 152.63826 968.93924 152.64403 969.05078 152.6582 C 973.61152 153.23787 976.82544 167.23268 963.96094 160.20312 C 965.19327 154.62939 967.02083 152.67616 968.71484 152.64062 z M 1346.666 152.64062 C 1346.779 152.63827 1346.8904 152.64403 1347.002 152.6582 C 1351.5627 153.23787 1354.7766 167.23268 1341.9121 160.20312 C 1343.1445 154.6294 1344.9719 152.67616 1346.666 152.64062 z M 591.09766 152.6582 C 595.6584 153.23787 598.87232 167.23268 586.00781 160.20312 C 587.32231 154.2578 589.31302 152.43138 591.09766 152.6582 z M 114.59375 157.74414 C 120.19032 158.1167 134.56091 170.9547 132.21289 178.10742 C 138.6286 184.4758 118.67543 205.72117 127.97266 201.87305 C 149.57823 194.91254 135.29374 173.61585 131.87695 162.02148 C 149.55115 158.8496 158.4712 189.07012 144.97461 200.375 C 139.77655 204.81938 132.10929 207.04127 125.38672 205.48047 C 119.62036 194.9615 129.66647 173.24393 113.36133 163.58789 C 111.77251 159.60323 112.35828 157.90306 114.08008 157.74805 C 114.2415 157.73351 114.41322 157.73212 114.59375 157.74414 z M 1737.75 157.74414 C 1737.9305 157.73212 1738.1023 157.73351 1738.2637 157.74805 C 1739.9855 157.90306 1740.5712 159.60323 1738.9824 163.58789 C 1722.6773 173.24393 1732.7253 194.9615 1726.959 205.48047 C 1720.2364 207.04127 1712.5692 204.81938 1707.3711 200.375 C 1693.8745 189.07012 1702.7945 158.8496 1720.4688 162.02148 C 1717.052 173.61585 1702.7655 194.91254 1724.3711 201.87305 C 1733.6684 205.72117 1713.7171 184.4758 1720.1328 178.10742 C 1717.7848 170.9547 1732.1535 158.1167 1737.75 157.74414 z M 99.324219 159.88281 C 100.52043 176.37591 102.61539 193.42542 115.29102 205.66797 C 112.51854 204.34652 109.96549 202.63113 107.35547 201.02734 C 92.713171 195.05632 79.529688 164.59224 99.324219 159.88281 z M 1753.0215 159.88281 C 1772.816 164.59224 1759.6325 195.05632 1744.9902 201.02734 C 1742.3802 202.63113 1739.8272 204.34652 1737.0547 205.66797 C 1749.7303 193.42542 1751.8253 176.37591 1753.0215 159.88281 z M 551.70508 162.79883 C 564.6169 162.89867 577.52592 169.02267 577.89258 182.1875 C 567.96962 195.32965 547.23719 155.26206 534.99609 182.98047 C 533.63686 187.75782 530.48057 191.85042 526.03906 184.19727 C 522.43409 170.31035 537.07168 162.68567 551.70508 162.79883 z M 929.66016 162.79883 C 942.57198 162.89867 955.47904 169.02267 955.8457 182.1875 C 945.92274 195.32965 925.19227 155.26206 912.95117 182.98047 C 911.59194 187.75782 908.4337 191.85042 903.99219 184.19727 C 900.38721 170.31035 915.02676 162.68567 929.66016 162.79883 z M 1307.6113 162.79883 C 1320.5231 162.89867 1333.4302 169.02267 1333.7969 182.1875 C 1323.8739 195.32965 1303.1434 155.26206 1290.9023 182.98047 C 1289.5431 187.75782 1286.3849 191.85042 1281.9434 184.19727 C 1278.3384 170.31035 1292.9779 162.68567 1307.6113 162.79883 z M 506.42578 162.98828 C 510.35043 163.02388 507.95755 178.21044 501.5918 167.42383 C 503.73277 164.15514 505.32688 162.97831 506.42578 162.98828 z M 884.38086 162.98828 C 888.3055 163.02388 885.91262 178.21044 879.54688 167.42383 C 881.68784 164.15514 883.28196 162.97831 884.38086 162.98828 z M 1262.332 162.98828 C 1266.2567 163.02388 1263.8638 178.21044 1257.498 167.42383 C 1259.639 164.15514 1261.2331 162.97831 1262.332 162.98828 z M 231.56836 163.13672 C 236.41243 163.00687 256.32886 173.72496 237.9043 169.83789 L 235.7832 168.93945 L 233.72656 167.82617 C 230.01386 164.42949 229.95367 163.18 231.56836 163.13672 z M 1620.7773 163.13672 C 1622.392 163.18 1622.3318 164.42949 1618.6191 167.82617 L 1616.5605 168.93945 L 1614.4414 169.83789 C 1596.0168 173.72496 1615.9333 163.00687 1620.7773 163.13672 z M 636.68555 163.45703 C 654.24386 163.68713 681.71798 179.15856 648.31836 171.80273 C 637.90981 165.54251 591.22692 168.97191 628.40039 165.13867 C 630.52219 163.89425 633.43401 163.41442 636.68555 163.45703 z M 1014.6387 163.45703 C 1032.197 163.68713 1059.6731 179.15856 1026.2734 171.80273 C 1015.8649 165.54251 969.18007 168.97191 1006.3535 165.13867 C 1008.4753 163.89425 1011.3871 163.41442 1014.6387 163.45703 z M 1392.5898 163.45703 C 1410.1482 163.68713 1437.6242 179.15856 1404.2246 171.80273 C 1393.8161 165.54251 1347.1312 168.97191 1384.3047 165.13867 C 1386.4265 163.89425 1389.3383 163.41442 1392.5898 163.45703 z M 454.54688 163.88672 C 470.08666 163.7235 487.68144 167.33833 477.91602 168.64258 C 463.09509 165.88633 448.32662 173.94923 434.95703 171.47852 C 434.24329 165.88015 443.91439 163.99839 454.54688 163.88672 z M 832.5 163.88672 C 848.03979 163.7235 865.63456 167.33833 855.86914 168.64258 C 841.04821 165.88633 826.2817 173.94923 812.91211 171.47852 C 812.19836 165.88015 821.86751 163.99839 832.5 163.88672 z M 1210.4512 163.88672 C 1225.991 163.7235 1243.5857 167.33833 1233.8203 168.64258 C 1218.9994 165.88633 1204.2329 173.94923 1190.8633 171.47852 C 1190.1495 165.88015 1199.8187 163.99839 1210.4512 163.88672 z M 974.57227 164.4082 C 978.92804 164.75716 983.03105 177.51237 970.42383 170.97461 C 971.18575 166.33633 972.65191 164.58075 974.15039 164.41406 C 974.29087 164.39844 974.43176 164.39695 974.57227 164.4082 z M 1352.5234 164.4082 C 1356.8792 164.75716 1360.9822 177.51237 1348.375 170.97461 C 1349.1369 166.33633 1350.6031 164.58075 1352.1016 164.41406 C 1352.242 164.39844 1352.3829 164.39695 1352.5234 164.4082 z M 596.19531 164.41406 C 600.69074 163.91399 605.48462 177.72327 592.4707 170.97461 C 593.23263 166.33633 594.69684 164.58075 596.19531 164.41406 z M 108.30469 165.38867 C 108.9975 165.43547 109.77152 165.61219 110.63477 165.93359 C 118.6255 169.09408 127.76282 213.89307 112.63477 198.31055 C 106.02491 193.13146 97.912473 164.68669 108.30469 165.38867 z M 1744.041 165.38867 C 1754.4332 164.68669 1746.3188 193.13146 1739.709 198.31055 C 1724.5809 213.89307 1733.7182 169.09408 1741.709 165.93359 C 1742.5722 165.61219 1743.3482 165.43547 1744.041 165.38867 z M 178.04297 170.39258 C 180.40619 170.75315 180.73233 193.56761 177.35352 197.02539 C 171.66322 217.0043 151.5251 235.0033 129.7793 229.70898 C 111.13427 215.42141 144.85631 234.0157 151.76367 223.49219 C 169.46033 214.07139 177.18059 193.40891 176.10156 174.24414 C 176.84329 171.42201 177.49761 170.30937 178.04297 170.39258 z M 1674.3027 170.39258 C 1674.8481 170.30937 1675.5024 171.42201 1676.2441 174.24414 C 1675.1651 193.40891 1682.8854 214.07139 1700.582 223.49219 C 1707.4894 234.0157 1741.2114 215.42141 1722.5664 229.70898 C 1700.8206 235.0033 1680.6805 217.0043 1674.9902 197.02539 C 1671.6114 193.56761 1671.9395 170.75315 1674.3027 170.39258 z M 482.47266 171.48438 C 499.48522 172.68621 453.969 175.32723 454.47266 187.18164 C 460.46763 207.70012 432.43812 214.07714 418.33984 206.73633 C 406.06348 170.03552 462.33669 182.25343 482.47266 171.48438 z M 860.42578 171.48438 C 877.43834 172.6862 831.92407 175.32723 832.42773 187.18164 C 838.42271 207.70012 810.39125 214.07714 796.29297 206.73633 C 784.01661 170.03552 840.28982 182.25342 860.42578 171.48438 z M 1238.377 171.48438 C 1255.3895 172.68619 1209.8752 175.32723 1210.3789 187.18164 C 1216.3739 207.70012 1188.3424 214.07714 1174.2441 206.73633 C 1161.9678 170.03552 1218.241 182.25341 1238.377 171.48438 z M 184.30469 173.17969 C 193.10159 188.17621 182.73644 212.12879 172.96289 226.40625 C 160.02599 243.00915 136.41025 254.71668 115.62891 249.91016 C 131.73433 246.56896 148.72219 242.13846 160.97266 230.11914 C 176.54132 215.43393 183.05143 193.79586 184.30469 173.17969 z M 1668.041 173.17969 C 1669.2943 193.79586 1675.8044 215.43393 1691.373 230.11914 C 1703.6235 242.13846 1720.6094 246.56896 1736.7148 249.91016 C 1715.9335 254.71668 1692.3178 243.00915 1679.3809 226.40625 C 1669.6073 212.12879 1659.2441 188.17621 1668.041 173.17969 z M 83.410156 174.52148 C 88.586106 187.05849 86.966447 212.74191 109.91992 207.07031 C 116.95932 213.33782 91.524648 212.14394 88.115234 209.75195 C 74.383697 205.02528 67.362377 180.18594 83.410156 174.52148 z M 1768.9355 174.52148 C 1784.9833 180.18594 1777.96 205.02528 1764.2285 209.75195 C 1760.8191 212.14394 1735.3844 213.33782 1742.4238 207.07031 C 1765.3773 212.74191 1763.7596 187.05849 1768.9355 174.52148 z M 618.4043 174.86523 C 642.80584 174.90395 670.78106 179.15017 687.57422 191.47852 C 690.15575 211.67842 670.66135 209.62491 657.11719 205.44336 L 654.09766 203.66211 C 650.81336 178.28754 618.08814 179.38878 602.26367 175.46289 C 607.33288 175.07147 612.77317 174.8563 618.4043 174.86523 z M 996.35938 174.86523 C 1020.7609 174.90395 1048.7361 179.15017 1065.5293 191.47852 C 1068.1108 211.67842 1048.6145 209.62491 1035.0703 205.44336 L 1032.0527 203.66211 C 1028.7684 178.28754 996.04322 179.38878 980.21875 175.46289 C 985.28795 175.07147 990.72825 174.8563 996.35938 174.86523 z M 1374.3105 174.86523 C 1398.7121 174.90395 1426.6873 179.15017 1443.4805 191.47852 C 1446.062 211.67842 1426.5656 209.62491 1413.0215 205.44336 L 1410.0039 203.66211 C 1406.7196 178.28754 1373.9944 179.38878 1358.1699 175.46289 C 1363.2391 175.07147 1368.6794 174.8563 1374.3105 174.86523 z M 136.19922 177.61523 C 136.6898 177.74394 137.15047 179.68109 137.57031 184.56055 C 140.34606 188.13073 128.00935 206.13667 132.09766 193.16992 C 133.50406 188.77228 134.9455 177.28632 136.19922 177.61523 z M 1716.1465 177.61523 C 1717.4002 177.28632 1718.8416 188.77228 1720.248 193.16992 C 1724.3363 206.13667 1711.9996 188.13073 1714.7754 184.56055 C 1715.1952 179.68109 1715.6559 177.74394 1716.1465 177.61523 z M 483.28711 178.37891 C 486.94488 178.40776 486.6413 180.20675 475.88281 184.23633 C 474.50196 185.76757 457.62279 198.80006 462.13672 188.1543 C 464.13396 182.07572 477.94114 178.33673 483.28711 178.37891 z M 861.24219 178.37891 C 864.89996 178.40776 864.59638 180.20675 853.83789 184.23633 C 852.45704 185.76757 835.57592 198.80006 840.08984 188.1543 C 842.08709 182.07572 855.89622 178.33673 861.24219 178.37891 z M 1239.1934 178.37891 C 1242.8511 178.40776 1242.5476 180.20675 1231.7891 184.23633 C 1230.4082 185.76757 1213.5271 198.80006 1218.041 188.1543 C 1220.0383 182.07572 1233.8474 178.33673 1239.1934 178.37891 z M 196.70508 178.39062 C 191.79641 195.61832 192.71602 213.05959 204.53711 226.66211 L 203.65039 226.67969 L 200.05273 224.49805 L 200.05273 224.5 C 185.11078 215.75771 188.23386 181.52328 196.70508 178.39062 z M 1655.6406 178.39062 C 1664.1119 181.52328 1667.2349 215.75771 1652.293 224.5 L 1652.293 224.49805 L 1648.6953 226.67969 L 1647.8086 226.66211 C 1659.6297 213.05959 1660.5493 195.61832 1655.6406 178.39062 z M 930.10547 179.63477 C 930.46396 179.63093 930.82089 179.63617 931.17578 179.65234 C 938.94607 180.0065 945.64263 185.20501 942.10742 197.39453 C 937.81611 206.34538 926.02173 211.9158 918.83008 202.44336 C 906.56687 189.38644 918.99211 179.75355 930.10547 179.63477 z M 1308.0566 179.63477 C 1308.4151 179.63093 1308.7721 179.63617 1309.127 179.65234 C 1316.8972 180.0065 1323.5938 185.20501 1320.0586 197.39453 C 1315.7673 206.34538 1303.9729 211.9158 1296.7812 202.44336 C 1284.5181 189.38644 1296.9433 179.75355 1308.0566 179.63477 z M 553.2207 179.65234 C 560.99099 180.0065 567.68951 185.20501 564.1543 197.39453 C 559.86298 206.34538 548.06665 211.9158 540.875 202.44336 C 528.2162 188.96525 541.86413 179.13474 553.2207 179.65234 z M 621.1543 180.87305 C 627.88602 181.13166 647.0465 189.01114 637.26562 194.48828 C 633.29017 193.24767 629.98927 190.67479 626.75195 188.17969 C 617.51124 182.69302 617.62815 180.73758 621.1543 180.87305 z M 998.48828 180.87305 C 998.68056 180.86483 998.88704 180.86458 999.10742 180.87305 C 1005.8391 181.13166 1025.0016 189.01114 1015.2207 194.48828 C 1011.2452 193.24767 1007.9443 190.67479 1004.707 188.17969 C 996.04389 183.03593 995.60404 180.99635 998.48828 180.87305 z M 1376.4395 180.87305 C 1376.6317 180.86483 1376.8382 180.86458 1377.0586 180.87305 C 1383.7903 181.13166 1402.9527 189.01114 1393.1719 194.48828 C 1389.1964 193.24767 1385.8955 190.67479 1382.6582 188.17969 C 1373.995 183.03593 1373.5552 180.99635 1376.4395 180.87305 z M 604.51758 182.0625 C 606.79599 181.99507 606.53623 182.75363 601.80859 184.48242 C 563.20208 199.15963 556.90246 244.94669 556.78711 281.02539 C 545.74276 308.11804 545.99078 266.94326 544.74414 260.45117 C 545.88628 228.7512 530.19374 195.82441 498.72656 184.98047 C 524.36401 177.29006 543.91088 229.60586 567.47461 201.05273 C 567.99222 189.89855 597.68235 182.26478 604.51758 182.0625 z M 982.47266 182.0625 C 984.75107 181.99507 984.48935 182.75363 979.76172 184.48242 C 941.15521 199.15963 934.85754 244.94669 934.74219 281.02539 C 923.69784 308.11804 923.94586 266.94326 922.69922 260.45117 C 923.84135 228.7512 908.14686 195.82441 876.67969 184.98047 C 902.31713 177.29006 921.86596 229.60586 945.42969 201.05273 C 945.94729 189.89855 975.63743 182.26478 982.47266 182.0625 z M 1360.4238 182.0625 C 1362.7022 181.99507 1362.4405 182.75363 1357.7129 184.48242 C 1319.1064 199.15963 1312.8087 244.94669 1312.6934 281.02539 C 1301.649 308.11804 1301.897 266.94326 1300.6504 260.45117 C 1301.7925 228.7512 1286.098 195.82441 1254.6309 184.98047 C 1280.2683 177.29006 1299.8171 229.60586 1323.3809 201.05273 C 1323.8985 189.89855 1353.5886 182.26478 1360.4238 182.0625 z M 607.05078 186.75 C 621.32012 186.57894 680.4436 220.8295 630.60547 227.27344 C 599.9411 225.06337 636.37973 191.8239 607.05078 186.75 z M 985.00586 186.75 C 999.2752 186.57894 1058.3987 220.8295 1008.5605 227.27344 C 977.89623 225.06337 1014.3348 191.8239 985.00586 186.75 z M 1362.957 186.75 C 1377.2264 186.57894 1436.3499 220.8295 1386.5117 227.27344 C 1355.8474 225.06337 1392.286 191.8239 1362.957 186.75 z M 493.91992 190.26367 C 495.49458 190.25043 496.45297 190.51321 496.54492 191.07617 C 467.87974 197.10542 501.78583 234.11746 466.96875 231.02148 C 459.999 235.71166 456.74933 228.06095 454.62891 222.91016 C 441.59406 203.97907 482.89729 190.35635 493.91992 190.26367 z M 871.875 190.26367 C 873.44966 190.25043 874.40609 190.51321 874.49805 191.07617 C 845.83286 197.10542 879.73895 234.11746 844.92188 231.02148 C 837.95212 235.71166 834.70246 228.06095 832.58203 222.91016 C 819.54718 203.97907 860.85237 190.35635 871.875 190.26367 z M 1249.8262 190.26367 C 1251.4008 190.25043 1252.3573 190.51321 1252.4492 191.07617 C 1223.784 197.10542 1257.6901 234.11746 1222.873 231.02148 C 1215.9033 235.71166 1212.6536 228.06095 1210.5332 222.91016 C 1197.4984 203.97907 1238.8035 190.35635 1249.8262 190.26367 z M 92.015625 190.94922 C 93.4625 190.96965 95.905192 192.79963 98.617188 197.14648 C 111.4482 205.59542 105.52224 206.90804 94.333984 200.23828 C 89.915874 194.75419 89.900961 190.91936 92.015625 190.94922 z M 1760.3301 190.94922 C 1762.4447 190.91936 1762.4298 194.75419 1758.0117 200.23828 C 1746.8234 206.90804 1740.8955 205.59542 1753.7266 197.14648 C 1756.4386 192.79963 1758.8832 190.96965 1760.3301 190.94922 z M 156.74805 195.82422 C 159.88311 196.08461 154.8453 204.55395 150.55859 199.11914 C 153.75053 196.56272 155.70303 195.73742 156.74805 195.82422 z M 1695.5957 195.82422 C 1696.6407 195.73742 1698.5952 196.56272 1701.7871 199.11914 C 1697.5004 204.55395 1692.4606 196.08461 1695.5957 195.82422 z M 233.5918 198.05469 C 238.40953 198.22716 241.91529 201.65824 231.9707 204.88281 C 230.78091 207.26678 224.72829 211.30258 225.68164 205.19727 C 225.30323 199.75747 229.84467 197.92055 233.5918 198.05469 z M 1618.7539 198.05469 C 1622.501 197.92055 1627.0405 199.75747 1626.6621 205.19727 C 1627.6155 211.30258 1621.5628 207.26678 1620.373 204.88281 C 1610.4285 201.65824 1613.9362 198.22716 1618.7539 198.05469 z M 248.92578 201.92578 C 253.34748 201.8689 257.78202 203.21292 261.70117 206.38477 C 274.87747 218.29561 256.01002 222.15168 249.17969 212.08984 C 236.54198 201.34342 214.88409 239.56903 236.72266 224.38672 C 251.32665 214.12472 279.66072 228.51845 268.69531 245.41602 L 266.94336 243.43359 C 257.6147 227.82083 237.1457 232.52401 223.79297 228.8125 C 222.517 214.88347 235.66068 202.09644 248.92578 201.92578 z M 1603.4199 201.92578 C 1616.685 202.09644 1629.8287 214.88347 1628.5527 228.8125 C 1615.2 232.52401 1594.7291 227.82083 1585.4004 243.43359 L 1583.6504 245.41602 C 1572.685 228.51845 1601.0171 214.12472 1615.6211 224.38672 C 1637.4597 239.56903 1615.8037 201.34342 1603.166 212.08984 C 1596.3357 222.15168 1577.4682 218.29561 1590.6445 206.38477 C 1594.5637 203.21292 1598.9982 201.8689 1603.4199 201.92578 z M 151.12891 203.375 C 155.26247 203.53999 157.32208 205.01131 148.35547 208.65625 L 146.84961 208.2168 L 143.92773 207.38086 C 137.07061 205.11085 145.81433 203.16287 151.12891 203.375 z M 1701.2168 203.375 C 1706.5314 203.16287 1715.2731 205.11085 1708.416 207.38086 L 1705.4941 208.2168 L 1703.9902 208.65625 C 1695.0236 205.01131 1697.0832 203.53999 1701.2168 203.375 z M 132.60156 208.42969 C 137.45569 208.62757 147.07141 218.02805 133.41406 217.0918 L 131.29297 215.04492 C 129.42217 210.37952 130.32357 208.60756 132.14844 208.43945 C 132.29417 208.42603 132.44498 208.4233 132.60156 208.42969 z M 1719.5566 208.43945 C 1721.7871 208.2477 1723.1295 209.86115 1721.0508 215.04492 L 1718.9316 217.0918 C 1705.4467 218.01623 1714.6496 208.86131 1719.5566 208.43945 z M 120.58203 209.29297 C 121.47802 209.31408 122.48779 209.45254 123.62109 209.71875 C 131.7053 220.15479 110.95762 223.76552 118.98828 237.19336 C 118.74405 238.23246 120.07606 249.55823 116.42188 244.98438 C 119.07017 234.83693 107.14218 208.97628 120.58203 209.29297 z M 1731.7617 209.29297 C 1745.2016 208.97628 1733.2755 234.83693 1735.9238 244.98438 C 1732.2696 249.55824 1733.6016 238.23246 1733.3574 237.19336 C 1741.3881 223.76552 1720.6404 220.15479 1728.7246 209.71875 C 1729.8579 209.45254 1730.8657 209.31408 1731.7617 209.29297 z M 217.83594 210.60156 C 222.95833 210.35918 228.76589 214.22724 219.45703 221.98047 L 216.73438 220.99609 C 209.33025 214.22876 213.31618 210.81543 217.83594 210.60156 z M 1633.6016 210.60156 C 1638.4471 210.37534 1643.5091 213.77761 1635.6113 220.99609 L 1632.8887 221.98047 C 1624.1274 214.68332 1628.756 210.82778 1633.6016 210.60156 z M 78.109375 212.42578 C 78.956465 212.42637 79.915095 212.44045 80.996094 212.46875 C 85.308357 215.30935 106.73662 213.98959 91.412109 221.26953 L 87.910156 220.46289 L 84.474609 218.17969 C 77.966479 215.41767 65.403023 212.41693 78.109375 212.42578 z M 1774.2363 212.42578 C 1786.9427 212.41693 1774.3773 215.41767 1767.8691 218.17969 L 1764.4336 220.46289 L 1760.9336 221.26953 C 1745.6091 213.98959 1767.0354 215.30935 1771.3477 212.46875 C 1772.4287 212.44045 1773.3892 212.42637 1774.2363 212.42578 z M 106.7168 214.16602 C 110.75868 214.04235 114.30198 217.19823 107.72852 223.64258 C 105.88509 227.88145 102.45291 225.43005 101.46289 222.14453 C 99.195936 216.93652 103.15043 214.27513 106.7168 214.16602 z M 1745.6289 214.16602 C 1749.1953 214.27513 1753.1498 216.93652 1750.8828 222.14453 C 1749.8928 225.43005 1746.4606 227.88145 1744.6172 223.64258 C 1738.0437 217.19823 1741.587 214.04235 1745.6289 214.16602 z M 242.82422 214.32422 C 250.5281 214.20252 257.04149 218.9595 242.45117 219.97656 C 239.53656 219.52621 234.2895 223.98038 231.9707 221.67383 C 233.15079 216.22772 238.20189 214.39724 242.82422 214.32422 z M 1609.5195 214.32422 C 1614.1419 214.39724 1619.193 216.22772 1620.373 221.67383 C 1618.0543 223.98038 1612.8092 219.52621 1609.8945 219.97656 C 1595.3042 218.9595 1601.8157 214.20252 1609.5195 214.32422 z M 268.30664 218.58008 C 271.02983 218.40611 275.75978 223.50691 271.66797 229.20312 L 270.07812 228.12305 L 267.91211 225.59961 C 265.76105 220.6867 266.67273 218.68446 268.30664 218.58008 z M 1584.0391 218.58008 C 1585.673 218.68446 1586.5827 220.6867 1584.4316 225.59961 L 1582.2656 228.12305 L 1580.6758 229.20312 C 1576.584 223.5069 1581.3159 218.40611 1584.0391 218.58008 z M 213.08203 223.68555 C 217.77472 223.62551 223.00318 227.18186 219.10352 233.84375 C 216.72916 235.30076 212.46269 238.96226 210.27539 235.22656 C 204.2321 227.4222 208.38934 223.74558 213.08203 223.68555 z M 1639.2637 223.68555 C 1643.9564 223.74558 1648.1136 227.4222 1642.0703 235.22656 C 1639.883 238.96226 1635.6166 235.30076 1633.2422 233.84375 C 1629.3425 227.18186 1634.571 223.62551 1639.2637 223.68555 z M 110.89648 223.92188 C 114.77634 238.46222 112.60425 259.22522 114.35742 276.05469 C 114.67653 294.80465 117.04561 313.69956 114.96289 332.37305 C 114.65509 334.95116 109.39395 336.72606 108.97266 333.30078 C 108.02447 296.8781 108.49723 260.26947 110.89648 223.92188 z M 1741.4473 223.92188 C 1743.8465 260.26948 1744.3213 296.8781 1743.373 333.30078 C 1742.9518 336.72606 1737.6905 334.95116 1737.3828 332.37305 C 1735.3001 313.69956 1737.6693 294.80465 1737.9883 276.05469 C 1739.7415 259.22522 1737.5674 238.46223 1741.4473 223.92188 z M 534.22461 226.5957 C 547.5087 249.46045 496.60162 239.25559 487.02539 257.00977 C 460.75771 274.19805 450.20026 307.67484 447.69727 335.83203 L 446.8418 332.72266 C 435.95196 280.20603 482.52785 228.95284 534.22461 226.5957 z M 912.17773 226.5957 C 925.46183 249.46045 874.55474 239.25559 864.97852 257.00977 C 838.71084 274.19805 828.15534 307.67484 825.65234 335.83203 L 824.79492 332.72266 C 813.90508 280.20603 860.48099 228.95284 912.17773 226.5957 z M 1290.1289 226.5957 C 1303.413 249.46045 1252.5059 239.25559 1242.9297 257.00977 C 1216.662 274.19805 1206.1046 307.67484 1203.6016 335.83203 L 1202.7461 332.72266 C 1191.8563 280.20603 1238.4322 228.95284 1290.1289 226.5957 z M 88.533203 227.12695 C 89.1151 227.11651 89.77208 227.18959 90.511719 227.35742 C 86.094819 238.1239 121.77758 256.17332 96.794922 246.15234 C 88.252133 246.23536 79.804751 227.28363 88.533203 227.12695 z M 1763.8125 227.12695 C 1772.541 227.28363 1764.0936 246.23536 1755.5508 246.15234 C 1730.5681 256.17332 1766.2489 238.1239 1761.832 227.35742 C 1762.5717 227.18959 1763.2306 227.11651 1763.8125 227.12695 z M 578.2168 231.75 C 596.72598 231.82698 618.87334 254.6723 631.51953 267.41602 C 670.55801 309.37081 664.44169 372.94723 643.09961 421.77148 C 629.76135 452.94903 615.68158 484.8148 596.0918 512.33203 L 594.50586 510.04492 C 602.23651 479.77533 621.39542 453.00809 630.00586 422.625 C 647.44959 376.26275 655.06504 318.76012 621.68164 277.38672 C 610.10302 255.09113 579.41328 251.51677 566.14453 235.73828 C 569.86672 232.92716 573.94545 231.73224 578.2168 231.75 z M 956.16992 231.75 C 974.67911 231.82698 996.82842 254.6723 1009.4746 267.41602 C 1048.5131 309.37081 1042.3968 372.94723 1021.0547 421.77148 C 1007.7164 452.94903 993.63665 484.8148 974.04688 512.33203 L 972.45898 510.04492 C 980.18963 479.77533 999.34852 453.00809 1007.959 422.625 C 1025.4027 376.26275 1033.0201 318.76012 999.63672 277.38672 C 988.0581 255.09113 957.36836 251.51677 944.09961 235.73828 C 947.8218 232.92716 951.89857 231.73224 956.16992 231.75 z M 1334.1211 231.75 C 1352.6303 231.82698 1374.7796 254.6723 1387.4258 267.41602 C 1426.4643 309.37081 1420.3479 372.94723 1399.0059 421.77148 C 1385.6676 452.94903 1371.5878 484.8148 1351.998 512.33203 L 1350.4102 510.04492 C 1358.1408 479.77533 1377.2997 453.00809 1385.9102 422.625 C 1403.3539 376.26275 1410.9713 318.76012 1377.5879 277.38672 C 1366.0093 255.09113 1335.3195 251.51677 1322.0508 235.73828 C 1325.773 232.92716 1329.8497 231.73224 1334.1211 231.75 z M 232.63086 232.58789 C 234.23543 232.53162 236.26902 232.7036 238.79297 233.1582 C 251.1672 229.76965 279.07521 253.22404 252.07617 249.47266 C 248.47808 249.13159 244.8391 248.60187 241.47461 247.21094 C 231.21934 244.47535 221.3989 232.98179 232.63086 232.58789 z M 1619.7148 232.58789 C 1630.9468 232.98179 1621.1263 244.47535 1610.8711 247.21094 C 1607.5066 248.60187 1603.8657 249.13159 1600.2676 249.47266 C 1573.2686 253.22404 1601.1785 229.76965 1613.5527 233.1582 C 1616.0767 232.7036 1618.1103 232.53162 1619.7148 232.58789 z M 202.97852 236.26562 C 208.23367 236.20646 217.88033 241.43135 206.43945 244.74805 L 204.66992 243.94336 L 201.99805 241.74023 C 198.67814 237.77633 200.22581 236.29664 202.97852 236.26562 z M 1649.3672 236.26562 C 1652.1199 236.29664 1653.6676 237.77633 1650.3477 241.74023 L 1647.6758 243.94336 L 1645.9043 244.74805 C 1634.4634 241.43135 1644.112 236.20645 1649.3672 236.26562 z M 224.43945 240.53125 C 225.58485 240.6014 227.65974 241.96949 230.94727 245.3125 C 239.32031 254.93239 258.37549 252.43399 265.94922 254.33398 C 258.21895 263.14259 244.96646 265.28122 234.99219 258.69336 C 228.12824 256.59463 220.34876 240.2807 224.43945 240.53125 z M 1627.9062 240.53125 C 1631.9969 240.2807 1624.2175 256.59463 1617.3535 258.69336 C 1607.3792 265.28122 1594.1268 263.14259 1586.3965 254.33398 C 1593.9702 252.43399 1613.0254 254.93434 1621.3984 245.31445 C 1624.686 241.97145 1626.7612 240.6014 1627.9062 240.53125 z M 220.24609 240.76758 C 209.80358 259.07569 230.38047 266.60417 243.95508 267.88672 C 241.79904 277.64618 227.56556 275.33691 221.0625 271.97266 C 208.13766 267.2653 206.42869 241.22447 220.24609 240.76758 z M 1632.0996 240.76758 C 1645.917 241.22447 1644.2081 267.2653 1631.2832 271.97266 C 1624.7801 275.33691 1610.5467 277.64618 1608.3906 267.88672 C 1621.9652 266.60417 1642.5421 259.07569 1632.0996 240.76758 z M 221.66406 249.08789 C 222.53214 249.05738 224.06437 250.64995 225.92578 254.66602 C 230.57395 259.83507 241.38107 264.4474 228.01758 261.30859 L 224.40625 259.0625 C 220.61488 253.69936 220.21727 249.13875 221.66406 249.08789 z M 1630.6797 249.08789 C 1632.1265 249.13875 1631.7289 253.69936 1627.9375 259.0625 L 1627.9414 259.0625 L 1624.3281 261.30859 C 1610.9646 264.4474 1621.7717 259.83507 1626.4199 254.66602 C 1628.2813 250.64995 1629.8116 249.05738 1630.6797 249.08789 z M 206.42969 249.58398 C 208.41088 249.6523 209.47056 252.25618 206.51953 258.73047 C 207.37579 261.83904 202.86753 266.66441 201.48242 261.35352 C 198.67064 254.79937 203.5341 249.48414 206.42969 249.58398 z M 1645.916 249.58398 C 1648.8116 249.48414 1653.6751 254.79937 1650.8633 261.35352 C 1649.4782 266.66441 1644.9699 261.83904 1645.8262 258.73047 C 1642.8751 252.25618 1643.9348 249.6523 1645.916 249.58398 z M 169.26367 254.22266 C 173.8809 254.32762 178.08844 256.61961 180.17969 262.09766 C 181.12787 273.41063 171.17382 269.94188 169.28125 262.86719 C 151.06097 253.90628 161.7885 288.21572 152.66406 277.63867 C 144.81412 266.76298 157.39022 254.65803 168.33594 254.23047 C 168.64689 254.21832 168.95586 254.21566 169.26367 254.22266 z M 1683.082 254.22266 C 1683.3899 254.21566 1683.6988 254.21832 1684.0098 254.23047 C 1694.9555 254.65803 1707.5296 266.76496 1699.6797 277.64062 C 1690.5552 288.21767 1701.2848 253.90628 1683.0645 262.86719 C 1681.1719 269.94188 1671.2159 273.41063 1672.1641 262.09766 C 1674.2552 256.61961 1678.4645 254.32762 1683.082 254.22266 z M 117.5957 255.53125 C 117.96818 255.47578 118.43012 255.6386 118.99414 256.05859 C 121.47938 275.17133 122.95559 299.31574 143.00391 308.64844 C 160.50929 319.02797 184.65305 304.92274 186.05664 285.06445 C 189.45714 302.77924 173.16201 320.78315 155.03906 318.08008 C 138.93727 321.65522 127.24032 304.91436 120.69531 295.48242 C 124.1516 310.75101 129.34599 331.35231 147.38867 331.12305 C 140.64744 331.68002 136.03183 340.42677 129.0957 333.67969 C 118.52181 319.06729 120.1665 299.20716 118.44922 281.9375 C 118.66463 276.94588 113.99512 256.06745 117.5957 255.53125 z M 1734.4512 255.53125 C 1734.5555 255.51722 1734.6549 255.51738 1734.748 255.53125 C 1738.3486 256.06745 1733.681 276.94588 1733.8965 281.9375 C 1732.1792 299.20716 1733.8239 319.06729 1723.25 333.67969 C 1716.3139 340.42677 1711.6983 331.68002 1704.957 331.12305 C 1722.9997 331.35231 1728.1941 310.75101 1731.6504 295.48242 C 1725.1053 304.91436 1713.4084 321.65522 1697.3066 318.08008 C 1679.1837 320.78315 1662.8886 302.77924 1666.2891 285.06445 C 1667.6927 304.92274 1691.8364 319.02797 1709.3418 308.64844 C 1729.3901 299.31574 1730.8663 275.17133 1733.3516 256.05859 C 1733.7746 255.7436 1734.1383 255.57333 1734.4512 255.53125 z M 252.64258 264.95898 C 256.29267 264.86111 257.89353 268.75628 249.34375 271.49219 C 247.74538 272.33318 245.80669 270.73312 246.38281 269.13867 C 248.25496 266.1563 250.73063 265.01025 252.64258 264.95898 z M 1599.7031 264.95898 C 1601.6151 265.01025 1604.0888 266.1563 1605.9609 269.13867 C 1606.5371 270.73312 1604.6003 272.33318 1603.002 271.49219 C 1594.4522 268.75628 1596.053 264.86111 1599.7031 264.95898 z M 175.51758 276.34375 C 179.63275 276.42848 182.76961 279.01113 182.81055 286.5918 C 173.48931 272.03941 167.27402 294.33243 156.60938 285.1875 C 159.08516 283.00306 168.65896 276.20253 175.51758 276.34375 z M 1676.8281 276.34375 C 1683.6867 276.20253 1693.2605 283.00306 1695.7363 285.1875 C 1685.0716 294.33243 1678.8564 272.03941 1669.5352 286.5918 C 1669.5761 279.01113 1672.713 276.42848 1676.8281 276.34375 z M 556.01953 291.57422 C 558.38723 291.56322 560.77186 291.70865 563.16211 292.01953 C 595.84818 293.65723 626.04098 315.76566 641.60742 343.67578 C 643.74384 357.95365 641.31681 378.63559 632.79492 356.16602 C 614.86386 325.05665 577.95255 296.66722 540.71094 308.41016 C 514.61923 315.98414 500.04303 341.83896 500.36523 367.85352 C 500.14375 378.11349 498.3702 365.18962 497.0957 362.64258 C 488.73768 326.96206 520.50403 291.73919 556.01953 291.57422 z M 933.97461 291.57422 C 936.34231 291.56322 938.72694 291.70865 941.11719 292.01953 C 973.80326 293.65723 1003.9941 315.76566 1019.5605 343.67578 C 1021.697 357.95365 1019.2719 378.63559 1010.75 356.16602 C 992.81894 325.05665 955.90568 296.66722 918.66406 308.41016 C 892.57236 315.98414 877.99811 341.83896 878.32031 367.85352 C 878.09883 378.11349 876.32528 365.18962 875.05078 362.64258 C 866.69276 326.96206 898.45911 291.73919 933.97461 291.57422 z M 1311.9258 291.57422 C 1314.2935 291.56322 1316.6781 291.70865 1319.0684 292.01953 C 1351.7544 293.65723 1381.9453 315.76566 1397.5117 343.67578 C 1399.6481 357.95365 1397.2231 378.63559 1388.7012 356.16602 C 1370.7701 325.05665 1333.8568 296.66722 1296.6152 308.41016 C 1270.5235 315.98414 1255.9493 341.83896 1256.2715 367.85352 C 1256.05 378.11349 1254.2764 365.18962 1253.002 362.64258 C 1244.6439 326.96206 1276.4103 291.73919 1311.9258 291.57422 z M 551.04883 307.88086 C 560.20555 307.5124 557.39723 318.85201 557.18359 327.65234 C 555.57106 379.94637 556.34127 432.41356 551.62109 484.5332 C 541.30714 481.51253 548.94497 424.08239 546.34961 402.63281 L 546.34961 399.11914 L 546.34961 308.79688 C 548.18855 308.22482 549.74072 307.9335 551.04883 307.88086 z M 929.00391 307.88086 C 938.16063 307.5124 935.35036 318.85201 935.13672 327.65234 C 933.52418 379.94637 934.2944 432.41356 929.57422 484.5332 C 919.26027 481.51253 926.90005 424.08239 924.30469 402.63281 L 924.30469 399.11914 L 924.30469 308.79688 C 926.14363 308.22482 927.6958 307.9335 929.00391 307.88086 z M 1306.9551 307.88086 C 1316.1118 307.5124 1313.3015 318.85201 1313.0879 327.65234 C 1311.4754 379.94637 1312.2456 432.41356 1307.5254 484.5332 C 1297.2114 481.51253 1304.8512 424.08239 1302.2559 402.63281 L 1302.2559 399.11914 L 1302.2559 308.79688 C 1304.0948 308.22482 1305.647 307.9335 1306.9551 307.88086 z M 147.38867 334.23828 C 149.53492 334.2347 159.87143 349.13932 154.65039 354.99609 C 152.30658 368.68287 135.97854 383.79568 122.48242 380.95703 C 131.50768 371.70121 156.01575 360.61289 148.85156 340.09766 C 146.86706 335.89611 146.67325 334.23948 147.38867 334.23828 z M 1704.957 334.23828 C 1705.6724 334.23948 1705.4767 335.89611 1703.4922 340.09766 C 1696.328 360.61289 1720.838 371.70122 1729.8633 380.95703 C 1716.3672 383.79568 1700.0372 368.68287 1697.6934 354.99609 C 1692.4723 349.13932 1702.8108 334.2347 1704.957 334.23828 z M 114.72266 336.30078 C 98.978262 346.6714 102.08475 364.82302 108.68164 378.87109 C 107.09854 380.92893 105.50369 375.069 104.42383 375.98047 C 90.239253 364.47109 97.51252 340.12347 114.72266 336.30078 z M 1737.623 336.30078 C 1754.8332 340.12347 1762.1064 364.47109 1747.9219 375.98047 C 1746.842 375.069 1745.2452 380.92893 1743.6621 378.87109 C 1750.259 364.82303 1753.3674 346.6714 1737.623 336.30078 z M 119.45117 337.85938 C 120.65602 337.84302 122.97271 337.95683 126.80664 338.17188 C 145.56005 338.69831 138.9993 373.08595 122.44531 361.99609 C 121.86596 353.50035 140.40174 362.9075 133.33203 347.88867 C 129.87974 340.45547 114.23018 337.93022 119.45117 337.85938 z M 1732.8926 337.85938 C 1738.1136 337.93023 1722.466 340.45547 1719.0137 347.88867 C 1711.944 362.9075 1730.4778 353.50035 1729.8984 361.99609 C 1713.3444 373.08595 1706.7857 338.69832 1725.5391 338.17188 C 1729.373 337.95683 1731.6877 337.84302 1732.8926 337.85938 z M 114.37305 343.875 C 115.03742 343.86074 115.77793 343.94933 116.60352 344.14844 C 119.70007 369.82037 117.57604 400.88191 138.99414 419.41992 C 153.41212 435.83517 181.11033 415.25444 164.8418 398.40625 C 153.75914 380.78273 201.14754 375.96884 179.54102 386.27344 C 157.97757 385.01501 194.08318 415.11823 169.00586 422.47852 C 159.41075 425.40164 171.57986 427.99289 158.98438 429.11719 C 154.19841 429.70547 149.24874 430.04948 144.49219 429.05078 C 121.24582 422.65711 113.89128 396.37795 111.77148 375.1543 C 111.75483 367.05391 104.40741 344.08888 114.37305 343.875 z M 1737.9727 343.875 C 1747.9384 344.08888 1740.59 367.05391 1740.5723 375.1543 C 1738.4525 396.37794 1731.0999 422.65711 1707.8535 429.05078 C 1703.0969 430.04948 1698.1473 429.70547 1693.3613 429.11719 C 1680.7658 427.99289 1692.935 425.40164 1683.3398 422.47852 C 1658.2625 415.11823 1694.3661 385.01501 1672.8027 386.27344 C 1651.1962 375.96885 1698.5866 380.78273 1687.5039 398.40625 C 1671.2354 415.25444 1698.9336 435.83517 1713.3516 419.41992 C 1734.7697 400.88191 1732.6456 369.82037 1735.7422 344.14844 C 1736.5678 343.94933 1737.3083 343.86074 1737.9727 343.875 z M 661.08594 372.23828 C 674.86247 406.41843 664.82397 445.67315 652.24805 478.76367 C 625.12366 544.67274 567.70292 595.51109 553.0625 666.86328 L 551.49219 672.2207 L 550.86719 670.07227 C 558.5402 604.80504 604.33644 554.43291 632.37305 497.50586 C 651.43793 458.18142 651.0759 413.95519 661.08594 372.23828 z M 1039.041 372.23828 C 1052.8175 406.41843 1042.779 445.67315 1030.2031 478.76367 C 1003.0787 544.67274 945.65799 595.51109 931.01758 666.86328 L 929.44531 672.2207 L 928.82031 670.07227 C 936.49332 604.80504 982.29154 554.43291 1010.3281 497.50586 C 1029.393 458.18142 1029.031 413.95519 1039.041 372.23828 z M 1416.9922 372.23828 C 1430.7687 406.41843 1420.7302 445.67315 1408.1543 478.76367 C 1381.0299 544.67274 1323.609 595.51109 1308.9688 666.86328 L 1307.3965 672.2207 L 1306.7715 670.07227 C 1314.4445 604.80504 1360.2427 554.43291 1388.2793 497.50586 C 1407.3442 458.18142 1406.9821 413.95519 1416.9922 372.23828 z M 531.5293 396.75 C 533.39931 396.71465 535.27925 396.76046 537.16602 396.88867 C 556.01017 397.2122 535.30944 417.11645 522.41211 409.54492 C 482.15912 417.41768 469.33124 464.17564 475.83203 499.61914 C 485.3411 551.79015 514.58046 597.63813 530.58203 647.85547 C 545.55319 684.62199 547.53696 724.50958 545.27344 763.63672 L 543.53516 742.13086 C 541.84283 684.57512 521.25617 630.18674 495.74609 579.30273 C 477.6335 537.10582 451.56057 489.49762 469.08594 442.96094 C 477.79992 415.88972 503.47915 397.28018 531.5293 396.75 z M 909.48438 396.75 C 911.35437 396.71465 913.23433 396.76046 915.12109 396.88867 C 933.96525 397.2122 913.26452 417.11645 900.36719 409.54492 C 860.1142 417.41768 847.28632 464.17564 853.78711 499.61914 C 863.29617 551.79015 892.53358 597.63813 908.53516 647.85547 C 923.50632 684.62199 925.49204 724.50958 923.22852 763.63672 L 921.48828 742.13086 C 919.79596 684.57512 899.21124 630.18674 873.70117 579.30273 C 855.58858 537.10582 829.51565 489.49762 847.04102 442.96094 C 855.755 415.88972 881.43423 397.28018 909.48438 396.75 z M 1287.4355 396.75 C 1289.3056 396.71465 1291.1855 396.76046 1293.0723 396.88867 C 1311.9164 397.2122 1291.2157 417.11645 1278.3184 409.54492 C 1238.0654 417.41768 1225.2375 464.17564 1231.7383 499.61914 C 1241.2473 551.79015 1270.4848 597.63813 1286.4863 647.85547 C 1301.4575 684.62199 1303.4432 724.50958 1301.1797 763.63672 L 1299.4395 742.13086 C 1297.7471 684.57512 1277.1624 630.18674 1251.6523 579.30273 C 1233.5398 537.10582 1207.4668 489.49762 1224.9922 442.96094 C 1233.7062 415.88972 1259.3854 397.28018 1287.4355 396.75 z M 560.4082 406.20312 C 561.85485 406.25189 564.96438 408.57896 570.41211 414.37109 C 577.54578 415.92282 580.41128 455.84082 575.8418 437.16406 C 568.69282 430.18313 555.6825 406.04382 560.4082 406.20312 z M 938.36328 406.20312 C 939.80993 406.25189 942.91751 408.57896 948.36523 414.37109 C 955.4989 415.92282 958.36635 455.84082 953.79688 437.16406 C 946.6479 430.18313 933.63758 406.04383 938.36328 406.20312 z M 1316.3145 406.20312 C 1317.7611 406.25189 1320.8687 408.57896 1326.3164 414.37109 C 1333.4501 415.92282 1336.3175 455.84082 1331.748 437.16406 C 1324.5991 430.18313 1311.5887 406.04384 1316.3145 406.20312 z M 930.21484 494.09961 C 930.68342 494.09862 931.15436 494.10566 931.62695 494.12109 C 958.09244 494.98518 990.37618 521.32776 977.24023 546.67969 C 971.21914 557.26248 972.13916 554.03544 968.66797 544.12109 C 961.7613 513.53527 920.29047 498.87184 898.44922 523.4043 C 879.42138 556.01255 899.39685 488.98003 920.79102 495.38867 C 923.76072 494.51922 926.93484 494.10656 930.21484 494.09961 z M 1308.166 494.09961 C 1308.6346 494.09862 1309.1055 494.10566 1309.5781 494.12109 C 1336.0436 494.98518 1368.3274 521.32776 1355.1914 546.67969 C 1349.1703 557.26248 1350.0903 554.03544 1346.6191 544.12109 C 1339.7125 513.53527 1298.2416 498.87184 1276.4004 523.4043 C 1257.3725 556.01255 1277.348 488.98003 1298.7422 495.38867 C 1301.7118 494.51922 1304.886 494.10656 1308.166 494.09961 z M 553.67383 494.12109 C 580.13931 494.98518 612.4211 521.32776 599.28516 546.67969 C 593.26407 557.26248 594.18408 554.03544 590.71289 544.12109 C 583.80622 513.53527 542.33539 498.87184 520.49414 523.4043 C 501.4663 556.01255 521.44177 488.98003 542.83594 495.38867 C 546.22989 494.39501 549.89304 493.99765 553.67383 494.12109 z M 550.11328 513.64258 C 555.6196 554.62112 550.84736 596.90625 549.94141 638.39258 C 549.44523 654.84683 549.09346 655.19774 548.89258 638.5332 C 548.77088 633.63932 548.64904 628.74545 548.52734 623.85156 C 548.6978 587.21018 544.83695 549.87596 550.11328 513.64258 z M 928.06641 513.64258 C 933.57272 554.62112 928.80244 596.90625 927.89648 638.39258 C 927.40031 654.84683 927.04854 655.19774 926.84766 638.5332 C 926.72596 633.63932 926.60217 628.74545 926.48047 623.85156 C 926.65093 587.21018 922.79007 549.87596 928.06641 513.64258 z M 1306.0176 513.64258 C 1311.5239 554.62112 1306.7536 596.90625 1305.8477 638.39258 C 1305.3515 654.84683 1304.9997 655.19774 1304.7988 638.5332 C 1304.6771 633.63932 1304.5533 628.74545 1304.4316 623.85156 C 1304.6021 587.21018 1300.7412 549.87596 1306.0176 513.64258 z M 582.15039 534.23828 C 581.82611 554.90073 565.57165 578.7154 561.46875 601.44922 C 558.51376 610.80015 557.04684 620.71093 552.99609 629.67578 C 557.52166 596.82144 567.23505 563.82314 582.15039 534.23828 z M 960.10547 534.23828 C 959.78119 554.90073 943.52477 578.7154 939.42188 601.44922 C 936.46689 610.80015 935.00192 620.71093 930.95117 629.67578 C 935.47674 596.82144 945.19013 563.82314 960.10547 534.23828 z M 1338.0566 534.23828 C 1337.7324 554.90073 1321.476 578.7154 1317.373 601.44922 C 1314.4181 610.80015 1312.9511 620.71093 1308.9004 629.67578 C 1313.426 596.82144 1323.1413 563.82314 1338.0566 534.23828 z M 606.99023 565.64062 C 604.62285 591.25138 585.80193 618.97557 575.4707 644.74609 C 557.85021 676.84812 552.01729 713.39681 554.04297 749.6582 C 551.9804 762.7613 558.65389 809.80517 553.3418 801.7832 C 552.54621 797.05433 552.05061 792.28183 551.68555 787.50391 C 550.96211 738.64516 546.18661 687.17753 567.88477 641.70898 C 579.4175 615.74015 589.56314 588.25804 606.99023 565.64062 z M 984.94531 565.64062 C 982.57793 591.25138 963.75505 618.97557 953.42383 644.74609 C 935.80333 676.84812 929.97237 713.39681 931.99805 749.6582 C 929.93548 762.7613 936.60895 809.80517 931.29688 801.7832 C 930.50128 797.05433 930.00569 792.28183 929.64062 787.50391 C 928.9172 738.64516 924.14169 687.17753 945.83984 641.70898 C 957.37258 615.74015 967.51821 588.25804 984.94531 565.64062 z M 1362.8965 565.64062 C 1360.5291 591.25138 1341.7062 618.97557 1331.375 644.74609 C 1313.7545 676.84812 1307.9216 713.39681 1309.9473 749.6582 C 1307.8847 762.7613 1314.5601 809.80517 1309.248 801.7832 C 1308.4525 797.05433 1307.9569 792.28183 1307.5918 787.50391 C 1306.8684 738.64516 1302.0929 687.17753 1323.791 641.70898 C 1335.3238 615.74015 1345.4694 588.25804 1362.8965 565.64062 z M 37.984375 843.02344 L 75.779297 843.02344 L 75.779297 858.14062 L 37.984375 858.14062 L 37.984375 843.02344 z M 113.57617 843.02344 L 151.37109 843.02344 L 151.37109 858.14062 L 113.57617 858.14062 L 113.57617 843.02344 z M 189.16602 843.02344 L 226.96094 843.02344 L 226.96094 858.14062 L 189.16602 858.14062 L 189.16602 843.02344 z M 264.75586 843.02344 L 302.55078 843.02344 L 302.55078 858.14062 L 264.75586 858.14062 L 264.75586 843.02344 z M 793.89062 843.02344 L 831.68555 843.02344 L 831.68555 858.14062 L 793.89062 858.14062 L 793.89062 843.02344 z M 869.48047 843.02344 L 907.27539 843.02344 L 907.27539 858.14062 L 869.48047 858.14062 L 869.48047 843.02344 z M 945.07227 843.02344 L 982.86719 843.02344 L 982.86719 858.14062 L 945.07227 858.14062 L 945.07227 843.02344 z M 1020.6621 843.02344 L 1058.457 843.02344 L 1058.457 858.14062 L 1020.6621 858.14062 L 1020.6621 843.02344 z M 1549.7949 843.02344 L 1587.5918 843.02344 L 1587.5918 858.14062 L 1549.7949 858.14062 L 1549.7949 843.02344 z M 1625.3867 843.02344 L 1663.1816 843.02344 L 1663.1816 858.14062 L 1625.3867 858.14062 L 1625.3867 843.02344 z M 1700.9766 843.02344 L 1738.7715 843.02344 L 1738.7715 858.14062 L 1700.9766 858.14062 L 1700.9766 843.02344 z M 1776.5684 843.02344 L 1814.3633 843.02344 L 1814.3633 858.14062 L 1776.5684 858.14062 L 1776.5684 843.02344 z "
       transform="scale(0.26458333)"
       id="rect2650" />
  </g>
</svg>
