<?xml version="1.0" encoding="UTF-8" standalone="no"?>
<svg
   xmlns:dc="http://purl.org/dc/elements/1.1/"
   xmlns:cc="http://creativecommons.org/ns#"
   xmlns:rdf="http://www.w3.org/1999/02/22-rdf-syntax-ns#"
   xmlns:svg="http://www.w3.org/2000/svg"
   xmlns="http://www.w3.org/2000/svg"
   id="svg2919"
   version="1.1"
   viewBox="0 0 210 297"
   height="297mm"
   width="210mm">
  <defs
     id="defs2913" />
  <metadata
     id="metadata2916">
    <rdf:RDF>
      <cc:Work
         rdf:about="">
        <dc:format>image/svg+xml</dc:format>
        <dc:type
           rdf:resource="http://purl.org/dc/dcmitype/StillImage" />
        <dc:title></dc:title>
      </cc:Work>
    </rdf:RDF>
  </metadata>
  <g
     id="layer1">
    <path
       id="rect2650-8"
       d="M 9.5410251,-0.166616 V 3.833143 H 0.04082483 V 43.833274 H 490.0409 V 3.833143 h -9.99993 v -3.999759 h -10.50012 v 3.999759 h -9.50021 v -3.999759 h -10.49962 v 3.999759 h -9.50018 v -3.999759 h -10.50015 v 3.999759 h -9.49968 V -0.166616 H 409.54089 V 3.833143 H 280.0408 v -3.999759 h -10.50015 v 3.999759 h -9.49967 v -3.999759 h -10.50014 v 3.999759 h -9.50019 v -3.999759 h -10.49962 v 3.999759 h -9.5002 V -0.166616 H 209.5407 V 3.833143 H 80.040595 v -3.999759 h -10.49962 v 3.999759 h -9.5002 v -3.999759 h -10.50013 v 3.999759 h -9.49968 v -3.999759 h -10.50013 v 3.999759 h -9.5002 v -3.999759 z"
       style="fill:#8b0000;fill-opacity:1;stroke:#ff0000;stroke-width:0.08164966;stroke-miterlimit:4;stroke-dasharray:none;stroke-opacity:1" />
    <rect
       y="3.8332214"
       x="0"
       height="5"
       width="490"
       id="rect2823"
       style="fill:#000000;fill-opacity:1;stroke:none;stroke-width:1.7232275;stroke-miterlimit:4;stroke-dasharray:none;stroke-opacity:1" />
    <rect
       style="fill:#000000;fill-opacity:1;stroke:none;stroke-width:1.7232275;stroke-miterlimit:4;stroke-dasharray:none;stroke-opacity:1"
       id="rect2825"
       width="490"
       height="5"
       x="0"
       y="13.833221" />
    <rect
       y="23.833221"
       x="0"
       height="5"
       width="490"
       id="rect2827"
       style="fill:#000000;fill-opacity:1;stroke:none;stroke-width:1.7232275;stroke-miterlimit:4;stroke-dasharray:none;stroke-opacity:1" />
    <rect
       style="fill:#000000;fill-opacity:1;stroke:none;stroke-width:1.7232275;stroke-miterlimit:4;stroke-dasharray:none;stroke-opacity:1"
       id="rect2829"
       width="490"
       height="5"
       x="0"
       y="33.833221" />
  </g>
</svg>
