<?xml version="1.0" encoding="UTF-8" standalone="no"?>
<!-- Created with Inkscape (http://www.inkscape.org/) -->

<svg
   xmlns:dc="http://purl.org/dc/elements/1.1/"
   xmlns:cc="http://creativecommons.org/ns#"
   xmlns:rdf="http://www.w3.org/1999/02/22-rdf-syntax-ns#"
   xmlns:svg="http://www.w3.org/2000/svg"
   xmlns="http://www.w3.org/2000/svg"
   xmlns:sodipodi="http://sodipodi.sourceforge.net/DTD/sodipodi-0.dtd"
   xmlns:inkscape="http://www.inkscape.org/namespaces/inkscape"
   width="420mm"
   height="297mm"
   viewBox="0 0 420 297"
   version="1.1"
   id="SVGRoot"
   inkscape:version="0.92.2 (5c3e80d, 2017-08-06)"
   sodipodi:docname="standaard.svg">
  <sodipodi:namedview
     id="base"
     pagecolor="#ffffff"
     bordercolor="#666666"
     borderopacity="1.0"
     inkscape:pageopacity="0.0"
     inkscape:pageshadow="2"
     inkscape:zoom="0.24748737"
     inkscape:cx="1056.3479"
     inkscape:cy="-328.43034"
     inkscape:document-units="mm"
     inkscape:current-layer="layer1"
     showgrid="false"
     inkscape:window-width="1920"
     inkscape:window-height="986"
     inkscape:window-x="-11"
     inkscape:window-y="-11"
     inkscape:window-maximized="1" />
  <defs
     id="defs2089" />
  <metadata
     id="metadata2092">
    <rdf:RDF>
      <cc:Work
         rdf:about="">
        <dc:format>image/svg+xml</dc:format>
        <dc:type
           rdf:resource="http://purl.org/dc/dcmitype/StillImage" />
        <dc:title></dc:title>
      </cc:Work>
    </rdf:RDF>
  </metadata>
  <g
     id="layer1"
     inkscape:groupmode="layer"
     inkscape:label="Layer 1">
    <path
       style="fill:#8b0000;fill-opacity:1;stroke:#ff0000;stroke-width:0.37795275;stroke-miterlimit:4;stroke-dasharray:none;stroke-opacity:1"
       d="M 0 0 L 0 226.77148 L 0 1262.3613 L 340.1582 1262.3613 L 340.1582 226.77148 L 377.95312 226.77148 L 377.95312 1662.9922 L 718.10938 1662.9922 L 718.10938 226.77148 L 755.90625 226.77148 L 755.90625 1262.3613 L 1096.0625 1262.3613 L 1096.0625 226.77148 L 1133.8574 226.77148 L 1133.8574 1662.9922 L 1474.0156 1662.9922 L 1474.0156 226.77148 L 1511.8105 226.77148 L 1511.8105 1262.3613 L 1851.9688 1262.3613 L 1851.9688 226.77148 L 1851.9688 0 L 0 0 z M 37.794922 1145.1973 L 75.589844 1145.1973 L 75.589844 1160.3145 L 37.794922 1160.3145 L 37.794922 1145.1973 z M 113.38672 1145.1973 L 151.18164 1145.1973 L 151.18164 1160.3145 L 113.38672 1160.3145 L 113.38672 1145.1973 z M 188.97656 1145.1973 L 226.77148 1145.1973 L 226.77148 1160.3145 L 188.97656 1160.3145 L 188.97656 1145.1973 z M 264.56641 1145.1973 L 302.36133 1145.1973 L 302.36133 1160.3145 L 264.56641 1160.3145 L 264.56641 1145.1973 z M 793.70117 1145.1973 L 831.49609 1145.1973 L 831.49609 1160.3145 L 793.70117 1160.3145 L 793.70117 1145.1973 z M 869.29102 1145.1973 L 907.08594 1145.1973 L 907.08594 1160.3145 L 869.29102 1160.3145 L 869.29102 1145.1973 z M 944.88281 1145.1973 L 982.67773 1145.1973 L 982.67773 1160.3145 L 944.88281 1160.3145 L 944.88281 1145.1973 z M 1020.4727 1145.1973 L 1058.2676 1145.1973 L 1058.2676 1160.3145 L 1020.4727 1160.3145 L 1020.4727 1145.1973 z M 1549.6055 1145.1973 L 1587.4023 1145.1973 L 1587.4023 1160.3145 L 1549.6055 1160.3145 L 1549.6055 1145.1973 z M 1625.1973 1145.1973 L 1662.9922 1145.1973 L 1662.9922 1160.3145 L 1625.1973 1160.3145 L 1625.1973 1145.1973 z M 1700.7871 1145.1973 L 1738.582 1145.1973 L 1738.582 1160.3145 L 1700.7871 1160.3145 L 1700.7871 1145.1973 z M 1776.3789 1145.1973 L 1814.1738 1145.1973 L 1814.1738 1160.3145 L 1776.3789 1160.3145 L 1776.3789 1145.1973 z "
       transform="scale(0.26458333)"
       id="rect2650" />
    <g
       id="g2897">
      <path
         transform="scale(0.26458333)"
         id="rect2650-8"
         d="M 35.90625 1749.9219 L 35.90625 1765.0391 L 0 1765.0391 L 0 1916.2207 L 1851.9688 1916.2207 L 1851.9688 1765.0391 L 1814.1738 1765.0391 L 1814.1738 1749.9219 L 1774.4883 1749.9219 L 1774.4883 1765.0391 L 1738.582 1765.0391 L 1738.582 1749.9219 L 1698.8984 1749.9219 L 1698.8984 1765.0391 L 1662.9922 1765.0391 L 1662.9922 1749.9219 L 1623.3066 1749.9219 L 1623.3066 1765.0391 L 1587.4023 1765.0391 L 1587.4023 1749.9219 L 1547.7168 1749.9219 L 1547.7168 1765.0391 L 1058.2676 1765.0391 L 1058.2676 1749.9219 L 1018.582 1749.9219 L 1018.582 1765.0391 L 982.67773 1765.0391 L 982.67773 1749.9219 L 942.99219 1749.9219 L 942.99219 1765.0391 L 907.08594 1765.0391 L 907.08594 1749.9219 L 867.40234 1749.9219 L 867.40234 1765.0391 L 831.49609 1765.0391 L 831.49609 1749.9219 L 791.81055 1749.9219 L 791.81055 1765.0391 L 302.36133 1765.0391 L 302.36133 1749.9219 L 262.67773 1749.9219 L 262.67773 1765.0391 L 226.77148 1765.0391 L 226.77148 1749.9219 L 187.08594 1749.9219 L 187.08594 1765.0391 L 151.18164 1765.0391 L 151.18164 1749.9219 L 111.49609 1749.9219 L 111.49609 1765.0391 L 75.589844 1765.0391 L 75.589844 1749.9219 L 35.90625 1749.9219 z "
         style="fill:#8b0000;fill-opacity:1;stroke:#ff0000;stroke-width:0.30859715;stroke-miterlimit:4;stroke-dasharray:none;stroke-opacity:1" />
      <rect
         y="467"
         x="1.7763568e-015"
         height="5"
         width="490"
         id="rect2823"
         style="fill:#000000;fill-opacity:1;stroke:none;stroke-width:1.7232275;stroke-miterlimit:4;stroke-dasharray:none;stroke-opacity:1" />
      <rect
         style="fill:#000000;fill-opacity:1;stroke:none;stroke-width:1.7232275;stroke-miterlimit:4;stroke-dasharray:none;stroke-opacity:1"
         id="rect2825"
         width="490"
         height="5"
         x="1.7763568e-015"
         y="477" />
      <rect
         y="487"
         x="1.7763568e-015"
         height="5"
         width="490"
         id="rect2827"
         style="fill:#000000;fill-opacity:1;stroke:none;stroke-width:1.7232275;stroke-miterlimit:4;stroke-dasharray:none;stroke-opacity:1" />
      <rect
         style="fill:#000000;fill-opacity:1;stroke:none;stroke-width:1.7232275;stroke-miterlimit:4;stroke-dasharray:none;stroke-opacity:1"
         id="rect2829"
         width="490"
         height="5"
         x="1.7763568e-015"
         y="497" />
    </g>
  </g>
</svg>
