<?xml version="1.0" encoding="UTF-8" standalone="no"?>
<!-- Created with Inkscape (http://www.inkscape.org/) -->

<svg
   xmlns:dc="http://purl.org/dc/elements/1.1/"
   xmlns:cc="http://creativecommons.org/ns#"
   xmlns:rdf="http://www.w3.org/1999/02/22-rdf-syntax-ns#"
   xmlns:svg="http://www.w3.org/2000/svg"
   xmlns="http://www.w3.org/2000/svg"
   xmlns:sodipodi="http://sodipodi.sourceforge.net/DTD/sodipodi-0.dtd"
   xmlns:inkscape="http://www.inkscape.org/namespaces/inkscape"
   width="297mm"
   height="210mm"
   viewBox="0 0 297 210"
   version="1.1"
   id="SVGRoot"
   inkscape:version="0.92.2 (5c3e80d, 2017-08-06)"
   sodipodi:docname="stempel zonder blah.svg">
  <sodipodi:namedview
     id="base"
     pagecolor="#ffffff"
     bordercolor="#666666"
     borderopacity="1.0"
     inkscape:pageopacity="0.0"
     inkscape:pageshadow="2"
     inkscape:zoom="3.8511155"
     inkscape:cx="101.10493"
     inkscape:cy="547.98427"
     inkscape:document-units="mm"
     inkscape:current-layer="layer1"
     showgrid="false"
     inkscape:window-width="1920"
     inkscape:window-height="986"
     inkscape:window-x="-11"
     inkscape:window-y="-11"
     inkscape:window-maximized="1"
     inkscape:snap-object-midpoints="true" />
  <defs
     id="defs1458" />
  <metadata
     id="metadata1461">
    <rdf:RDF>
      <cc:Work
         rdf:about="">
        <dc:format>image/svg+xml</dc:format>
        <dc:type
           rdf:resource="http://purl.org/dc/dcmitype/StillImage" />
        <dc:title />
      </cc:Work>
    </rdf:RDF>
  </metadata>
  <g
     id="layer1"
     inkscape:groupmode="layer"
     inkscape:label="Laag 1">
    <g
       id="g2307"
       transform="translate(-9.3011268,-5.8208336)">
      <path
         inkscape:connector-curvature="0"
         id="rect2111"
         d="m 13.531434,49.601834 v 3.499834 11.999783 H 33.031127 V 59.17675 h 4 v 5.924701 H 56.531289 V 53.101668 h 0.006 v -3.499834 h -3.240162 v 3.499834 h -36.746 v -3.499834 z"
         style="fill:none;fill-opacity:1;stroke:#ff0000;stroke-width:0.1;stroke-miterlimit:4;stroke-dasharray:none;stroke-opacity:1"
         sodipodi:nodetypes="cccccccccccccccc" />
    </g>
    <g
       id="g2311"
       transform="translate(-9.3110268,-11.112501)">
      <path
         inkscape:connector-curvature="0"
         id="rect2111-7"
         d="m 13.541253,72.619501 v 3.500401 27.678928 c 8.450803,-2e-4 15.301583,6.85058 15.301391,15.30139 h 12.378042 c -1.92e-4,-8.45057 6.850218,-15.30125 15.300783,-15.30139 V 76.119902 h 0.0258 v -3.500401 h -2.990242 v 3.500401 h -16.526 v 5.914882 h -4 v -5.914882 h -16.47 v -3.500401 z"
         style="fill:none;fill-opacity:1;stroke:#ff0000;stroke-width:0.11966713;stroke-miterlimit:4;stroke-dasharray:none;stroke-opacity:1"
         sodipodi:nodetypes="cccccccccccccccccc" />
      <path
         style="fill:#0000ff;fill-opacity:1;stroke:#000000;stroke-width:0.79972774;stroke-miterlimit:4;stroke-dasharray:none;stroke-opacity:0"
         d="m 104.66016,296.06055 c -1.94031,0.0158 -4.51489,0.45303 -5.804691,1.07031 l -1.44336,0.68945 -1.748047,-0.55469 c -2.59793,-0.82649 -6.275527,-0.58259 -8.710937,0.58008 -1.922608,0.91786 -4.045627,2.84677 -5.257813,4.77539 -0.554418,0.8821 -1.031619,1.27931 -1.779296,1.48243 -1.806407,0.49072 -4.801141,3.16537 -6.308594,5.63476 -0.983335,1.61082 -1.837891,4.61648 -1.837891,6.46094 0,0.85168 -0.220394,1.29654 -1.097656,2.21875 -0.603375,0.63426 -1.626843,2.11184 -2.273437,3.2832 -1.14045,2.06593 -1.166671,2.17319 -0.898438,3.61719 0.356345,1.91846 0.674429,2.73276 1.875,4.78125 l 0.984375,1.67578 -0.181641,2.74805 c -0.157659,2.40583 -0.107266,2.90575 0.396485,4.00586 0.715782,1.5631 1.393832,2.31006 3.804687,4.19336 1.196368,0.9346 1.904297,1.6921 1.904297,2.03906 0,1.48509 2.548761,5.13914 4.113281,5.89648 1.49655,0.7248 4.608902,1.00843 6.533204,0.59571 1.330488,-0.28532 1.582964,-0.25133 2.951171,0.40234 1.370302,0.65454 1.743459,0.70638 4.457032,0.60547 2.728051,-0.10141 3.118799,-0.19143 4.9375,-1.11719 1.086179,-0.55283 2.521609,-1.43791 3.189449,-1.96875 l 1.21485,-0.96484 1.74804,0.36523 c 4.02354,0.84325 5.71191,0.30702 8.69922,-2.76562 1.18506,-1.2189 2.22531,-2.2168 2.3125,-2.2168 0.48794,0 3.62621,-2.16305 4.83789,-3.33398 1.77139,-1.71183 2.33602,-3.23266 2.57618,-6.96289 0.14756,-2.29131 0.2993,-2.98058 0.80859,-3.66797 1.42935,-1.92909 2.39396,-4.56785 2.40039,-6.55664 0.004,-1.60816 -0.85977,-3.78165 -2.10938,-5.30665 -0.9819,-1.19836 -1.03015,-1.35531 -1.08007,-3.58203 -0.044,-1.95579 -0.19304,-2.62482 -0.93164,-4.18359 -1.11076,-2.34413 -3.49123,-4.72097 -6.25196,-6.24219 -1.42368,-0.78448 -2.30415,-1.4986 -2.8789,-2.33398 -1.78587,-2.5957 -4.64499,-4.59045 -7.49219,-5.22852 -0.43423,-0.0972 -1.01144,-0.14005 -1.6582,-0.13476 z m 0.0273,0.72656 c 0.87007,0.0147 1.5365,0.0884 1.62305,0.22851 0.0865,0.13995 -0.30145,0.93382 -0.86328,1.76368 -0.56184,0.82986 -1.14294,1.8503 -1.29102,2.26758 -0.19382,0.54636 -0.40034,0.70928 -0.74023,0.58203 -0.40177,-0.15037 -0.41916,-0.11023 -0.10743,0.27343 0.30653,0.37726 0.22518,0.85742 -0.5039,2.94532 -1.25276,3.58752 -1.22904,3.56933 -2.51172,2.11328 -1.22365,-1.38904 -1.83124,-2.92462 -1.349611,-3.40625 0.167774,-0.16778 0.196725,-0.30469 0.06641,-0.30469 -0.1303,0 -0.393673,0.21557 -0.585938,0.47852 -0.30853,0.42194 -0.488358,0.43532 -1.537109,0.12109 -1.061288,-0.31797 -1.321508,-0.29239 -2.429688,0.22851 -0.682465,0.32079 -1.301665,0.58204 -1.376953,0.58204 -0.07529,0 -0.319271,-0.34868 -0.541016,-0.77539 -0.48492,-0.93308 -2.996093,-3.63576 -2.996093,-3.22461 0,0.15938 0.444509,0.83823 0.988281,1.50976 1.555861,1.92143 1.853023,2.77524 1.648438,4.73242 -0.09822,0.93956 -0.305032,1.70899 -0.460938,1.70899 -0.155924,0 -1.023196,-0.27053 -1.925781,-0.59961 -1.497211,-0.54591 -1.743858,-0.76245 -2.820313,-2.46875 -0.648933,-1.02863 -1.232434,-1.71899 -1.296875,-1.53516 -0.06445,0.18382 0.334076,0.99152 0.886719,1.79492 0.552643,0.8034 1.000629,1.54168 0.996094,1.64063 -0.0046,0.099 -0.395765,0.60804 -0.871094,1.13086 -0.810917,0.89198 -0.910943,0.92698 -1.595703,0.56445 -0.401371,-0.21248 -1.404861,-1.00323 -2.230469,-1.75586 -0.825615,-0.75262 -1.5,-1.23638 -1.5,-1.07617 0,0.16021 1.002098,1.19953 2.226563,2.31055 l 2.224609,2.01953 0.189453,2.16211 c 0.104164,1.18828 0.253682,2.3827 0.332031,2.65429 0.203252,0.70448 -0.02333,0.63368 -2.857422,-0.87109 -3.266709,-1.73443 -4.665178,-2.6238 -6.867187,-4.36523 l -1.789063,-1.41407 1.865235,-1.77539 c 1.396671,-1.32964 2.251038,-1.8987 3.396484,-2.25976 1.225848,-0.38642 1.60081,-0.65241 1.884766,-1.33789 0.194967,-0.4707 1.122381,-1.63534 2.060547,-2.58594 2.299748,-2.33022 5.054744,-3.51758 8.154297,-3.51758 1.473373,0 2.239998,0.12281 2.52539,0.40821 0.225358,0.22541 0.477637,0.34462 0.558594,0.26367 0.08095,-0.081 0.662109,0.006 1.292969,0.19531 0.912491,0.27326 1.235258,0.27122 1.576172,-0.0117 0.235702,-0.19568 0.618705,-0.28271 0.851562,-0.19336 0.236447,0.0907 0.394839,0.0208 0.357422,-0.1582 -0.03693,-0.17634 0.439869,-0.4778 1.06055,-0.67188 0.82078,-0.25663 2.83307,-0.39528 4.2832,-0.37109 z m 2.35352,0.55664 c 0.3122,-0.0338 0.86156,0.10098 1.57812,0.40039 1.15558,0.48283 4.5638,3.65315 4.92188,4.57813 0.13271,0.34278 0.78546,0.89489 1.45117,1.22851 2.06881,1.03681 3.60895,2.08125 3.60937,2.44922 2.7e-4,0.19397 0.16725,0.35352 0.37305,0.35352 0.3567,0 1.60156,1.1354 1.60156,1.46093 0,0.0853 -0.56365,0.36995 -1.25195,0.63282 -0.68826,0.26285 -1.73626,0.86685 -2.32813,1.34179 -0.59187,0.47498 -2.3812,1.74195 -3.97656,2.81641 -1.59536,1.07447 -3.08725,2.02544 -3.31641,2.11328 -0.3473,0.1333 -0.41134,-0.2089 -0.38867,-2.05664 0.0519,-4.05173 0.10181,-4.19392 1.72657,-4.86914 0.95549,-0.39707 2.03853,-0.59375 3.27148,-0.59375 1.97582,0 2.23117,-0.18169 0.54688,-0.39063 -1.49828,-0.1858 -1.6807,-0.37789 -1.53711,-1.62109 0.0703,-0.60698 0.0248,-1.16594 -0.10157,-1.24414 -0.12672,-0.0782 -0.26908,0.45513 -0.3164,1.1875 l -0.0859,1.33203 -1.68359,0.65039 c -2.30846,0.89216 -2.54642,0.64056 -2.44532,-2.58984 0.0415,-1.32141 -0.0328,-2.40235 -0.16601,-2.40235 -0.13323,0 -0.27264,0.7878 -0.31055,1.75 -0.0379,0.9622 -0.12727,1.80685 -0.19727,1.87696 -0.28064,0.28064 -4.93164,1.39507 -4.93164,1.18164 0,-0.78176 2.12722,-6.59116 2.82618,-7.71875 0.46327,-0.74737 0.84179,-1.47818 0.84179,-1.62305 0,-0.14373 0.10171,-0.22373 0.28907,-0.24414 z m 2.84179,1.5332 -0.57812,0.66602 c -0.31802,0.36632 -0.57813,0.78001 -0.57813,0.91797 0,0.49321 0.27561,0.23623 0.71289,-0.66602 z m -8.45703,0.98828 c -0.15517,0 -0.36114,0.1261 -0.45703,0.28125 -0.0959,0.15515 -0.0477,0.28321 0.10742,0.28321 0.15518,0 0.36115,-0.12806 0.45703,-0.28321 0.0959,-0.15518 0.0478,-0.28125 -0.10742,-0.28125 z m 0.72852,0 c -0.23276,0 -0.0642,0.40157 0.44922,1.06446 0.1531,0.1977 0.33222,0.3045 0.39843,0.23828 0.16954,-0.16954 -0.56767,-1.30274 -0.84765,-1.30274 z m -1.82032,0.84961 c -0.349122,-0.002 -0.634761,0.12411 -0.634761,0.2793 0,0.3535 0.298726,0.3535 0.845701,0 0.34219,-0.22114 0.30237,-0.27573 -0.21094,-0.2793 z m -4.867183,0.56055 c -0.15515,0 -0.283203,0.12606 -0.283203,0.28125 0,0.15515 0.128015,0.2832 0.283203,0.2832 0.155149,0 0.28125,-0.12805 0.28125,-0.2832 0,-0.15515 -0.126101,-0.28125 -0.28125,-0.28125 z m 18.072263,1.69336 c -0.16433,0 -0.29883,0.1261 -0.29883,0.28125 0,0.15515 0.0566,0.2832 0.125,0.2832 0.0684,0 0.20291,-0.12805 0.29883,-0.2832 0.096,-0.15515 0.0393,-0.28125 -0.125,-0.28125 z m -17.490232,1.28906 c 0.272364,0.0105 0.568158,0.0725 0.96875,0.17969 0.865625,0.23153 1.324174,0.54094 1.554688,1.05078 0.179762,0.39766 0.816733,1.36141 1.416015,2.14063 l 1.089839,1.41601 -1.394526,4.18164 c -0.767384,2.29966 -1.396485,4.47925 -1.396485,4.84375 0,0.36449 -0.1261,0.74197 -0.28125,0.83789 -0.155187,0.0959 -0.284546,0.51605 -0.287109,0.9336 -0.0023,0.41757 -0.167503,1.23352 -0.369141,1.8125 -0.201653,0.57898 -0.428063,1.11165 -0.501953,1.18554 -0.07389,0.0739 -0.30179,-0.78005 -0.507812,-1.89843 -0.206022,-1.11838 -0.879868,-3.81007 -1.496094,-5.98243 -2.420693,-8.53367 -2.446718,-9.34777 -0.332031,-10.2832 0.695731,-0.30775 1.083177,-0.43535 1.537109,-0.41797 z M 80.6875,305.60352 c -0.101216,-0.017 -0.173828,0.0448 -0.173828,0.16796 0,0.16434 0.128016,0.30079 0.283203,0.30079 0.15515,0 0.28125,-0.0566 0.28125,-0.125 0,-0.0684 -0.126063,-0.20295 -0.28125,-0.29883 -0.03874,-0.0238 -0.07574,-0.0393 -0.109375,-0.0449 z m 36.99219,0.9121 c -0.0596,0.005 -0.12959,0.0167 -0.20703,0.0371 -0.31045,0.0812 -0.56446,0.19836 -0.56446,0.25782 0,0.22257 0.81903,0.0973 0.97071,-0.14844 0.0652,-0.10553 -0.021,-0.16047 -0.19922,-0.14649 z m -9.83789,0.13477 h 0.002 c 0.0724,-0.003 0.12118,0.001 0.13086,0.0156 0.8745,1.23832 0.92929,1.57359 0.68555,4.06054 -0.51069,5.21309 -0.12466,4.44129 -3.96289,7.93164 -4.65836,4.23614 -6.691411,5.85909 -6.691411,5.33985 0,-0.72861 2.180241,-8.91567 3.214841,-12.07032 1.45821,-4.44632 0.89353,-3.91681 5.39844,-5.04882 0.526,-0.13218 0.99977,-0.21842 1.22266,-0.22852 z m -19.728519,1.5625 c 0.46752,0.026 1.203638,0.25507 2.556641,0.66016 l 1.548828,0.46484 0.939453,3.375 c 1.257536,4.52222 1.960614,7.24661 2.421875,9.37305 0.210936,0.97207 0.29436,1.82158 0.185547,1.88867 -0.108805,0.0672 -1.014014,-0.67202 -2.011719,-1.64258 -0.997693,-0.97059 -2.852729,-2.61776 -4.123047,-3.66211 -2.539336,-2.08761 -2.281743,-1.55461 -3.179687,-6.5957 -0.299788,-1.683 -0.283523,-1.80209 0.435547,-2.88867 0.465275,-0.70306 0.625466,-1.00592 1.226562,-0.97266 z m 32.623049,0.28516 h 0.002 c 0.38351,0.0126 0.66408,0.25187 0.96875,0.67968 0.6869,0.96467 1.39787,3.33421 1.4043,4.66993 0.003,0.77039 -0.1518,0.93188 -1.43945,1.49414 -0.79432,0.34684 -1.38477,0.68945 -1.3125,0.76172 0.0722,0.0722 0.59041,-0.0603 1.15234,-0.29493 1.32438,-0.5533 1.66841,-0.53894 1.54297,0.0664 -0.0572,0.27614 0.54573,1.35066 1.36914,2.43945 1.27418,1.68484 2.02057,3.15286 1.73828,3.41993 -0.0464,0.0439 -1.2836,-0.14706 -2.75,-0.42383 -1.86044,-0.35101 -2.52165,-0.39673 -2.1875,-0.15235 0.2634,0.19259 1.46297,0.51225 2.66601,0.71094 1.20304,0.19871 2.27358,0.43826 2.37891,0.5332 0.53639,0.48324 -1.23524,5.65629 -2.33203,6.8086 -0.66547,0.69902 -1.18297,1.8956 -0.96875,2.24218 0.1102,0.17985 0.11279,1.33495 0.004,2.56641 -0.16001,1.80739 -0.28925,2.23894 -0.66407,2.24219 -0.38146,0.003 -0.39119,0.0511 -0.0644,0.25781 1.10039,0.69661 -2.34636,4.49236 -5.58203,6.14844 -0.97626,0.49965 -2.03588,1.23896 -2.35352,1.64258 -0.41046,0.52187 -0.66404,0.64631 -0.8789,0.43164 -0.16623,-0.16592 -0.4284,-0.30078 -0.58203,-0.30078 -0.15389,0 -0.0335,0.19025 0.26757,0.42382 0.52897,0.41031 0.50992,0.45831 -0.58007,1.41211 -0.62069,0.54316 -1.75433,1.17652 -2.51954,1.40821 -1.54447,0.46786 -2.88965,0.48707 -5.31054,0.0723 -1.79648,-0.3078 -1.65808,-0.0491 -1.68946,-3.17578 -0.0113,-1.12135 0.36323,-2.67969 0.64454,-2.67969 0.12336,0 0.85677,0.70788 1.6289,1.57422 1.90586,2.13835 3.10048,2.97887 1.75977,1.23828 -0.53474,-0.69418 -1.50294,-1.84215 -2.15039,-2.55078 l -1.17578,-1.28711 -0.0488,-2.45703 c -0.0266,-1.35095 -0.12104,-2.64389 -0.20899,-2.87304 -0.23455,-0.61117 0.29622,-0.5086 0.91602,0.17773 0.2956,0.32737 1.30927,1.21264 2.25391,1.96484 2.44663,1.94824 3.49943,3.9885 3.50585,6.79102 0.003,1.44484 0.0871,1.94677 0.27735,1.65234 0.15039,-0.23278 0.27722,-0.89209 0.2793,-1.46484 0.005,-1.23077 0.41128,-1.58562 1.10156,-0.96094 0.90559,0.81838 0.92552,0.46987 0.0273,-0.46484 -0.4846,-0.5043 -1.25754,-1.67935 -1.71679,-2.60938 -0.63444,-1.28473 -1.70591,-2.53786 -4.45508,-5.21875 -3.58898,-3.49981 -7.083988,-7.39352 -7.083988,-7.89258 10e-7,-0.14294 0.667787,-0.068 1.482418,0.16797 2.52602,0.73167 7.39402,2.41897 7.64649,2.65039 0.41142,0.3771 1.24154,3.89318 1.09766,4.64649 -0.10947,0.57304 -0.0456,0.68135 0.32031,0.54101 0.28949,-0.11107 0.65687,0.0674 0.99804,0.48828 0.89007,1.09947 0.9066,0.45029 0.0215,-0.88671 -0.77805,-1.17529 -1.59496,-3.85621 -1.27344,-4.17774 0.18886,-0.18888 2.89303,1.0702 3.26758,1.52149 0.42379,0.51064 1.39258,4.20424 1.39258,5.31054 0,0.53212 -0.13253,1.01079 -0.29297,1.06446 -0.18055,0.0601 -0.13561,0.30916 0.11523,0.65234 0.37892,0.51817 0.41881,0.46491 0.60938,-0.80664 0.20113,-1.34117 0.21886,-1.35991 1.08594,-1.20117 l 0.8789,0.16211 -0.73633,-0.4043 c -0.40529,-0.22227 -0.87183,-0.75839 -1.03711,-1.19141 -0.5453,-1.42927 -0.96402,-2.9403 -0.84765,-3.05664 0.23595,-0.23595 2.38199,0.53046 4.85547,1.73243 2.45387,1.19231 3.72437,1.58575 3.09765,0.95898 -0.45208,-0.4521 -6.31555,-3.38477 -6.76757,-3.38477 -0.22529,0 -1.39077,-0.48704 -2.58985,-1.08203 -3.14625,-1.56107 -10.96593,-4.56054 -11.88867,-4.56054 -0.807364,0 -0.977276,-0.47639 -0.234376,-0.65625 1.847866,-0.44773 5.752266,-0.78245 9.714846,-0.83204 l 4.45898,-0.0566 2.73438,2.1836 c 1.50389,1.20034 2.92974,2.46073 3.16797,2.80078 0.23819,0.34 0.51376,0.53701 0.61328,0.4375 0.0997,-0.0996 -0.0242,-0.38749 -0.27539,-0.63867 -0.54743,-0.54751 -0.58086,-0.89168 -0.10352,-1.05469 0.19394,-0.0663 -0.17623,-0.37733 -0.82226,-0.69141 -1.19516,-0.58085 -4.04493,-2.82775 -4.04493,-3.18945 0,-0.10929 1.17406,-0.52267 2.60938,-0.91992 2.91932,-0.80789 2.1636,-1.03625 -1.05664,-0.31836 -1.26718,0.28258 -3.89654,0.48078 -7.33594,0.55078 -2.94822,0.0601 -6.50386,0.28874 -7.90039,0.50977 -1.39652,0.22076 -2.569992,0.37304 -2.609375,0.33789 -0.0394,-0.0351 0.968046,-0.93282 2.238285,-1.9961 1.27022,-1.06328 3.14298,-2.71851 4.16211,-3.67773 1.01912,-0.95923 2.32393,-2.06363 2.90039,-2.45313 l 1.04882,-0.70703 2.40235,0.95313 c 1.32156,0.52469 2.75406,0.95612 3.18359,0.95703 1.35695,0.003 2.88039,0.56423 3.85938,1.42383 1.53911,1.35137 1.81199,0.9475 0.35742,-0.5293 l -1.3418,-1.36133 1,-0.53711 c 1.57873,-0.85017 1.15933,-1.03724 -0.58984,-0.26367 -1.46595,0.64842 -1.72593,0.67913 -3.4336,0.40625 -1.8043,-0.28825 -4.58467,-1.29179 -4.55859,-1.64453 0.007,-0.0973 1.32705,-1.03893 2.93164,-2.09375 L 116,311.6875 l 1.88281,0.43555 c 1.03558,0.24025 2.09554,0.42445 2.35742,0.4082 0.41392,-0.0251 -0.12867,-0.20639 -1.97265,-0.66016 -0.26146,-0.0643 -0.74066,-0.26053 -1.06446,-0.43359 -0.58039,-0.31065 -0.57768,-0.3225 0.19336,-0.93555 1.78022,-1.41541 2.70065,-2.02507 3.33985,-2.0039 z m -46.027346,0.95898 c 0.186633,0 0.712222,0.39051 1.167969,0.86719 0.976551,1.02138 4.547645,3.43138 7.275391,4.91211 1.062425,0.57677 1.82282,1.13946 1.691406,1.24805 -0.648986,0.53671 -4.456553,1.4752 -5.324219,1.3125 -0.958828,-0.17988 -2.433068,-1.58161 -3.021484,-2.87305 -0.363515,-0.79781 -0.786354,-0.89766 -0.587891,-0.13867 0.101579,0.38843 -0.07631,0.61887 -0.660156,0.84961 l -0.802734,0.3164 0.892578,-0.13281 c 0.762731,-0.11273 1.004408,0.0138 1.652344,0.86328 0.41701,0.54672 0.712666,1.03539 0.658203,1.08789 -0.05447,0.0524 -1.242152,0.66277 -2.638672,1.35547 -2.590054,1.28456 -4.935547,1.86665 -4.935547,1.22461 0,-0.18568 0.571271,-0.89672 1.269531,-1.58203 0.698268,-0.68529 1.269531,-1.45522 1.269531,-1.71094 0,-0.27111 0.381088,-0.59816 0.916016,-0.7832 0.863169,-0.29851 0.870454,-0.30949 0.119141,-0.21485 -1.049466,0.13221 -1.184765,-0.2971 -0.763672,-2.4375 0.398577,-2.02589 1.334669,-4.16406 1.822265,-4.16406 z m -0.912109,1.69336 c -0.164651,0 0.805113,1.17703 1.207031,1.46484 0.150682,0.10795 0.336708,0.13607 0.41211,0.0605 0.134373,-0.13437 -1.342102,-1.52539 -1.619141,-1.52539 z m 47.738285,1.32813 c -0.2726,-9.9e-4 -0.5061,0.0339 -0.5586,0.11914 -0.083,0.13447 0.23629,0.24414 0.71094,0.24414 0.47468,0 0.86328,-0.0478 0.86328,-0.10742 0,-0.14975 -0.56103,-0.25395 -1.01562,-0.25586 z m -35.974613,4.73437 c 0.824092,0.0489 1.483723,0.62266 3.0625,1.94727 2.933068,2.46091 6.560547,5.99215 6.560547,6.38672 0,0.15008 -0.09457,0.25509 -0.210938,0.23242 -0.116379,-0.0225 -3.195316,-0.21708 -6.841797,-0.43164 -6.381781,-0.37571 -9.584428,-0.76583 -9.597656,-1.16993 -0.0034,-0.10523 -0.262925,-0.50856 -0.576172,-0.89648 l -0.568359,-0.70508 0.08203,0.69922 0.08203,0.69727 -4.289062,0.006 c -5.016692,0.008 -5.325027,-0.11331 -4.388672,-1.75391 0.517009,-0.90587 0.786708,-1.08597 1.867188,-1.24414 0.69445,-0.1017 1.95948,-0.38747 2.810546,-0.63477 0.851071,-0.24739 1.615793,-0.44922 1.701172,-0.44922 0.08539,0 0.620661,0.60086 1.189453,1.3379 0.750414,0.97241 0.978021,1.1485 0.828125,0.63671 -0.113605,-0.38792 -0.524148,-1.04433 -0.912109,-1.45898 l -0.705078,-0.75391 1.150391,-0.58789 c 0.785582,-0.40095 1.684017,-0.58593 2.841796,-0.58593 0.963617,-10e-6 2.334735,-0.2328 3.183594,-0.54102 1.347776,-0.48919 2.089506,-0.76838 2.730469,-0.73047 z m -17.064453,6.96875 c 0.09955,0.001 0.235543,0.0254 0.416015,0.0605 0.407358,0.0797 1.343029,0.22894 2.080079,0.33008 1.449097,0.19873 1.713131,0.5532 0.705078,0.94531 -0.349134,0.1358 -1.101737,0.56622 -1.671875,0.95703 -1.166801,0.79979 -1.239193,0.74033 -1.642579,-1.30469 -0.154658,-0.78423 -0.185339,-0.99152 0.113282,-0.98828 z m 6.578125,0.50781 c 1.016662,-0.0445 2.172986,0.10264 3.365234,0.44922 l 1.541016,0.44727 -0.675781,0.89258 c -0.371411,0.49091 -1.172702,1.59188 -1.779297,2.44531 -0.606599,0.85345 -1.346957,1.83639 -1.646485,2.18555 -0.299527,0.34914 -0.616675,0.61693 -0.705078,0.59765 -0.08839,-0.021 -1.001474,-0.18045 -2.027344,-0.35351 C 70.967821,330.98611 70.598793,330.72918 69.761719,329 l -0.623047,-1.28711 0.96289,-0.79687 c 0.529074,-0.43875 1.062889,-0.8034 1.1875,-0.80664 0.124612,-0.004 0.69279,-0.32495 1.263672,-0.7129 0.627326,-0.42637 1.50483,-0.66262 2.521485,-0.70703 z m 21.851562,0.69336 c 0.322084,-0.0459 0.848114,0.85689 0.59961,1.10547 -0.09799,0.0979 -0.478182,0.17774 -0.845703,0.17774 -0.574451,0 -0.62736,-0.0773 -0.375,-0.54883 0.161465,-0.30171 0.414014,-0.62215 0.560546,-0.71289 0.01935,-0.0128 0.039,-0.0184 0.06055,-0.0215 z m -15.742187,0.58789 c 2.073774,-0.0105 9.471972,0.37067 12.02539,0.64453 l 1.833985,0.19532 -1.269531,0.71289 c -2.909643,1.63016 -11.776187,5.41407 -14.595704,6.22851 -1.669799,0.4823 -3.671423,1.19635 -4.447265,1.58789 -0.775847,0.39156 -1.949901,1.0811 -2.609375,1.53321 l -1.199219,0.82226 0.0039,-1.91797 c 0.0017,-1.05486 0.08158,-2.39274 0.177735,-2.97461 0.164825,-0.99722 0.232961,-1.05916 1.195312,-1.05273 1.684793,0.0111 3.106747,0.45996 3.69336,1.16406 0.604611,0.72569 0.748079,0.53287 0.269531,-0.36133 -0.296387,-0.55379 0.08602,-1.47452 0.990234,-2.38281 0.166488,-0.16723 0.919303,-1.14292 1.671875,-2.16797 0.752568,-1.02507 1.529536,-1.92448 1.726563,-2 0.04924,-0.0193 0.236926,-0.0278 0.533203,-0.0293 z m 16.240234,2.10742 c 0.100845,10e-6 0.644702,0.60278 1.207031,1.33985 0.562334,0.73704 1.658721,2.0372 2.437501,2.89062 1.19956,1.31453 1.4396,1.76784 1.57226,2.96289 0.33748,3.03923 0.34427,6.49575 0.0137,7.60157 -0.33816,1.13079 -0.3399,1.61857 -0.0117,3.68359 0.0995,0.626 0.0373,1.2186 -0.15235,1.44727 -0.46861,0.56466 -0.57033,0.49981 -1.73242,-1.10547 -0.930638,-1.28557 -1.058591,-1.658 -1.058591,-3.08594 0,-1.89872 -0.707143,-3.94329 -1.945313,-5.62695 -0.828669,-1.12676 -0.877082,-1.33115 -0.875,-3.7461 0.0024,-3.03239 0.287536,-6.36133 0.544922,-6.36133 z m -2.310547,0.0215 c 0.200825,-0.001 0.08405,0.17881 -0.347656,0.53711 -0.756983,0.62823 -4.341012,5.79197 -5.599609,8.06836 -1.197585,2.16601 -1.274187,2.243 -2.615235,2.55859 -0.759934,0.179 -2.189819,0.59835 -3.177734,0.9336 -0.987916,0.3352 -1.970908,0.54137 -2.185547,0.45898 -0.232105,-0.0892 -0.390625,0.034 -0.390625,0.30273 0,0.24836 -0.27224,0.91125 -0.603516,1.47266 l -0.601562,1.01953 1.095703,-1.15039 c 0.918947,-0.96574 1.464563,-1.25105 3.373047,-1.76367 1.251919,-0.33642 2.439113,-0.61133 2.638672,-0.61133 0.199544,0 -0.162335,0.60276 -0.802735,1.33984 -0.640399,0.73705 -2.288889,2.81649 -3.664062,4.6211 -1.375174,1.80461 -2.616194,3.20103 -2.757813,3.10351 -0.14163,-0.0977 -0.555613,-0.60369 -0.919921,-1.125 l -0.66211,-0.94921 0.619141,-1.27149 c 0.770747,-1.58646 0.595149,-1.87584 -0.279297,-0.46094 l -0.652344,1.05664 -0.353516,-0.83007 c -0.194721,-0.45638 -0.360006,-1.10503 -0.367187,-1.44141 -0.0081,-0.38755 -0.377282,-0.83611 -1.005859,-1.22461 l -0.992188,-0.61328 0.640625,-0.5 c 0.35184,-0.27485 1.274935,-0.82855 2.050781,-1.23047 0.775854,-0.40184 1.23741,-0.73658 1.027344,-0.74414 -0.210066,-0.007 -1.249252,0.44233 -2.310547,1 l -1.929687,1.01563 -0.939453,-0.7168 c -0.516189,-0.39375 -1.234822,-1.11665 -1.597657,-1.60742 -0.806396,-1.0907 -0.732903,-1.18488 2.220704,-2.77735 2.044845,-1.10247 7.117473,-2.6013 7.501953,-2.21679 0.298083,0.29808 -1.317389,4.17055 -1.888672,4.52734 -0.636049,0.39693 -0.71135,0.81447 -0.105469,0.58203 0.234739,-0.0903 0.636843,0.007 0.894531,0.21875 0.417789,0.34273 0.449618,0.31079 0.294922,-0.28906 -0.109905,-0.42614 0.156096,-1.55478 0.726563,-3.08008 l 0.90039,-2.40625 2.679688,-1.25586 c 1.474106,-0.69117 4.363919,-2.05978 6.419922,-3.03906 2.11511,-1.00743 3.3313,-1.50965 3.666015,-1.51172 z m 1.046875,0.35937 c 0.117317,-0.0367 0.139198,0.33196 0.05469,1.02735 -0.08493,0.69825 -0.161985,2.42608 -0.169922,3.83984 l -0.01367,2.57031 -1.576172,0.60352 c -0.867243,0.33177 -1.661095,0.59923 -1.763672,0.58789 -0.219696,-0.0184 -1.457031,-1.54571 -1.457031,-1.79883 0,-0.30634 3.929875,-5.78561 4.869141,-6.78906 0.02067,-0.0222 0.03963,-0.0346 0.05664,-0.041 z m 24.871094,0.2793 c -0.10114,-0.0169 -0.17383,0.0448 -0.17383,0.16797 0,0.16433 0.12798,0.29883 0.2832,0.29883 0.15523,0 0.28126,-0.0566 0.28126,-0.125 0,-0.0687 -0.12599,-0.20291 -0.28126,-0.29883 -0.0389,-0.0245 -0.0757,-0.0365 -0.10937,-0.043 z m -29.935547,6.95508 c 0.05627,0 0.381856,0.49521 0.722656,1.10156 l 0.619141,1.10352 1.255859,-0.53906 c 1.354413,-0.58016 2.054688,-0.68082 2.054688,-0.29493 0,0.13357 -0.447035,1.59376 -0.994141,3.2461 -1.012686,3.0585 -1.82118,7.4232 -1.824218,9.84179 -0.0021,1.68809 -0.361284,1.73708 -3.044922,0.42188 -1.126666,-0.55219 -1.336674,-0.56748 -3.052735,-0.22656 -2.402562,0.47758 -5.538459,0.14278 -6.546875,-0.69922 -0.182404,-0.15232 4.238688,-5.72371 6.554688,-8.25977 1.319595,-1.44499 2.794584,-3.31634 3.277344,-4.16015 0.482762,-0.84378 0.922238,-1.53516 0.978515,-1.53516 z m 20.080077,1.24219 c -0.40163,-0.0577 -0.13588,0.44531 0.58399,0.98242 0.42671,0.3182 0.81107,0.58033 0.85351,0.58789 0.25371,0.0294 -0.88919,-1.38164 -1.22266,-1.50977 -0.0849,-0.0336 -0.15747,-0.0492 -0.21484,-0.0605 z m -14.621092,1.27929 v 0.002 c 0.255435,-0.0197 1.122332,1.21083 1.728515,2.48242 0.441676,0.92651 0.572141,1.78447 0.580078,3.80859 0.0088,2.29807 0.05437,2.53277 0.376953,1.95117 0.363704,-0.65578 0.374303,-0.64928 1.291016,0.7793 0.7289,1.13594 0.8549,1.52532 0.5957,1.83789 -0.18078,0.21782 -1.466081,0.85017 -2.855466,1.40625 -1.475353,0.59052 -3.013062,1.01172 -3.695312,1.01172 h -1.167969 l 0.1875,-2.43164 c 0.102747,-1.33678 0.296485,-2.62763 0.431641,-2.86914 0.248356,-0.44379 0.519736,-0.0771 1.628906,2.19726 0.405615,0.83169 1.469385,2.10173 1.626953,1.94336 0.06046,-0.0608 -0.320181,-0.7437 -0.847656,-1.51953 -0.527479,-0.77586 -0.962765,-1.58238 -0.964844,-1.79101 -0.0024,-0.20878 -0.271445,-0.75478 -0.597656,-1.21289 -0.466046,-0.65454 -0.551546,-1.05619 -0.398438,-1.87696 0.180095,-0.96536 1.760448,-5.3835 2.03711,-5.69531 0.01122,-0.0113 0.02596,-0.0222 0.04297,-0.0234 z m -4.472657,0.0156 c -0.155149,0 -0.283203,0.12591 -0.283203,0.28125 0,0.15534 0.128054,0.2832 0.283203,0.2832 0.15515,0 0.28125,-0.12786 0.28125,-0.2832 0,-0.15534 -0.126062,-0.28125 -0.28125,-0.28125 z m 25.697269,0.35547 c -0.0114,0.017 0.11994,0.12346 0.38281,0.33398 0.5757,0.4611 0.7207,0.52245 0.7207,0.30664 0,-0.0723 -0.28561,-0.26817 -0.63476,-0.4375 -0.30463,-0.14778 -0.45893,-0.21824 -0.46875,-0.20312 z m -25.953128,0.49023 c -0.139994,0 -0.386535,0.38213 -0.548828,0.84766 -0.358836,1.02939 0.01955,1.12992 0.476562,0.12695 0.394092,-0.86521 0.401652,-0.97461 0.07227,-0.97461 z m 27.794918,0.66211 c -0.10114,-0.017 -0.17382,0.0448 -0.17382,0.16797 0,0.16403 0.12598,0.29883 0.28125,0.29883 0.15526,0 0.2832,-0.0566 0.2832,-0.125 0,-0.0688 -0.12798,-0.20283 -0.2832,-0.29883 -0.0389,-0.0249 -0.0738,-0.0354 -0.10743,-0.043 z m -6.00781,0.84961 c -0.15526,0.0752 -0.12619,0.61026 0.11914,1.2168 0.1841,0.45505 0.21946,0.43717 0.30469,-0.15039 0.0535,-0.367 -0.0408,-0.80642 -0.20899,-0.97461 -0.0914,-0.0913 -0.16298,-0.11826 -0.21484,-0.0918 z m -22.734374,0.85547 c -0.07525,-0.021 -0.231132,0.12821 -0.474609,0.44531 -0.29475,0.38359 -0.474999,0.7974 -0.400391,0.91797 0.252885,0.40921 0.60065,0.2214 0.771485,-0.41602 0.163389,-0.60982 0.200271,-0.9208 0.103515,-0.94726 z m -0.191406,2.42969 c -0.216491,0 -0.234503,0.92453 -0.04492,2.32617 0.01572,0.11641 0.09233,0.21289 0.169922,0.21289 0.07756,0 0.140625,-0.57123 0.140625,-1.26953 0,-0.69823 -0.119244,-1.26953 -0.265625,-1.26953 z m 17.45898,2.25586 c -0.16433,0 -0.22092,0.12786 -0.125,0.2832 0.0959,0.15534 0.23046,0.2832 0.29883,0.2832 0.0687,0 0.125,-0.12786 0.125,-0.2832 0,-0.15534 -0.13449,-0.2832 -0.29883,-0.2832 z m -17.476558,0.56445 c -0.155188,0 -0.279903,0.34864 -0.277344,0.77539 0.0034,0.60435 0.06425,0.68309 0.277344,0.35352 0.356712,-0.55197 0.356712,-1.12891 0,-1.12891 z m 8.246094,0.68359 c -0.01988,0 -0.03982,0.0101 -0.0625,0.0215 -0.155188,0.0959 -0.281376,0.64404 -0.279297,1.21679 0.0032,0.77624 0.07543,0.93436 0.279297,0.61915 0.34114,-0.52789 0.361007,-1.87632 0.0625,-1.85743 z m -8.396485,1.14063 c -0.05031,-0.0164 -0.08594,0.1446 -0.08594,0.43359 0,0.38703 0.0643,0.54545 0.142578,0.35156 0.07827,-0.19396 0.07827,-0.51118 0,-0.70507 -0.0195,-0.0476 -0.03963,-0.0725 -0.05664,-0.0801 z"
         transform="matrix(0.26458333,0,0,0.26458333,9.3110268,11.112501)"
         id="path2038-7"
         inkscape:connector-curvature="0"
         sodipodi:nodetypes="cccccccssccccccccscccccccccsccccccccscccccccscscscccscsccscscsccccscccccccccccscccccccccccccssccccccscccccccsscscscccsccssscssccscsccsssssssscsccccccsccccsccccsssccccsccccccssccccccccccccccccccccccscccccccccccccscccccsccccccccccccccccccccccccsccccccccccscscccccccccsccccccccccccccccccccccccccsccccccccccccscscccssccsccsscccscccccccccccscccccccccccccccccccccccccccccccscccccccccccccccccccccccscccccscccccccccsccccscsccccccccccccccccccccccccccccccccccscccsssccscccscccccccscccccccccccccscccccccccccsssssccsccsccscsssccccccccccccscsssscssssccsccccccsccc" />
    </g>
    <g
       id="g2304"
       transform="translate(-18.573052)">
      <path
         transform="scale(0.26458333)"
         id="path2038"
         d="M 167.45703,11.529297 A 80.32636,80.326352 0 0 0 87.130859,91.855469 80.32636,80.326352 0 0 0 167.45703,172.18164 80.32636,80.326352 0 0 0 247.7832,91.855469 80.32636,80.326352 0 0 0 167.45703,11.529297 Z m 17.60352,13.880859 c 1.52832,-0.01241 2.88986,0.08644 3.91601,0.316406 6.72797,1.507767 13.48502,6.22377 17.70508,12.357422 1.35815,1.97401 3.44049,3.661892 6.80469,5.515625 6.52367,3.594664 12.14673,9.208817 14.77148,14.748047 1.74536,3.683369 2.09732,5.265181 2.20117,9.886719 0.11827,5.261771 0.23036,5.631117 2.55079,8.462891 2.95283,3.603552 4.99407,8.742842 4.98437,12.542968 -0.0121,4.699495 -2.29432,10.933696 -5.67187,15.492186 -1.20352,1.62431 -1.56148,3.25164 -1.91016,8.66602 -0.56765,8.81454 -1.89818,12.41008 -6.08399,16.45508 -2.86327,2.76695 -10.28059,7.8789 -11.43359,7.8789 -0.20632,0 -2.66648,2.35605 -5.4668,5.23633 -7.05906,7.26062 -11.04889,8.52976 -20.55664,6.53711 l -4.13086,-0.86524 -2.86914,2.2793 c -1.57813,1.25438 -4.96849,3.34983 -7.53515,4.65625 -4.29761,2.18749 -5.22156,2.39707 -11.66797,2.63672 -6.4122,0.23838 -7.29517,0.11729 -10.5332,-1.42969 -3.23309,-1.54463 -3.82871,-1.62543 -6.97266,-0.95117 -4.54715,0.97519 -11.9031,0.30372 -15.43945,-1.4082 -3.69698,-1.78968 -9.72071,-10.4223 -9.72071,-13.93164 0,-0.82021 -1.67297,-2.61194 -4.5,-4.82031 -5.69688,-4.45022 -7.29883,-6.21453 -8.99023,-9.90821 -1.19037,-2.59951 -1.30615,-3.7779 -0.9336,-9.46289 l 0.42579,-6.49414 -2.32227,-3.96289 c -2.836966,-4.84055 -3.591552,-6.761654 -4.433593,-11.294922 -0.633812,-3.412199 -0.569856,-3.668909 2.125,-8.550781 1.527913,-2.767907 3.945313,-6.259003 5.371093,-7.757813 2.07298,-2.179147 2.5918,-3.229615 2.5918,-5.242187 0,-4.358514 2.02013,-11.459255 4.34375,-15.265625 3.56213,-5.835209 10.64159,-12.158766 14.91015,-13.31836 1.76678,-0.479962 2.89108,-1.417558 4.20118,-3.501953 2.8644,-4.557348 7.88068,-9.112345 12.42382,-11.28125 5.75489,-2.747397 14.447,-3.328027 20.58594,-1.375 l 4.13281,1.314453 3.40821,-1.630859 c 3.04782,-1.458637 9.13379,-2.492056 13.71875,-2.529297 z m 0.0625,1.71875 c -3.42668,-0.05774 -8.18159,0.266598 -10.1211,0.873047 -1.46667,0.458612 -2.59508,1.175112 -2.50781,1.591797 0.0886,0.422993 -0.28317,0.587403 -0.8418,0.373047 -0.55027,-0.211162 -1.4567,-0.0052 -2.01367,0.457031 -0.80561,0.668599 -1.56642,0.673401 -3.72265,0.02734 -1.49073,-0.446634 -2.86731,-0.654176 -3.0586,-0.462891 -0.19128,0.191282 -0.78386,-0.08855 -1.3164,-0.621093 -0.67438,-0.674382 -2.48521,-0.96875 -5.9668,-0.96875 -7.32428,0 -13.8352,2.810054 -19.26953,8.316406 -2.21688,2.246256 -4.40843,4.99516 -4.86914,6.107422 -0.67095,1.619807 -1.55644,2.249009 -4.45313,3.162109 -2.7067,0.853213 -4.72504,2.195935 -8.02539,5.337891 l -4.41015,4.197265 4.22851,3.34375 c 5.20336,4.115002 8.50729,6.21593 16.22656,10.314453 6.69697,3.555731 7.2342,3.719313 6.75391,2.054688 -0.18512,-0.641669 -0.53901,-3.463609 -0.78516,-6.271484 l -0.44726,-5.105469 -5.25977,-4.773438 c -2.89342,-2.625339 -5.26172,-5.084314 -5.26172,-5.46289 0,-0.378577 1.59595,0.768414 3.54688,2.546875 1.95092,1.77846 4.32303,3.644362 5.27148,4.146484 1.61808,0.856626 1.85137,0.773722 3.76758,-1.333984 1.1232,-1.235452 2.0498,-2.438017 2.06055,-2.671875 0.0106,-0.23384 -1.04762,-1.978508 -2.35352,-3.876953 -1.3059,-1.898446 -2.24995,-3.805869 -2.09765,-4.240235 0.15227,-0.434366 1.53102,1.198239 3.06445,3.628906 2.54367,4.032012 3.12808,4.54399 6.66601,5.833985 2.13282,0.777664 4.18038,1.414062 4.54883,1.414062 0.36843,0 0.85974,-1.816928 1.0918,-4.037109 0.48339,-4.62483 -0.21993,-6.641294 -3.89648,-11.181641 -1.28494,-1.586838 -2.33594,-3.193686 -2.33594,-3.570312 0,-0.97155 5.9342,5.416246 7.08008,7.621094 0.52403,1.008332 1.09943,1.833984 1.27734,1.833984 0.1779,0 1.64319,-0.620865 3.25586,-1.378906 2.61864,-1.230909 3.2324,-1.288476 5.74023,-0.53711 2.47821,0.742488 2.90377,0.709919 3.63282,-0.287109 0.45434,-0.621347 1.07881,-1.130859 1.38671,-1.130859 0.30792,0 0.23636,0.324192 -0.16015,0.720703 -1.1381,1.138095 0.29994,4.764578 3.1914,8.046875 3.03098,3.440666 2.97332,3.487121 5.9336,-4.990235 1.72284,-4.933719 1.91767,-6.069479 1.19336,-6.960937 -0.73663,-0.906603 -0.69928,-1.003804 0.25,-0.648438 0.80315,0.300662 1.29395,-0.08425 1.75195,-1.375 0.34991,-0.986041 1.72317,-3.396452 3.05078,-5.357422 1.32761,-1.960966 2.2454,-3.837273 2.04102,-4.167968 -0.20459,-0.331037 -1.78188,-0.502467 -3.83789,-0.53711 z m 5.5625,1.3125 c -0.44265,0.04795 -0.6836,0.240416 -0.6836,0.580078 0,0.342312 -0.89553,2.067955 -1.99023,3.833985 -1.65164,2.664521 -6.67578,16.389035 -6.67578,18.236328 0,0.504329 10.98918,-2.127856 11.65234,-2.791016 0.16562,-0.165619 0.37504,-2.161855 0.46484,-4.435547 0.0898,-2.273692 0.4199,-4.132812 0.73438,-4.132812 0.31449,0 0.49229,2.555236 0.39453,5.677734 -0.23898,7.633459 0.32217,8.22732 5.77735,6.119141 l 3.97656,-1.537109 0.20312,-3.146485 c 0.11214,-1.7306 0.44907,-2.995328 0.74805,-2.810547 0.29896,0.184781 0.40785,1.509063 0.24219,2.94336 -0.33933,2.937687 0.089,3.391021 3.6289,3.830078 3.98,0.493644 3.37985,0.923828 -1.28906,0.923828 -2.91348,0 -5.47264,0.464034 -7.73047,1.402344 -3.83934,1.595561 -3.95937,1.929607 -4.08203,11.503906 -0.0559,4.366189 0.0972,5.178229 0.91797,4.863281 0.54177,-0.207912 4.06999,-2.455194 7.83984,-4.994141 3.76986,-2.53895 7.99789,-5.535876 9.39649,-6.658203 1.3986,-1.12233 3.8736,-2.548794 5.5,-3.169921 1.6264,-0.621128 2.95703,-1.292586 2.95703,-1.494141 0,-0.769232 -2.93839,-3.453125 -3.78125,-3.453125 -0.48609,0 -0.88411,-0.375656 -0.88477,-0.833984 -0.001,-0.86956 -3.63873,-3.337126 -8.52734,-5.78711 -1.57311,-0.788379 -3.11612,-2.09624 -3.42969,-2.90625 -0.84613,-2.185723 -8.89828,-9.673523 -11.6289,-10.814453 -1.69327,-0.707487 -2.99273,-1.029143 -3.73047,-0.949219 z m 6.71679,3.625 -1.05078,2.166016 c -1.03331,2.132035 -1.68359,2.739678 -1.68359,1.574219 0,-0.32606 0.61572,-1.302351 1.36719,-2.167969 z m -19.98828,2.332032 c 0.36665,0 0.48054,0.30132 0.25391,0.667968 -0.22662,0.366652 -0.71146,0.666016 -1.07813,0.666016 -0.36665,0 -0.4805,-0.299371 -0.2539,-0.666016 0.22662,-0.366652 0.71146,-0.667968 1.07812,-0.667968 z m 1.72266,0 c 0.66164,0 2.40647,2.681424 2.00586,3.082031 -0.15647,0.156472 -0.57958,-0.09923 -0.94141,-0.566407 -1.21314,-1.566425 -1.61446,-2.515624 -1.06445,-2.515624 z m -4.30078,2.009765 c 1.21296,0.0083 1.30864,0.135616 0.5,0.658203 -1.29251,0.835285 -2,0.835285 -2,0 0,-0.366652 0.675,-0.663815 1.5,-0.658203 z m -11.5,1.324219 c 0.36665,0 0.66601,0.299366 0.66601,0.666016 0,0.366651 -0.29933,0.667968 -0.66601,0.667968 -0.36665,0 -0.66797,-0.30132 -0.66797,-0.667968 0,-0.366652 0.30128,-0.666016 0.66797,-0.666016 z m 42.70508,4 c 0.3883,0 0.52155,0.299367 0.29492,0.666016 -0.22662,0.366651 -0.54534,0.667968 -0.70703,0.667968 -0.16169,0 -0.29297,-0.301283 -0.29297,-0.667968 0,-0.366652 0.31677,-0.666016 0.70508,-0.666016 z m -41.33008,3.046875 c -1.07265,-0.04123 -1.9888,0.261058 -3.63282,0.988281 -4.99703,2.210427 -4.93499,4.133707 0.78516,24.298828 1.45615,5.133332 3.04637,11.49396 3.5332,14.136719 0.48684,2.642751 1.02657,4.66288 1.20118,4.488281 0.17461,-0.174614 0.70902,-1.436536 1.18554,-2.804687 0.47653,-1.368155 0.86948,-3.294555 0.875,-4.28125 0.006,-0.986695 0.31107,-1.980419 0.67774,-2.207031 0.36665,-0.226621 0.66601,-1.117222 0.66601,-1.978516 0,-0.86129 1.48354,-6.011195 3.29688,-11.445313 l 3.29687,-9.880859 -2.57422,-3.347656 c -1.41611,-1.841284 -2.92286,-4.116982 -3.34765,-5.056641 -0.54464,-1.20477 -1.62639,-1.935335 -3.67188,-2.482422 -0.9466,-0.253176 -1.64742,-0.402998 -2.29101,-0.427734 z m -36.30078,3.181641 c 0.0797,0.0134 0.16614,0.04881 0.25781,0.105468 0.36665,0.226621 0.66797,0.543383 0.66797,0.705078 0,0.161689 -0.30132,0.294922 -0.66797,0.294922 -0.36665,0 -0.66602,-0.318726 -0.66602,-0.707031 0,-0.291229 0.16914,-0.438636 0.40821,-0.398437 z m 87.41406,2.15625 c 0.42154,-0.03303 0.62676,0.09441 0.47266,0.34375 -0.35883,0.580603 -2.29493,0.875647 -2.29493,0.349609 0,-0.140561 0.60015,-0.413567 1.33399,-0.605469 0.18346,-0.04798 0.34777,-0.07688 0.48828,-0.08789 z m -23.24414,0.316406 c -0.52545,0.02282 -1.6472,0.226112 -2.89258,0.539062 -10.64515,2.674968 -9.30814,1.424947 -12.75391,11.931641 -2.44476,7.454483 -7.59765,26.79977 -7.59765,28.521484 0,1.226982 4.80477,-2.609096 15.8125,-12.61914 9.06979,-8.247746 8.15841,-6.42167 9.36523,-18.740235 0.57573,-5.876685 0.44329,-6.66759 -1.62305,-9.59375 -0.0251,-0.03556 -0.13539,-0.04667 -0.31054,-0.03906 z M 145.96094,54.125 c -1.4204,-0.07892 -1.799,0.639416 -2.89844,2.300781 -1.69917,2.567619 -1.7416,2.849206 -1.0332,6.826172 2.12185,11.912149 1.51515,10.650938 7.51562,15.583985 3.00177,2.467782 7.38658,6.362775 9.74414,8.65625 2.35758,2.293474 4.4968,4.039758 4.75391,3.880859 0.25712,-0.158891 0.0588,-2.16784 -0.43945,-4.464844 -1.08996,-5.024806 -2.75304,-11.464366 -5.72461,-22.150391 l -2.21875,-7.972656 -3.66211,-1.097656 c -3.19716,-0.957261 -4.93236,-1.501119 -6.03711,-1.5625 z m 77.08789,0.675781 c -1.51039,-0.04966 -3.68782,1.389767 -7.89453,4.734375 -1.82202,1.448621 -1.82864,1.478835 -0.45703,2.212891 0.76495,0.409391 1.89775,0.869434 2.51562,1.021484 4.35732,1.072279 5.64217,1.501231 4.66406,1.560547 -0.61891,0.03742 -3.12716,-0.395379 -5.57422,-0.96289 l -4.44921,-1.03125 -6.89454,4.53125 c -3.79163,2.492511 -6.9084,4.71937 -6.92578,4.949218 -0.0631,0.833609 6.50787,3.203653 10.77149,3.884766 4.03523,0.644632 4.65117,0.571037 8.11523,-0.960938 4.13333,-1.827953 5.12125,-1.384072 1.39063,0.625 l -2.35938,1.269532 3.16797,3.216796 c 3.43721,3.489672 2.79327,4.443346 -0.84375,1.25 -2.31335,-2.031144 -5.91267,-3.358775 -9.11914,-3.365234 -1.01501,-0.0021 -4.40057,-1.017942 -7.52344,-2.257812 l -5.67773,-2.25586 -2.47656,1.673828 c -1.36212,0.920395 -4.44728,3.528287 -6.85547,5.794922 -2.4082,2.26664 -6.83438,6.176933 -9.83594,8.689453 -3.00157,2.512528 -5.3802,4.635933 -5.28711,4.71875 0.0931,0.08281 2.86797,-0.276913 6.16797,-0.798828 3.3,-0.521915 11.7013,-1.06497 18.66797,-1.207031 8.12744,-0.165732 14.33771,-0.631322 17.33203,-1.298828 7.60951,-1.696328 9.3984,-1.159281 2.5,0.75 -3.39167,0.93871 -6.16602,1.917534 -6.16602,2.175781 0,0.854646 6.73436,6.164551 9.5586,7.537107 1.52653,0.7419 2.39974,1.47807 1.9414,1.63477 -1.12791,0.3856 -1.04769,1.19647 0.2461,2.49023 0.59364,0.59366 0.8858,1.2724 0.65039,1.50781 -0.23543,0.23543 -0.88836,-0.22966 -1.45117,-1.0332 -0.56283,-0.80354 -3.93063,-3.78078 -7.48438,-6.617186 l -6.46094,-5.158203 -10.53906,0.132813 c -9.36363,0.117127 -18.59051,0.906905 -22.95703,1.964844 -1.75548,0.425329 -1.35114,1.552734 0.55664,1.552734 2.18045,0 20.6572,7.088528 28.0918,10.777348 2.83352,1.40591 5.58677,2.55664 6.11914,2.55664 1.06808,0 14.92388,6.92778 15.99218,7.99609 1.48099,1.48099 -1.5217,0.55019 -7.32031,-2.26758 -5.8449,-2.84026 -10.91509,-4.6474 -11.47265,-4.08984 -0.27496,0.27496 0.71553,3.84335 2.0039,7.2207 0.39031,1.02314 1.49346,2.28922 2.45117,2.81445 l 1.74024,0.95508 -2.08008,-0.38086 c -2.04893,-0.37553 -2.08916,-0.33158 -2.56445,2.83789 -0.45056,3.00454 -0.54607,3.1307 -1.44141,1.90625 -0.59284,-0.81077 -0.69579,-1.39892 -0.26953,-1.54101 0.37936,-0.12646 0.68945,-1.25821 0.68945,-2.51563 0,-2.61417 -2.2876,-11.34409 -3.28906,-12.55078 -0.885,-1.06636 -7.27634,-4.04201 -7.72266,-3.5957 -0.76007,0.76007 1.17316,7.09782 3.01172,9.875 2.09154,3.1593 2.04961,4.69375 -0.0566,2.0957 -0.80628,-0.99453 -1.67146,-1.41873 -2.35547,-1.15625 -0.86474,0.33184 -1.01465,0.0765 -0.75586,-1.27734 0.34028,-1.78005 -1.62548,-10.08744 -2.59765,-10.97852 -0.59637,-0.54661 -12.09936,-4.5347 -18.06836,-6.26367 -1.925,-0.557593 -3.5,-0.735922 -3.5,-0.398437 0,1.179297 8.25939,10.380287 16.74023,18.650387 6.49632,6.3349 9.02426,9.29815 10.52344,12.33399 1.08523,2.1976 2.91152,4.97044 4.05664,6.16211 2.12249,2.20876 2.07834,3.03542 -0.0586,1.10156 -1.63107,-1.47611 -2.5934,-0.63745 -2.60547,2.27148 -0.005,1.35336 -0.30079,2.91094 -0.65625,3.46094 -0.44967,0.69581 -0.64915,-0.49214 -0.65625,-3.90625 -0.014,-6.62238 -2.5037,-11.44522 -8.28516,-16.04883 -2.23218,-1.77742 -4.62962,-3.86519 -5.32812,-4.63867 -1.46459,-1.62182 -2.71635,-1.86619 -2.16211,-0.42187 0.20787,0.54168 0.43124,3.59685 0.49414,6.78906 l 0.11328,5.80469 2.78125,3.04297 c 1.52992,1.67444 3.81653,4.38699 5.08008,6.02734 3.16816,4.11293 0.34533,2.12706 -4.1582,-2.92578 -1.82457,-2.04715 -3.55615,-3.72266 -3.84766,-3.72266 -0.66474,0 -1.55212,3.68421 -1.52539,6.33399 0.0745,7.38817 -0.25099,6.77658 3.99414,7.5039 5.72059,0.98012 8.89724,0.93768 12.54687,-0.16797 1.80822,-0.5478 4.48646,-2.04467 5.95313,-3.32812 2.57564,-2.25388 2.62297,-2.36836 1.37305,-3.33789 -0.71175,-0.55209 -0.99623,-1.00391 -0.63282,-1.00391 0.3634,0 0.98219,0.32204 1.375,0.71485 0.50784,0.50784 1.10823,0.21153 2.07813,-1.02149 0.75023,-0.95376 3.25164,-2.70013 5.55859,-3.88086 7.64593,-3.91327 15.78972,-12.88515 13.18946,-14.53125 -0.77206,-0.48874 -0.74527,-0.59708 0.15624,-0.60547 0.88575,-0.008 1.18836,-1.02993 1.56641,-5.30078 0.25761,-2.90995 0.2531,-5.63748 -0.01,-6.0625 -0.50612,-0.81891 0.71486,-3.64898 2.28711,-5.30078 2.59174,-2.72289 6.77926,-14.944024 5.51171,-16.085937 -0.24884,-0.224164 -2.77831,-0.792165 -5.62109,-1.261719 -2.84278,-0.469553 -5.67838,-1.226532 -6.30078,-1.68164 -0.78963,-0.577391 0.77367,-0.466579 5.16992,0.363281 3.46517,0.654096 6.38854,1.103672 6.49805,1 0.66689,-0.631321 -1.09456,-4.098845 -4.10547,-8.080078 -1.94577,-2.572834 -3.37146,-5.113097 -3.23633,-5.765625 0.29624,-1.430453 -0.51662,-1.465954 -3.64648,-0.158203 -1.32786,0.554812 -2.55398,0.869853 -2.72461,0.699219 -0.17065,-0.170646 1.22463,-0.981229 3.10156,-1.800782 3.04275,-1.328602 3.41135,-1.710791 3.4043,-3.53125 -0.0121,-3.15634 -1.69519,-8.753672 -3.31836,-11.033203 -0.71987,-1.010962 -1.38674,-1.577628 -2.29297,-1.607422 z m -108.76367,2.265625 c -1.15218,0 -3.36286,5.050666 -4.30469,9.837891 -0.99505,5.057726 -0.67715,6.072166 1.80273,5.759765 1.77536,-0.223634 1.75844,-0.194085 -0.28125,0.511719 -1.26404,0.437405 -2.16601,1.20703 -2.16601,1.847657 0,0.603949 -1.35,2.423615 -3,4.042968 -1.65,1.619354 -3,3.301469 -3,3.740235 0,1.517136 5.54569,0.141162 11.66601,-2.894532 3.3,-1.636815 6.10568,-3.077316 6.23438,-3.201171 0.12869,-0.123856 -0.57321,-1.282309 -1.5586,-2.574219 -1.53108,-2.007353 -2.09804,-2.303472 -3.90039,-2.03711 l -2.10937,0.3125 1.89258,-0.748047 c 1.37964,-0.545699 1.80253,-1.087989 1.5625,-2.005859 -0.46902,-1.79351 0.52776,-1.559019 1.38672,0.326172 1.39044,3.051693 4.8749,6.364009 7.14062,6.789063 2.0503,0.384638 11.05043,-1.83525 12.58399,-3.103516 0.31052,-0.256819 -1.48948,-1.582366 -4,-2.945313 -6.44568,-3.499317 -14.88186,-9.197778 -17.18946,-11.611328 -1.07693,-1.126382 -2.31874,-2.046875 -2.75976,-2.046875 z m -2.15625,4 c 0.65463,0 4.1437,3.285983 3.82617,3.603516 -0.17817,0.178167 -0.61661,0.114455 -0.97266,-0.140625 -0.94974,-0.680368 -3.24258,-3.462891 -2.85351,-3.462891 z m 112.80859,3.138672 c 1.0742,0.0044 2.39844,0.251894 2.39844,0.605469 0,0.140598 -0.91743,0.255859 -2.03906,0.255859 -1.12164,0 -1.87982,-0.260633 -1.6836,-0.578125 0.12447,-0.201391 0.6797,-0.285864 1.32422,-0.283203 z m -85.01172,11.1875 c -1.5146,-0.08996 -3.26441,0.570331 -6.44922,1.726563 -2.00586,0.728224 -5.24835,1.279297 -7.52539,1.279297 -2.73584,0 -4.86045,0.437729 -6.71679,1.384765 l -2.71485,1.386719 1.66602,1.78125 c 0.91676,0.979816 1.88584,2.530598 2.15429,3.447266 0.35418,1.209365 -0.18183,0.797797 -1.95507,-1.5 -1.34406,-1.741667 -2.60878,-3.166016 -2.81055,-3.166016 -0.20175,0 -2.01236,0.477864 -4.02344,1.0625 -2.01108,0.584636 -4.99963,1.259641 -6.64062,1.5 -2.55318,0.373984 -3.18846,0.79888 -4.41016,2.939453 -2.212615,3.876779 -1.48534,4.167233 10.36914,4.148437 l 10.13281,-0.01562 -0.19336,-1.650391 -0.19336,-1.650391 1.34571,1.666016 c 0.74018,0.916668 1.35122,1.87044 1.35937,2.11914 0.0314,0.954834 7.60143,1.877867 22.68164,2.765626 8.61667,0.507261 15.89102,0.966391 16.16602,1.019531 0.275,0.05314 0.5,-0.194664 0.5,-0.548828 0,-0.932312 -8.57305,-9.278641 -15.50391,-15.09375 -3.73066,-3.130089 -5.29094,-4.485901 -7.23828,-4.601563 z M 99.601562,91.859375 c -0.705693,-0.0095 -0.63109,0.485095 -0.265624,2.337891 0.953202,4.832398 1.125652,4.970004 3.882812,3.080078 1.34724,-0.923479 3.12422,-1.940826 3.94922,-2.261719 2.38203,-0.926506 1.7582,-1.762819 -1.66602,-2.232422 -1.74166,-0.238866 -3.95342,-0.588813 -4.91601,-0.777344 -0.42644,-0.08352 -0.749146,-0.143317 -0.984378,-0.146484 z m 15.544918,1.199219 c -2.40237,0.105206 -4.47269,0.666521 -5.95507,1.673828 -1.349,0.916664 -2.69188,1.673733 -2.98633,1.683594 -0.29446,0.0098 -1.5584,0.867504 -2.8086,1.904296 l -2.27343,1.884768 1.47265,3.04297 c 1.97802,4.08604 2.84984,4.6924 7.99805,5.56054 2.42414,0.40879 4.58019,0.78444 4.78906,0.83399 0.2089,0.0496 0.95823,-0.58516 1.66602,-1.41016 0.70779,-0.825 2.45918,-3.14935 3.89258,-5.16601 1.43339,-2.01667 3.32548,-4.617335 4.20312,-5.777348 l 1.5957,-2.109374 -3.63867,-1.056641 c -2.8173,-0.819011 -5.5527,-1.169659 -7.95508,-1.064453 z m 51.63672,1.638672 c -0.0507,0.0072 -0.0988,0.02445 -0.14453,0.05273 -0.34628,0.214035 -0.94072,0.972633 -1.32226,1.685547 -0.59633,1.114246 -0.47259,1.296875 0.88476,1.296875 0.86845,0 1.76845,-0.190356 2,-0.421875 0.5872,-0.587201 -0.65688,-2.7217 -1.41797,-2.613281 z m -37.19922,1.394531 c -0.70005,0.0036 -1.14342,0.02567 -1.25976,0.07031 -0.46558,0.178659 -2.30175,2.306296 -4.08008,4.728513 -1.77833,2.42222 -3.55581,4.72787 -3.94922,5.12305 -2.13667,2.1463 -3.0402,4.32223 -2.33984,5.63086 1.13081,2.11295 0.79004,2.56639 -0.63867,0.85156 -1.38618,-1.66377 -4.74539,-2.7218 -8.72657,-2.74804 -2.27404,-0.0151 -2.4367,0.12814 -2.82617,2.48437 -0.22726,1.375 -0.41588,4.53864 -0.41992,7.03125 l -0.008,4.53321 2.83398,-1.94336 c 1.55834,-1.06829 4.33269,-2.69976 6.16602,-3.625 1.83333,-0.92525 6.56206,-2.61419 10.50781,-3.75391 6.66254,-1.92446 27.61668,-10.86474 34.49219,-14.7168 l 3,-1.68164 -4.33399,-0.464844 C 151.968,96.96433 134.48433,96.066935 129.58398,96.091797 Z m 38.37696,4.974613 c -0.60822,0 -1.28148,7.86955 -1.28711,15.03515 -0.005,5.70654 0.10833,6.18708 2.0664,8.84961 2.9258,3.97847 4.59571,8.81213 4.59571,13.29883 0,3.37427 0.30089,4.25129 2.5,7.28906 2.74602,3.79327 2.98641,3.94754 4.09375,2.61328 0.44821,-0.54006 0.59642,-1.9387 0.36133,-3.41796 -0.77549,-4.87956 -0.77141,-6.03306 0.0273,-8.70508 0.78121,-2.61303 0.76803,-10.78119 -0.0293,-17.96289 -0.31347,-2.8239 -0.88222,-3.89372 -3.71679,-7 -1.84028,-2.01667 -4.43293,-5.09232 -5.76172,-6.83399 -1.3288,-1.74166 -2.61131,-3.16601 -2.84961,-3.16601 z m -5.45899,0.0566 c -0.79095,0.005 -3.66798,1.19171 -8.66601,3.57226 -4.85834,2.31402 -11.68464,5.54453 -15.16797,7.17774 l -6.33203,2.96875 -2.12891,5.68945 c -1.34802,3.60438 -1.97651,6.2703 -1.7168,7.27734 0.36552,1.41734 0.28997,1.49125 -0.69726,0.68164 -0.60892,-0.49935 -1.56056,-0.73237 -2.11524,-0.51953 -1.43171,0.54941 -1.25302,-0.43243 0.25,-1.37109 1.34994,-0.84305 5.16922,-9.99485 4.46485,-10.69922 -0.90854,-0.90855 -12.89457,2.63314 -17.72656,5.23828 -6.9794,3.76292 -7.15553,3.98318 -5.25,6.56055 0.85738,1.15967 2.55758,2.87042 3.77734,3.80078 l 2.2168,1.69141 4.56054,-2.39649 c 2.50785,-1.31784 4.96651,-2.3823 5.46289,-2.36523 0.49638,0.017 -0.59831,0.80815 -2.43164,1.75781 -1.83333,0.94966 -4.0143,2.2588 -4.8457,2.9082 l -1.50977,1.17969 2.34375,1.44922 c 1.48534,0.91799 2.35596,1.97885 2.375,2.89453 0.0166,0.7951 0.40703,2.32965 0.86719,3.4082 l 0.83594,1.96094 1.54297,-2.49609 c 2.06632,-3.34338 2.4795,-2.66285 0.6582,1.08593 l -1.46289,3.00782 1.56641,2.24023 c 0.86089,1.23181 1.83916,2.42923 2.17383,2.66016 0.33467,0.23093 3.26607,-3.06972 6.51562,-7.33399 3.24955,-4.26426 7.14689,-9.17825 8.66016,-10.91992 1.51327,-1.74166 2.36605,-3.16601 1.89453,-3.16601 -0.47152,0 -3.27803,0.64872 -6.23633,1.44336 -4.50976,1.21138 -5.79727,1.88583 -7.96875,4.16796 l -2.58984,2.72071 1.42382,-2.41211 c 0.78278,-1.32662 1.42188,-2.89164 1.42188,-3.47852 0,-0.6346 0.37536,-0.92335 0.92383,-0.71289 0.50722,0.19465 2.83156,-0.29413 5.16601,-1.08594 2.33445,-0.79181 5.71404,-1.7861 7.50977,-2.20898 3.16891,-0.74627 3.34978,-0.92468 6.17969,-6.04297 2.97407,-5.37903 11.44366,-17.58186 13.23242,-19.06641 1.02013,-0.84663 1.29684,-1.27041 0.82226,-1.26757 z m 2.47266,0.8457 c -0.0396,0.0124 -0.084,0.0455 -0.13281,0.0977 -2.21949,2.37113 -11.50586,15.32107 -11.50586,16.04492 0,0.59801 2.9203,4.20654 3.43945,4.25 0.24238,0.0204 2.11867,-0.60445 4.16797,-1.38867 l 3.72461,-1.42578 0.0352,-6.07422 c 0.0185,-3.34078 0.19784,-7.42422 0.39844,-9.07422 0.19975,-1.64314 0.1502,-2.51652 -0.12695,-2.42969 z m 58.76953,0.66016 c 0.0797,0.0134 0.16614,0.0468 0.25781,0.10351 0.36666,0.22662 0.66602,0.54338 0.66602,0.70508 0,0.16169 -0.29933,0.29492 -0.66602,0.29492 -0.36665,0 -0.66601,-0.31872 -0.66601,-0.70703 0,-0.29123 0.16914,-0.43668 0.4082,-0.39648 z m -70.73633,16.4375 c -0.13296,0 -1.17368,1.63114 -2.31445,3.625 -1.14077,1.99386 -4.62593,6.41756 -7.74414,9.83203 -5.47273,5.99269 -15.92126,19.15963 -15.49024,19.51953 2.3829,1.98964 9.79733,2.7808 15.47461,1.65234 4.05506,-0.80602 4.54862,-0.76956 7.21094,0.53516 6.34146,3.10775 7.19036,2.99088 7.19531,-0.99805 0.007,-5.71515 1.91951,-16.02669 4.3125,-23.2539 1.29282,-3.90452 2.34961,-7.35627 2.34961,-7.67188 0,-0.91189 -1.65499,-0.67461 -4.85547,0.69727 l -2.96875,1.27148 -1.46289,-2.60547 c -0.8053,-1.43284 -1.57407,-2.60351 -1.70703,-2.60351 z M 200.45703,122 c 0.13558,0.0195 0.30454,0.0653 0.50586,0.14258 0.78797,0.30236 3.48819,3.63792 2.88867,3.56836 -0.10012,-0.0117 -1.00729,-0.63637 -2.01562,-1.38867 -1.70105,-1.26912 -2.32794,-2.45858 -1.37891,-2.32227 z m -34.54883,3.02539 c -0.0402,0.003 -0.0747,0.0206 -0.10156,0.0508 -0.65378,0.7365 -4.38889,11.17579 -4.81445,13.45703 -0.36178,1.9394 -0.15994,2.8908 0.9414,4.4375 0.77084,1.08254 1.40651,2.37184 1.41211,2.86524 0.005,0.4934 1.03092,2.39713 2.27735,4.23047 1.24643,1.83333 2.14873,3.45014 2.00586,3.59375 -0.3724,0.37432 -2.88528,-2.62844 -3.84375,-4.59375 -2.62098,-5.37419 -3.26274,-6.24008 -3.84961,-5.19141 -0.31937,0.57068 -0.77868,3.62241 -1.02149,6.78125 l -0.4414,5.74219 h 2.75976 c 1.61217,0 5.2442,-0.99331 8.73047,-2.38867 3.28313,-1.31405 6.31889,-2.80947 6.74609,-3.32422 0.61245,-0.73796 0.31423,-1.65763 -1.4082,-4.3418 -2.1662,-3.37573 -2.19135,-3.39136 -3.05078,-1.8418 -0.76224,1.37434 -0.86985,0.81864 -0.89062,-4.61133 -0.0185,-4.78293 -0.3274,-6.81064 -1.3711,-9 -1.43242,-3.00476 -3.47648,-5.91182 -4.08008,-5.86523 z m -10.57226,0.041 c 0.36665,0 0.66601,0.29933 0.66601,0.66601 0,0.36665 -0.29933,0.66602 -0.66601,0.66602 -0.36665,0 -0.66797,-0.29933 -0.66797,-0.66602 0,-0.36665 0.30128,-0.66601 0.66797,-0.66601 z m 60.72461,0.83984 c 0.0268,-0.0403 0.38721,0.12951 1.10742,0.47852 0.825,0.39979 1.5,0.86667 1.5,1.03711 0,0.51014 -0.34491,0.36316 -1.70508,-0.72657 -0.62134,-0.4978 -0.9291,-0.74879 -0.90234,-0.78906 z m -61.32617,1.16016 c 0.77839,0 0.75946,0.25673 -0.17188,2.30078 -1.07992,2.37016 -1.97488,2.13159 -1.12695,-0.30078 0.38346,-1.1 0.96802,-2 1.29883,-2 z m 65.67578,1.5625 c 0.0797,0.0134 0.16614,0.0469 0.25781,0.10351 0.36665,0.22662 0.66797,0.54339 0.66797,0.70508 0,0.16169 -0.30129,0.29492 -0.66797,0.29492 -0.36665,0 -0.66602,-0.31872 -0.66602,-0.70703 0,-0.29123 0.16914,-0.43668 0.40821,-0.39648 z m -14.19336,2.00781 c 0.12234,-0.0592 0.29197,0.003 0.50781,0.21875 0.39771,0.39771 0.62016,1.43349 0.49414,2.30078 -0.20175,1.38841 -0.28774,1.4307 -0.72266,0.35547 -0.57975,-1.43324 -0.64632,-2.69739 -0.27929,-2.875 z m -53.72071,2.02148 c 0.22861,0.064 0.13812,0.79927 -0.24804,2.24024 -0.40367,1.50626 -1.22275,1.9493 -1.82032,0.98242 -0.17627,-0.28524 0.24882,-1.26156 0.94532,-2.16797 0.57528,-0.74867 0.94524,-1.10442 1.12304,-1.05469 z m -0.45507,5.74024 c 0.34586,0 0.62695,1.35 0.62695,3 0,1.65 -0.14873,3 -0.33203,3 -0.18335,0 -0.3632,-0.225 -0.40039,-0.5 h -0.002 c -0.44801,-3.312 -0.40411,-5.5 0.10743,-5.5 z m 41.25586,5.33398 c 0.3883,0 0.70507,0.29933 0.70507,0.66602 0,0.36665 -0.13128,0.66797 -0.29297,0.66797 -0.16168,0 -0.48041,-0.30129 -0.70703,-0.66797 -0.22662,-0.36665 -0.0934,-0.66602 0.29493,-0.66602 z m -41.29493,1.33399 c 0.84294,0 0.84294,1.36166 0,2.66601 -0.50358,0.77925 -0.64829,0.59464 -0.65625,-0.83398 -0.006,-1.00834 0.28957,-1.83203 0.65625,-1.83203 z m 19.48438,1.61132 c 0.70535,-0.0447 0.65572,3.14131 -0.15039,4.38868 -0.48172,0.74539 -0.64864,0.3732 -0.65625,-1.46094 -0.005,-1.35336 0.2896,-2.64644 0.65625,-2.87305 0.0537,-0.0332 0.10336,-0.0517 0.15039,-0.0547 z m -19.83985,2.69532 c 0.0402,0.015 0.0846,0.0788 0.13086,0.19336 0.18494,0.45833 0.18494,1.20768 0,1.66601 -0.18493,0.45833 -0.33593,0.0827 -0.33593,-0.83398 0,-0.6875 0.0845,-1.07031 0.20507,-1.02539 z"
         style="fill:#000000;fill-opacity:1;stroke:#000000;stroke-width:1.88976383;stroke-miterlimit:4;stroke-dasharray:none;stroke-opacity:0"
         inkscape:connector-curvature="0" />
      <path
         inkscape:connector-curvature="0"
         id="path2051-8"
         d="M 65.559355,24.303425 A 21.253016,21.253016 0 0 1 44.306336,45.556441 21.253016,21.253016 0 0 1 23.053321,24.303425 21.253016,21.253016 0 0 1 44.306336,3.0504102 21.253016,21.253016 0 0 1 65.559355,24.303425 Z"
         style="fill:none;fill-opacity:0;stroke:#ff0000;stroke-width:0.1;stroke-miterlimit:4;stroke-dasharray:none;stroke-opacity:1" />
      <path
         id="rect2205-2"
         d="m 22.803373,22.053425 h 2.8 v 4.5 h -2.8 z"
         style="fill:none;fill-opacity:1;stroke:#ff0000;stroke-width:0.07888107;stroke-miterlimit:4;stroke-dasharray:none;stroke-opacity:1"
         inkscape:connector-curvature="0" />
      <path
         id="rect2231"
         d="m 63.009304,22.053425 h 2.8 v 4.5 h -2.8 z"
         style="fill:none;fill-opacity:1;stroke:#ff0000;stroke-width:0.07888107;stroke-miterlimit:4;stroke-dasharray:none;stroke-opacity:1"
         inkscape:connector-curvature="0" />
      <path
         transform="rotate(90)"
         id="rect2233"
         d="m 2.8004594,-46.556339 h 2.7999999 v 4.5 H 2.8004594 Z"
         style="fill:none;fill-opacity:1;stroke:#ff0000;stroke-width:0.07888107;stroke-miterlimit:4;stroke-dasharray:none;stroke-opacity:1"
         inkscape:connector-curvature="0" />
      <path
         transform="rotate(90)"
         id="rect2235"
         d="m 43.00639,-46.556339 h 2.8 v 4.5 h -2.8 z"
         style="fill:none;fill-opacity:1;stroke:#ff0000;stroke-width:0.07888107;stroke-miterlimit:4;stroke-dasharray:none;stroke-opacity:1"
         inkscape:connector-curvature="0" />
    </g>
  </g>
</svg>
